<?xml version="1.0" encoding="utf-8"?>
<!-- Generator: Adobe Illustrator 19.2.1, SVG Export Plug-In . SVG Version: 6.00 Build 0)  -->
<svg version="1.1" id="Layer_1" xmlns="http://www.w3.org/2000/svg" xmlns:xlink="http://www.w3.org/1999/xlink" x="0px" y="0px"
	 viewBox="0 0 16 16" style="enable-background:new 0 0 16 16;" xml:space="preserve">
<path d="M12,8v2.5c0,0.8-0.7,1.5-1.5,1.5S9,11.3,9,10.5V9h1c0.3,0,0.5-0.2,0.5-0.5S10.3,8,10,8H9V5.8c0.7-0.3,1.1-1,1.1-1.8
	c0-1.1-0.9-2-2-2c-1.1,0-2,0.9-2,2c0,0.7,0.4,1.3,0.9,1.7V8H6C5.7,8,5.5,8.2,5.5,8.5S5.7,9,6,9h1v1.5C7,11.3,6.3,12,5.5,12
	S4,11.3,4,10.5V8c-1.1,0-2,0.9-2,2v0.5C2,12.4,3.6,14,5.5,14c1,0,1.9-0.4,2.5-1.1c0.6,0.6,1.5,1.1,2.5,1.1c1.9,0,3.5-1.6,3.5-3.5V10
	C14,8.9,13.1,8,12,8z M8,3.5c0.3,0,0.5,0.2,0.5,0.5S8.3,4.5,8,4.5S7.5,4.3,7.5,4S7.7,3.5,8,3.5z"/>
</svg>
