<?xml version="1.0" encoding="utf-8"?>
<!-- Generator: Adobe Illustrator 19.2.1, SVG Export Plug-In . SVG Version: 6.00 Build 0)  -->
<svg version="1.1" id="Layer_2" xmlns="http://www.w3.org/2000/svg" xmlns:xlink="http://www.w3.org/1999/xlink" x="0px" y="0px"
	 viewBox="0 0 16 16" style="enable-background:new 0 0 16 16;" xml:space="preserve">
<style type="text/css">
	.st0{fill:#0F0F0F;}
</style>
<path class="st0" d="M12,8v2v0.5c0,0.8-0.7,1.5-1.5,1.5S9,11.3,9,10.5V5.8c0.7-0.3,1.1-1,1.1-1.8c0-1.1-0.9-2-2-2c-1.1,0-2,0.9-2,2
	c0,0.7,0.4,1.3,0.9,1.7v4.8C7,11.3,6.3,12,5.5,12S4,11.3,4,10.5V10V8c-1.1,0-2,0.9-2,2v0.5C2,12.4,3.6,14,5.5,14
	c1,0,1.9-0.4,2.5-1.1c0.6,0.6,1.5,1.1,2.5,1.1c1.9,0,3.5-1.6,3.5-3.5V10C14,8.9,13.1,8,12,8z"/>
</svg>
