<?xml version="1.0" encoding="utf-8"?>
<!-- Generator: Adobe Illustrator 16.0.4, SVG Export Plug-In . SVG Version: 6.00 Build 0)  -->
<!DOCTYPE svg PUBLIC "-//W3C//DTD SVG 1.1//EN" "http://www.w3.org/Graphics/SVG/1.1/DTD/svg11.dtd">
<svg version="1.1" id="Layer_3" xmlns="http://www.w3.org/2000/svg" xmlns:xlink="http://www.w3.org/1999/xlink" x="0px" y="0px"
	 width="16px" height="16px" viewBox="0 0 16 16" style="enable-background:new 0 0 16 16;" xml:space="preserve">
<path style="fill:#F27D82;" d="M8.5,2C7.119,2,6,3.119,6,4.5v4C6,9.328,6.671,10,7.5,10C8.328,10,9,9.328,9,8.5V4.969H8V8.5
	C8,8.776,7.776,9,7.5,9S7,8.776,7,8.5v-4C7,3.672,7.671,3,8.5,3C9.328,3,10,3.672,10,4.5v5c0,1.381-1.12,2.5-2.5,2.5
	C6.119,12,5,10.881,5,9.5V7H4v2.5C4,11.433,5.567,13,7.5,13c1.933,0,3.5-1.567,3.5-3.5v-5C11,3.119,9.881,2,8.5,2z"/>
</svg>
