<?xml version="1.0" encoding="utf-8"?>
<!-- Generator: Adobe Illustrator 19.2.1, SVG Export Plug-In . SVG Version: 6.00 Build 0)  -->
<svg version="1.1" id="Layer_3" xmlns="http://www.w3.org/2000/svg" xmlns:xlink="http://www.w3.org/1999/xlink" x="0px" y="0px"
	 viewBox="0 0 16 16" style="enable-background:new 0 0 16 16;" xml:space="preserve">
<path d="M9.5,1C8.1,1,7,2.2,7,3.5v7C7,11.3,7.7,12,8.5,12c0.8,0,1.5-0.7,1.5-1.5V5H9v5.5C9,10.8,8.8,11,8.5,11S8,10.8,8,10.5v-7
	C8,2.7,8.7,2,9.5,2C10.3,2,11,2.7,11,3.5v8c0,1.4-1.1,2.5-2.5,2.5C7.1,14,6,12.9,6,11.5V5H5v6.5C5,13.4,6.6,15,8.5,15
	s3.5-1.6,3.5-3.5v-8C12,2.2,10.9,1,9.5,1z"/>
</svg>
