<?xml version="1.0" encoding="utf-8"?>
<!-- Generator: Adobe Illustrator 19.2.1, SVG Export Plug-In . SVG Version: 6.00 Build 0)  -->
<svg version="1.1" id="Layer_5" xmlns="http://www.w3.org/2000/svg" xmlns:xlink="http://www.w3.org/1999/xlink" x="0px" y="0px"
	 viewBox="0 0 16 16" style="enable-background:new 0 0 16 16;" xml:space="preserve">
<path d="M4,5C2.9,5,2,5.9,2,7v2c0,1.1,0.9,2,2,2h1l4,4V1L5,5H4z M11.5,4.5l-0.7,0.7C11.6,5.9,12,6.9,12,8c0,1.1-0.5,2.1-1.2,2.8
	l0.7,0.7C12.4,10.6,13,9.4,13,8C13,6.6,12.4,5.4,11.5,4.5z M13,3l-0.7,0.7C13.3,4.8,14,6.3,14,8c0,1.7-0.7,3.2-1.8,4.2l0.7,0.7
	c1.3-1.3,2.1-3,2.1-5C15,6,14.2,4.3,13,3z"/>
</svg>
