<?xml version="1.0" encoding="utf-8"?>
<!-- Generator: Adobe Illustrator 19.2.1, SVG Export Plug-In . SVG Version: 6.00 Build 0)  -->
<svg version="1.1" id="Layer_2" xmlns="http://www.w3.org/2000/svg" xmlns:xlink="http://www.w3.org/1999/xlink" x="0px" y="0px"
	 viewBox="0 0 16 16" style="enable-background:new 0 0 16 16;" xml:space="preserve">
<path d="M12,5c0-1.7-1.4-3-3-3H4v5v2v5h5c1.6,0,3-1.3,3-3v-1c0-0.8-0.3-1.5-0.8-2C11.7,7.5,12,6.8,12,6V5z M6,4h3c0.5,0,1,0.5,1,1v1
	c0,0.5-0.5,1-1,1H6V4z M10,11c0,0.5-0.5,1-1,1H6V9h3h0c0.5,0,1,0.5,1,1V11z"/>
</svg>
