<?xml version="1.0" encoding="utf-8"?>
<!-- Generator: Adobe Illustrator 16.0.4, SVG Export Plug-In . SVG Version: 6.00 Build 0)  -->
<!DOCTYPE svg PUBLIC "-//W3C//DTD SVG 1.1//EN" "http://www.w3.org/Graphics/SVG/1.1/DTD/svg11.dtd">
<svg version="1.1" id="Layer_7" xmlns="http://www.w3.org/2000/svg" xmlns:xlink="http://www.w3.org/1999/xlink" x="0px" y="0px"
	 width="16px" height="16px" viewBox="0 0 16 16" style="enable-background:new 0 0 16 16;" xml:space="preserve">
<g>
	<path d="M4,3h2.802c1.276,0,2.202,0.182,2.779,0.545c0.576,0.363,0.864,0.941,0.864,1.733c0,0.538-0.126,0.979-0.378,1.323
		C9.814,6.946,9.479,7.153,9.061,7.223v0.062c0.57,0.127,0.981,0.365,1.234,0.714c0.252,0.349,0.379,0.813,0.379,1.391
		c0,0.821-0.297,1.461-0.89,1.921C9.19,11.771,8.386,12,7.368,12H4V3z M6,6.564h1.017c0.518,0,0.892-0.08,1.124-0.24
		c0.231-0.16,0.348-0.425,0.348-0.794c0-0.345-0.126-0.592-0.379-0.742C7.857,4.639,7.458,4.563,6.912,4.563H6V6.564z M6,8.079
		v2.345h1.152c0.525,0,0.913-0.101,1.163-0.302c0.251-0.201,0.376-0.509,0.376-0.923c0-0.747-0.534-1.121-1.601-1.121H6z"/>
</g>
</svg>
