<?xml version="1.0" encoding="utf-8"?>
<!-- Generator: Adobe Illustrator 19.2.1, SVG Export Plug-In . SVG Version: 6.00 Build 0)  -->
<svg version="1.1" id="Layer_2" xmlns="http://www.w3.org/2000/svg" xmlns:xlink="http://www.w3.org/1999/xlink" x="0px" y="0px"
	 viewBox="0 0 16 16" enable-background="new 0 0 16 16" xml:space="preserve">
<path fill="#231F20" d="M14,7V5h-2.1c-0.1-0.4-0.2-0.7-0.4-1l1.3-1.3l-1.4-1.4L10,2.6C9.4,2.2,8.7,2,8,2S6.6,2.2,6,2.6L4.7,1.3
	L3.3,2.7L4.6,4C4.4,4.3,4.2,4.6,4.1,5H2v2h2v2H2v2h2.1c0.4,1.6,1.7,2.7,3.4,3V7h1v7c1.6-0.2,2.9-1.4,3.4-3H14V9h-2V7H14z"/>
</svg>
