<?xml version="1.0" encoding="utf-8"?>
<!-- Generator: Adobe Illustrator 16.0.4, SVG Export Plug-In . SVG Version: 6.00 Build 0)  -->
<!DOCTYPE svg PUBLIC "-//W3C//DTD SVG 1.1//EN" "http://www.w3.org/Graphics/SVG/1.1/DTD/svg11.dtd">
<svg version="1.1" id="Layer_1" xmlns="http://www.w3.org/2000/svg" xmlns:xlink="http://www.w3.org/1999/xlink" x="0px" y="0px"
	 width="16px" height="16px" viewBox="0 0 16 16" style="enable-background:new 0 0 16 16;" xml:space="preserve">
<path style="fill:#231F20;" d="M14.5,8H13c0-0.485-0.084-0.946-0.219-1.386C13.543,5.608,14,4.359,14,3V2.5
	C14,2.224,13.776,2,13.5,2S13,2.224,13,2.5V3c0,2.761-2.238,5-5,5C5.239,8,3,5.761,3,3V2.5C3,2.224,2.776,2,2.5,2S2,2.224,2,2.5V3
	c0,1.364,0.46,2.617,1.227,3.625C3.095,7.063,3,7.518,3,8H1.5C1.224,8,1,8.224,1,8.5S1.224,9,1.5,9h1.601
	c0.078,0.381,0.208,0.739,0.367,1.083C2.557,11.135,2,12.5,2,14v0.5C2,14.775,2.224,15,2.5,15S3,14.775,3,14.5V14
	c0-1.132,0.386-2.166,1.021-3.001C4.934,12.207,6.369,13,8,13c1.635,0,3.072-0.796,3.984-2.009C12.619,11.829,13,12.868,13,14v0.5
	c0,0.275,0.224,0.5,0.5,0.5s0.5-0.225,0.5-0.5V14c0-1.5-0.556-2.866-1.467-3.917C12.691,9.739,12.822,9.381,12.899,9H14.5
	C14.776,9,15,8.776,15,8.5S14.776,8,14.5,8z M8,7c1.633,0,3.034-0.985,3.655-2.39C10.742,3.625,9.449,3,8,3
	C6.552,3,5.258,3.625,4.345,4.61C4.966,6.015,6.368,7,8,7z"/>
</svg>
