<?xml version="1.0" encoding="utf-8"?>
<!-- Generator: Adobe Illustrator 19.2.1, SVG Export Plug-In . SVG Version: 6.00 Build 0)  -->
<svg version="1.1" id="Shape_1_1_" xmlns="http://www.w3.org/2000/svg" xmlns:xlink="http://www.w3.org/1999/xlink" x="0px" y="0px"
	 viewBox="0 0 16 16" enable-background="new 0 0 16 16" xml:space="preserve">
<path fill="#231F20" d="M11,12c-0.6,0-1,0.4-1,1s0.4,1,1,1s1-0.4,1-1S11.6,12,11,12z M5,12c-0.6,0-1,0.4-1,1s0.4,1,1,1s1-0.4,1-1
	S5.6,12,5,12z M11,10H5V9h5.6c0.8,0,1.5-0.5,1.9-1.3L14,4H5V3c0-0.6-0.4-1-1-1H2v1h2v7c0,0.6,0.4,1,1,1h6h1C12,10.4,11.6,10,11,10z"
	/>
</svg>
