<?xml version="1.0" encoding="utf-8"?>
<!-- Generator: Adobe Illustrator 19.2.1, SVG Export Plug-In . SVG Version: 6.00 Build 0)  -->
<svg version="1.1" id="Layer_2" xmlns="http://www.w3.org/2000/svg" xmlns:xlink="http://www.w3.org/1999/xlink" x="0px" y="0px"
	 viewBox="0 0 16 16" enable-background="new 0 0 16 16" xml:space="preserve">
<path fill="#231F20" d="M14,4.3V8c0,1.7-1.3,3-3,3H4.8c-0.3,0-0.5,0.1-0.7,0.3l-0.3,0.3C4.1,11.8,4.6,12,5,12h6.2
	c0.5,0,1,0.2,1.4,0.6L15,15V6C15,5.3,14.6,4.6,14,4.3z M11,10c1.1,0,2-0.9,2-2V4c0-1.1-0.9-2-2-2H3C1.9,2,1,2.9,1,4v9l2.4-2.4
	C3.8,10.2,4.3,10,4.8,10H11z"/>
</svg>
