<?xml version="1.0" encoding="utf-8"?>
<!-- Generator: Adobe Illustrator 16.0.4, SVG Export Plug-In . SVG Version: 6.00 Build 0)  -->
<!DOCTYPE svg PUBLIC "-//W3C//DTD SVG 1.1//EN" "http://www.w3.org/Graphics/SVG/1.1/DTD/svg11.dtd">
<svg version="1.1" id="Layer_6" xmlns="http://www.w3.org/2000/svg" xmlns:xlink="http://www.w3.org/1999/xlink" x="0px" y="0px"
	 width="16px" height="16px" viewBox="0 0 16 16" style="enable-background:new 0 0 16 16;" xml:space="preserve">
<path style="fill:#231F20;" d="M13,4v3c0,1.654-1.346,3-3,3H6.914l-1,1H8.5l3.5,3.5V11h1c1.104,0,2-0.896,2-2V6
	C15,4.896,14.104,4,13,4z"/>
<path style="fill:#231F20;" d="M10,2H2C0.896,2,0,2.896,0,4v3c0,1.104,0.896,2,2,2h1v3.5L6.5,9H10c1.104,0,2-0.896,2-2V4
	C12,2.896,11.104,2,10,2z"/>
</svg>
