<?xml version="1.0" encoding="utf-8"?>
<!-- Generator: Adobe Illustrator 19.2.1, SVG Export Plug-In . SVG Version: 6.00 Build 0)  -->
<svg version="1.1" id="Shape_1_1_" xmlns="http://www.w3.org/2000/svg" xmlns:xlink="http://www.w3.org/1999/xlink" x="0px" y="0px"
	 viewBox="0 0 16 16" enable-background="new 0 0 16 16" xml:space="preserve">
<path d="M9,11H7v2H5l3,3l3-3H9V11z M13,8h-0.2C12.9,7.7,13,7.4,13,7c0-1.7-1.3-3-3-3C8.8,4,7.8,4.7,7.3,5.7C6.8,5.3,6.2,5,5.5,5
	C4.1,5,3,6.1,3,7.5C3,7.7,3,7.8,3,8h0c-1.1,0-2,0.9-2,2s0.9,2,2,2h3v-2h4v2h3c1.1,0,2-0.9,2-2S14.1,8,13,8z"/>
</svg>
