<?xml version="1.0" encoding="utf-8"?>
<!-- Generator: Adobe Illustrator 19.2.1, SVG Export Plug-In . SVG Version: 6.00 Build 0)  -->
<svg version="1.1" id="Layer_2" xmlns="http://www.w3.org/2000/svg" xmlns:xlink="http://www.w3.org/1999/xlink" x="0px" y="0px"
	 viewBox="0 0 16 16" enable-background="new 0 0 16 16" xml:space="preserve">
<path fill="#231F20" d="M13,8c0-0.4-0.1-0.8-0.1-1.1L14,6.1c0.4-0.3,0.5-0.9,0.3-1.3l-0.3-0.6c-0.3-0.5-0.8-0.6-1.3-0.4l-1.2,0.5
	C11,3.8,10.3,3.4,9.6,3.2L9.3,1.8C9.3,1.3,8.8,1,8.4,1H7.7c-0.5,0-0.9,0.4-1,0.9L6.5,3.2C5.8,3.5,5.2,3.8,4.6,4.3L3.4,3.8
	c-0.5-0.2-1,0-1.3,0.4L1.8,4.8C1.5,5.3,1.6,5.8,2,6.1l1.1,0.8C3.1,7.2,3,7.6,3,8c0,0.4,0.1,0.8,0.1,1.1L2,9.9
	c-0.4,0.3-0.5,0.9-0.3,1.3l0.3,0.6c0.3,0.5,0.8,0.6,1.3,0.4l1.2-0.5c0.5,0.5,1.2,0.9,1.9,1.1l0.3,1.4c0.1,0.5,0.5,0.8,1,0.8h0.7
	c0.5,0,1-0.4,1-0.9l0.1-1.3c0.7-0.2,1.4-0.6,1.9-1.1l1.2,0.5c0.5,0.2,1,0,1.3-0.4l0.3-0.6c0.2-0.4,0.1-1-0.3-1.3l-1.1-0.8
	C12.9,8.8,13,8.4,13,8z M8,10.5c-1.4,0-2.5-1.1-2.5-2.5S6.6,5.5,8,5.5s2.5,1.1,2.5,2.5S9.4,10.5,8,10.5z"/>
</svg>
