<?xml version="1.0" encoding="utf-8"?>
<!-- Generator: Adobe Illustrator 19.2.1, SVG Export Plug-In . SVG Version: 6.00 Build 0)  -->
<svg version="1.1" id="Layer_2" xmlns="http://www.w3.org/2000/svg" xmlns:xlink="http://www.w3.org/1999/xlink" x="0px" y="0px"
	 viewBox="0 0 16 16" enable-background="new 0 0 16 16" xml:space="preserve">
<path fill="#231F20" d="M13,8c0-0.4-0.1-0.8-0.1-1.1l1.8-1.3l-1.2-2.2l-2,0.9C11,3.8,10.3,3.4,9.6,3.2L9.2,1H6.8L6.5,3.2
	C5.8,3.5,5.2,3.8,4.6,4.3l-2-0.9L1.3,5.6l1.8,1.3C3.1,7.2,3,7.6,3,8c0,0.4,0.1,0.8,0.1,1.1l-1.8,1.3l1.2,2.2l2-0.9
	c0.5,0.5,1.2,0.9,1.9,1.1L6.8,15h2.5l0.2-2.2c0.7-0.2,1.4-0.6,1.9-1.1l2,0.9l1.2-2.2l-1.8-1.3C12.9,8.8,13,8.4,13,8z M8,10.5
	c-1.4,0-2.5-1.1-2.5-2.5S6.6,5.5,8,5.5s2.5,1.1,2.5,2.5S9.4,10.5,8,10.5z"/>
</svg>
