<?xml version="1.0" encoding="utf-8"?>
<!-- Generator: Adobe Illustrator 16.0.4, SVG Export Plug-In . SVG Version: 6.00 Build 0)  -->
<!DOCTYPE svg PUBLIC "-//W3C//DTD SVG 1.1//EN" "http://www.w3.org/Graphics/SVG/1.1/DTD/svg11.dtd">
<svg version="1.1" id="Layer_2" xmlns="http://www.w3.org/2000/svg" xmlns:xlink="http://www.w3.org/1999/xlink" x="0px" y="0px"
	 width="16px" height="16px" viewBox="0 0 16 16" style="enable-background:new 0 0 16 16;" xml:space="preserve">
<path style="fill:#231F20;" d="M3,6.25C2.033,6.25,1.25,7.033,1.25,8c0,0.966,0.783,1.75,1.75,1.75S4.75,8.966,4.75,8
	C4.75,7.033,3.967,6.25,3,6.25z M8,6.25C7.033,6.25,6.25,7.033,6.25,8c0,0.966,0.783,1.75,1.75,1.75c0.966,0,1.75-0.784,1.75-1.75
	C9.75,7.033,8.966,6.25,8,6.25z M13,6.25c-0.966,0-1.75,0.783-1.75,1.75c0,0.966,0.784,1.75,1.75,1.75S14.75,8.966,14.75,8
	C14.75,7.033,13.966,6.25,13,6.25z"/>
</svg>
