<?xml version="1.0" encoding="utf-8"?>
<!-- Generator: Adobe Illustrator 19.2.1, SVG Export Plug-In . SVG Version: 6.00 Build 0)  -->
<svg version="1.1" id="Layer_2" xmlns="http://www.w3.org/2000/svg" xmlns:xlink="http://www.w3.org/1999/xlink" x="0px" y="0px"
	 viewBox="0 0 16 16" enable-background="new 0 0 16 16" xml:space="preserve">
<path d="M3,6.2C2,6.2,1.2,7,1.2,8C1.2,9,2,9.8,3,9.8S4.8,9,4.8,8C4.8,7,4,6.2,3,6.2z M13,6.2c-1,0-1.8,0.8-1.8,1.8
	c0,1,0.8,1.8,1.8,1.8S14.8,9,14.8,8C14.8,7,14,6.2,13,6.2z M8,6.2C7,6.2,6.2,7,6.2,8C6.2,9,7,9.8,8,9.8C9,9.8,9.8,9,9.8,8
	C9.8,7,9,6.2,8,6.2z"/>
</svg>
