<?xml version="1.0" encoding="utf-8"?>
<!-- Generator: Adobe Illustrator 19.2.1, SVG Export Plug-In . SVG Version: 6.00 Build 0)  -->
<svg version="1.1" id="Rectangle_8_1_" xmlns="http://www.w3.org/2000/svg" xmlns:xlink="http://www.w3.org/1999/xlink" x="0px"
	 y="0px" viewBox="0 0 16 16" style="enable-background:new 0 0 16 16;" xml:space="preserve">
<path d="M12,10V4c0-1.1-0.9-2-2-2H4C2.9,2,2,2.9,2,4v6c0,1.1,0.9,2,2,2h6C11.1,12,12,11.1,12,10z M5.5,7l1.1,1.6l1.5-2.4L10,10H4
	L5.5,7z M13,5v8H7H5c0,1.1,0.9,2,2,2h6c1.1,0,2-0.9,2-2V7C15,5.9,14.1,5,13,5z"/>
</svg>
