<?xml version="1.0" encoding="utf-8"?>
<!-- Generator: Adobe Illustrator 16.0.4, SVG Export Plug-In . SVG Version: 6.00 Build 0)  -->
<!DOCTYPE svg PUBLIC "-//W3C//DTD SVG 1.1//EN" "http://www.w3.org/Graphics/SVG/1.1/DTD/svg11.dtd">
<svg version="1.1" id="Layer_7" xmlns="http://www.w3.org/2000/svg" xmlns:xlink="http://www.w3.org/1999/xlink" x="0px" y="0px"
	 width="16px" height="16px" viewBox="0 0 16 16" style="enable-background:new 0 0 16 16;" xml:space="preserve">
<path style="fill:#7F1E1F;" d="M8,2C4.686,2,2,4.687,2,8c0,3.313,2.686,6,6,6c3.313,0,6-2.687,6-6C14,4.687,11.313,2,8,2z M8,12
	c-0.553,0-1-0.449-1-1s0.447-1,1-1c0.552,0,1,0.449,1,1S8.552,12,8,12z M10.49,6.97c-0.197,0.306-0.506,0.594-0.936,0.866
	C9.195,8.07,8.969,8.242,8.875,8.352C8.783,8.459,8.74,8.588,8.74,8.734V9H7.149V8.555c0-0.336,0.069-0.623,0.206-0.855
	c0.14-0.234,0.384-0.46,0.737-0.68C8.371,6.844,8.57,6.685,8.695,6.544C8.816,6.402,8.879,6.24,8.879,6.058
	c0-0.145-0.064-0.26-0.199-0.344C8.549,5.629,8.379,5.587,8.17,5.587c-0.522,0-1.131,0.185-1.828,0.554L5.624,4.734
	C6.482,4.244,7.378,4,8.314,4c0.768,0,1.375,0.168,1.812,0.506c0.438,0.337,0.654,0.798,0.654,1.38
	C10.781,6.305,10.684,6.666,10.49,6.97z"/>
</svg>
