<?xml version="1.0" encoding="utf-8"?>
<!-- Generator: Adobe Illustrator 19.2.1, SVG Export Plug-In . SVG Version: 6.00 Build 0)  -->
<svg version="1.1" id="Layer_7" xmlns="http://www.w3.org/2000/svg" xmlns:xlink="http://www.w3.org/1999/xlink" x="0px" y="0px"
	 viewBox="0 0 16 16" style="enable-background:new 0 0 16 16;" xml:space="preserve">
<path d="M8,2C4.7,2,2,4.7,2,8s2.7,6,6,6s6-2.7,6-6S11.3,2,8,2z M8,12c-0.6,0-1-0.4-1-1s0.4-1,1-1s1,0.4,1,1S8.6,12,8,12z M9.5,8.5
	C8.8,8.7,8.8,9.1,8.8,9.2H7.2c0-1,0.6-1.8,1.8-2.2c0.7-0.2,0.7-0.7,0.7-0.8c0-0.4-0.3-0.8-0.8-0.8H7c-0.4,0-0.8,0.3-0.8,0.8H4.8
	C4.8,5,5.8,4,7,4h2c1.2,0,2.2,1,2.2,2.2C11.2,7.3,10.6,8.1,9.5,8.5z"/>
</svg>
