<?xml version="1.0" encoding="utf-8"?>
<!-- Generator: Adobe Illustrator 19.2.1, SVG Export Plug-In . SVG Version: 6.00 Build 0)  -->
<svg version="1.1" id="Layer_1" xmlns="http://www.w3.org/2000/svg" xmlns:xlink="http://www.w3.org/1999/xlink" x="0px" y="0px"
	 viewBox="0 0 16 16" style="enable-background:new 0 0 16 16;" xml:space="preserve">
<g id="Layer_2">
</g>
<g id="Layer_3">
</g>
<path d="M14.8,7.6C14.4,7,14,6.4,13.5,5.9L12.4,7c0.3,0.3,0.6,0.6,0.8,1c-1,1.5-2.7,2.5-4.5,2.7l-1.5,1.5c0.3,0,0.6,0.1,0.8,0.1
	c2.8,0,5.4-1.5,6.8-3.9L15,8L14.8,7.6z M12.3,2.3l-1.8,1.8C9.7,3.9,8.9,3.7,8,3.7c-2.8,0-5.4,1.5-6.8,3.9L1,8l0.2,0.4
	c0.6,1,1.4,1.9,2.4,2.6l-1.3,1.3l1.4,1.4l10-10L12.3,2.3z M5.5,7.5c0,0.5,0.1,0.9,0.3,1.2L4.8,9.8C4,9.4,3.3,8.8,2.8,8
	c0.9-1.4,2.3-2.3,3.9-2.6C6,5.8,5.5,6.6,5.5,7.5z"/>
</svg>
