<?xml version="1.0" encoding="utf-8"?>
<!-- Generator: Adobe Illustrator 19.2.1, SVG Export Plug-In . SVG Version: 6.00 Build 0)  -->
<svg version="1.1" id="Layer_2" xmlns="http://www.w3.org/2000/svg" xmlns:xlink="http://www.w3.org/1999/xlink" x="0px" y="0px"
	 viewBox="0 0 16 16" style="enable-background:new 0 0 16 16;" xml:space="preserve">
<path d="M13,5h-2l-1-2H6L5,5H3C2.4,5,2,5.4,2,6v6c0,0.5,0.4,1,1,1h10c0.5,0,1-0.4,1-1V6C14,5.4,13.6,5,13,5z M8,12c-1.7,0-3-1.3-3-3
	s1.3-3,3-3s3,1.3,3,3S9.7,12,8,12z M8,7C6.9,7,6,7.9,6,9s0.9,2,2,2s2-0.9,2-2S9.1,7,8,7z"/>
</svg>
