<?xml version="1.0" encoding="utf-8"?>
<!-- Generator: Adobe Illustrator 16.0.4, SVG Export Plug-In . SVG Version: 6.00 Build 0)  -->
<!DOCTYPE svg PUBLIC "-//W3C//DTD SVG 1.1//EN" "http://www.w3.org/Graphics/SVG/1.1/DTD/svg11.dtd">
<svg version="1.1" id="Layer_5_copy" xmlns="http://www.w3.org/2000/svg" xmlns:xlink="http://www.w3.org/1999/xlink" x="0px"
	 y="0px" width="16px" height="16px" viewBox="0 0 16 16" style="enable-background:new 0 0 16 16;" xml:space="preserve">
<path style="fill:#7F1E1F;" d="M8,2C4.686,2,2,4.687,2,8c0,3.313,2.686,6,6,6c3.313,0,6-2.687,6-6C14,4.687,11.313,2,8,2z M8,4
	c0.552,0,1,0.448,1,1S8.552,6,8,6C7.447,6,7,5.552,7,5S7.447,4,8,4z M10,12H6v-1h1.25V8H6.249V7H8.75v4H10V12z"/>
</svg>
