<?xml version="1.0" encoding="utf-8"?>
<!-- Generator: Adobe Illustrator 19.2.1, SVG Export Plug-In . SVG Version: 6.00 Build 0)  -->
<svg version="1.1" id="Layer_3" xmlns="http://www.w3.org/2000/svg" xmlns:xlink="http://www.w3.org/1999/xlink" x="0px" y="0px"
	 viewBox="0 0 16 16" enable-background="new 0 0 16 16" xml:space="preserve">
<path d="M13,4h-3C8.9,4,8,4.9,8,6v0.8H7V6c0-1.1-0.9-2-2-2H2C0.9,4,0,4.9,0,6v3c0,1.1,0.9,2,2,2h3c1.1,0,2-0.9,2-2V8.2h1V9
	c0,1.1,0.9,2,2,2h3c1.1,0,2-0.9,2-2V6C15,4.9,14.1,4,13,4z M5.5,9c0,0.3-0.2,0.5-0.5,0.5H2C1.7,9.5,1.5,9.3,1.5,9V6
	c0-0.3,0.2-0.5,0.5-0.5h3c0.3,0,0.5,0.2,0.5,0.5v0.8H5c-0.4,0-0.8,0.3-0.8,0.8S4.6,8.2,5,8.2h0.5V9z M13.5,9c0,0.3-0.2,0.5-0.5,0.5
	h-3C9.7,9.5,9.5,9.3,9.5,9V8.2H10c0.4,0,0.8-0.3,0.8-0.8S10.4,6.8,10,6.8H9.5V6c0-0.3,0.2-0.5,0.5-0.5h3c0.3,0,0.5,0.2,0.5,0.5V9z"
	/>
</svg>
