<?xml version="1.0" encoding="utf-8"?>
<!-- Generator: Adobe Illustrator 19.2.1, SVG Export Plug-In . SVG Version: 6.00 Build 0)  -->
<svg version="1.1" id="Layer_1" xmlns="http://www.w3.org/2000/svg" xmlns:xlink="http://www.w3.org/1999/xlink" x="0px" y="0px"
	 viewBox="0 0 16 16" enable-background="new 0 0 16 16" xml:space="preserve">
<path fill="#231F20" d="M8,10c1.1,0,2-0.9,2-2V4c0-1.1-0.9-2-2-2S6,2.9,6,4v4C6,9.1,6.9,10,8,10z M11,8c0,1.7-1.3,3-3,3S5,9.7,5,8H3
	c0,2.4,1.7,4.4,4,4.9V15h2v-2.1c2.3-0.5,4-2.5,4-4.9C13,8,11,8,11,8z"/>
</svg>
