<?xml version="1.0" encoding="utf-8"?>
<!-- Generator: Adobe Illustrator 19.2.1, SVG Export Plug-In . SVG Version: 6.00 Build 0)  -->
<svg version="1.1" id="Layer_1" xmlns="http://www.w3.org/2000/svg" xmlns:xlink="http://www.w3.org/1999/xlink" x="0px" y="0px"
	 viewBox="0 0 16 16" enable-background="new 0 0 16 16" xml:space="preserve">
<path d="M12,3h-1V2H9v1H7V2H5v1H4C2.9,3,2,3.9,2,5v6c0,1.1,0.9,2,2,2h8c1.1,0,2-0.9,2-2V5C14,3.9,13.1,3,12,3z M9,7
	c0,0.4-0.2,0.7-0.4,1C8.8,8.3,9,8.6,9,9v0.5C9,10.3,8.3,11,7.5,11h-1C5.7,11,5,10.3,5,9.5V9h1v0.5C6,9.8,6.2,10,6.5,10h1
	C7.8,10,8,9.8,8,9.5V9c0-0.3-0.2-0.5-0.5-0.5H7v-1h0.5C7.8,7.5,8,7.3,8,7V6.5C8,6.2,7.8,6,7.5,6h-1C6.2,6,6,6.2,6,6.5V7H5V6.5
	C5,5.7,5.7,5,6.5,5h1C8.3,5,9,5.7,9,6.5V7z M11,11h-1V5h1V11z"/>
</svg>
