<?xml version="1.0" encoding="utf-8"?>
<!-- Generator: Adobe Illustrator 16.0.4, SVG Export Plug-In . SVG Version: 6.00 Build 0)  -->
<!DOCTYPE svg PUBLIC "-//W3C//DTD SVG 1.1//EN" "http://www.w3.org/Graphics/SVG/1.1/DTD/svg11.dtd">
<svg version="1.1" id="Layer_6" xmlns="http://www.w3.org/2000/svg" xmlns:xlink="http://www.w3.org/1999/xlink" x="0px" y="0px"
	 width="16px" height="16px" viewBox="0 0 16 16" style="enable-background:new 0 0 16 16;" xml:space="preserve">
<g>
	<path style="fill:#C6FF56;" d="M6,1c0,2-1,3-1,3l0.01,0.021L2.722,6.308c-0.389,0.389-0.389,1.025,0,1.414l2.101,2.102l5-5L6,1z"/>
	<path style="fill:#C6FF56;" d="M13.58,11.58L11,9h-1L9.5,8.5C9.225,8.225,9.318,7.682,9.707,7.293l0.586-0.586
		c0.389-0.389,0.389-1.025,0-1.414l-0.116-0.116l-5,5l0.116,0.116c0.389,0.389,1.025,0.389,1.414,0l0.586-0.586
		C7.682,9.318,8.225,9.225,8.5,9.5L9,10v1l2.58,2.58c0.257,0.259,0.611,0.42,1.005,0.42C13.366,14,14,13.366,14,12.585
		C14,12.191,13.839,11.836,13.58,11.58z M12.585,13.085c-0.276,0-0.5-0.224-0.5-0.5s0.224-0.5,0.5-0.5s0.5,0.224,0.5,0.5
		S12.861,13.085,12.585,13.085z"/>
</g>
</svg>
