<?xml version="1.0" encoding="utf-8"?>
<!-- Generator: Adobe Illustrator 19.2.1, SVG Export Plug-In . SVG Version: 6.00 Build 0)  -->
<svg version="1.1" id="Layer_2_1_" xmlns="http://www.w3.org/2000/svg" xmlns:xlink="http://www.w3.org/1999/xlink" x="0px" y="0px"
	 viewBox="0 0 16 16" enable-background="new 0 0 16 16" xml:space="preserve">
<path fill="#231F20" d="M10,1H6C4.9,1,4,1.9,4,3v10c0,1.1,0.9,2,2,2h4c1.1,0,2-0.9,2-2V3C12,1.9,11.1,1,10,1z M8.5,14h-1
	C7.2,14,7,13.8,7,13.5S7.2,13,7.5,13h1C8.8,13,9,13.2,9,13.5S8.8,14,8.5,14z M11,12H5V3h6V12z"/>
</svg>
