<?xml version="1.0" encoding="utf-8"?>
<!-- Generator: Adobe Illustrator 16.0.4, SVG Export Plug-In . SVG Version: 6.00 Build 0)  -->
<!DOCTYPE svg PUBLIC "-//W3C//DTD SVG 1.1//EN" "http://www.w3.org/Graphics/SVG/1.1/DTD/svg11.dtd">
<svg version="1.1" id="Layer_9" xmlns="http://www.w3.org/2000/svg" xmlns:xlink="http://www.w3.org/1999/xlink" x="0px" y="0px"
	 width="16px" height="16px" viewBox="0 0 16 16" style="enable-background:new 0 0 16 16;" xml:space="preserve">
<path d="M3.732,11.561c-0.783,0.783-0.904,1.189-1.061,1.768c0.578-0.156,0.985-0.277,1.768-1.061l4.242-4.242L7.975,7.318
	L3.732,11.561z"/>
<path d="M9.293,2.464c0.391,0.391,0.391,1.023,0,1.414L7.879,5.293c-0.391,0.391-1.024,0.391-1.415,0L5.05,6.707l4.243,4.242
	l1.414-1.414c-0.391-0.391-0.391-1.023,0-1.414l1.414-1.414c0.391-0.391,1.023-0.391,1.414,0l1.414-1.414L10.707,1.05L9.293,2.464z"
	/>
</svg>
