<?xml version="1.0" encoding="utf-8"?>
<!-- Generator: Adobe Illustrator 19.2.1, SVG Export Plug-In . SVG Version: 6.00 Build 0)  -->
<svg version="1.1" id="Shape_2_1_" xmlns="http://www.w3.org/2000/svg" xmlns:xlink="http://www.w3.org/1999/xlink" x="0px" y="0px"
	 viewBox="0 0 16 16" style="enable-background:new 0 0 16 16;" xml:space="preserve">
<path d="M3.8,3.8C2.7,4.9,2,6.3,2,8c0,3,2.2,5.4,5,5.9v-2.1c-1.7-0.4-3-2-3-3.9c0-1.1,0.5-2.1,1.2-2.8L7,7V2H2L3.8,3.8z M14,8
	c0-3-2.2-5.4-5-5.9v2.1c1.7,0.4,3,2,3,3.9c0,1.1-0.5,2.1-1.2,2.8L9.1,9.1C9.1,9.1,9,9,9,9v5h5c0,0-0.8-0.8-1.8-1.8
	C13.3,11.1,14,9.7,14,8z"/>
</svg>
