<?xml version="1.0" encoding="utf-8"?>
<!-- Generator: Adobe Illustrator 16.0.4, SVG Export Plug-In . SVG Version: 6.00 Build 0)  -->
<!DOCTYPE svg PUBLIC "-//W3C//DTD SVG 1.1//EN" "http://www.w3.org/Graphics/SVG/1.1/DTD/svg11.dtd">
<svg version="1.1" xmlns="http://www.w3.org/2000/svg" xmlns:xlink="http://www.w3.org/1999/xlink" x="0px" y="0px" width="16px"
	 height="16px" viewBox="0 0 16 16" style="enable-background:new 0 0 16 16;" xml:space="preserve">
<g id="Layer_2">
</g>
<g id="Shape_1_1_" style="enable-background:new    ;">
	<path style="fill:#FF0000;" d="M10,2H6C4.896,2,4,2.896,4,4v1h1V4h6v6H5V9H4v3c0,1.104,0.896,2,2,2h4c1.104,0,2-0.896,2-2V4
		C12,2.896,11.104,2,10,2z M8,13c-0.552,0-1-0.447-1-1s0.448-1,1-1c0.553,0,1,0.447,1,1S8.553,13,8,13z M6,9l3-2L6,5v1H2v2h4V9z"/>
</g>
</svg>
