<?xml version="1.0" encoding="utf-8"?>
<!-- Generator: Adobe Illustrator 19.2.1, SVG Export Plug-In . SVG Version: 6.00 Build 0)  -->
<svg version="1.1" id="Group_1_copy_2_1_" xmlns="http://www.w3.org/2000/svg" xmlns:xlink="http://www.w3.org/1999/xlink" x="0px"
	 y="0px" viewBox="0 0 16 16" enable-background="new 0 0 16 16" xml:space="preserve">
<g id="arrow_1_">
	<path fill="#231F20" d="M4,10l3-3L4,4v2H0v2h4V10z"/>
</g>
<path fill="#231F20" d="M12,0H4C2.9,0,2,0.9,2,2v3h1V2h10v11H3V9H2v5c0,1.1,0.9,2,2,2h8c1.1,0,2-0.9,2-2V2C14,0.9,13.1,0,12,0z
	 M8.5,15h-1C7.2,15,7,14.8,7,14.5S7.2,14,7.5,14h1C8.8,14,9,14.2,9,14.5S8.8,15,8.5,15z"/>
</svg>
