<?xml version="1.0" encoding="utf-8"?>
<!-- Generator: Adobe Illustrator 19.2.1, SVG Export Plug-In . SVG Version: 6.00 Build 0)  -->
<svg version="1.1" id="Layer_1" xmlns="http://www.w3.org/2000/svg" xmlns:xlink="http://www.w3.org/1999/xlink" x="0px" y="0px"
	 viewBox="0 0 16 16" enable-background="new 0 0 16 16" xml:space="preserve">
<g id="Layer_2">
</g>
<path fill="#231F20" d="M6,10l3-3L6,4v2H2v2h4V10z M10,1H6C4.9,1,4,1.9,4,3v2h1V3h6v9H5V9H4v4c0,1.1,0.9,2,2,2h4c1.1,0,2-0.9,2-2V3
	C12,1.9,11.1,1,10,1z M8.5,14h-1C7.2,14,7,13.8,7,13.5S7.2,13,7.5,13h1C8.8,13,9,13.2,9,13.5S8.8,14,8.5,14z"/>
</svg>
