<?xml version="1.0" encoding="utf-8"?>
<!-- Generator: Adobe Illustrator 16.0.4, SVG Export Plug-In . SVG Version: 6.00 Build 0)  -->
<!DOCTYPE svg PUBLIC "-//W3C//DTD SVG 1.1//EN" "http://www.w3.org/Graphics/SVG/1.1/DTD/svg11.dtd">
<svg version="1.1" id="Group_1_copy_2_1_" xmlns="http://www.w3.org/2000/svg" xmlns:xlink="http://www.w3.org/1999/xlink" x="0px"
	 y="0px" width="16px" height="16px" viewBox="0 0 16 16" style="enable-background:new 0 0 16 16;" xml:space="preserve">
<g id="arrow_1_">
	<path style="fill:#FF0000;" d="M5,9l3-2L5,5v1H1v2h4V9z M12,0H4C2.896,0,2,0.896,2,2v3h2V2h8v10H4V9H2v5c0,1.104,0.896,2,2,2h8
		c1.104,0,2-0.896,2-2V2C14,0.896,13.104,0,12,0z M8,15c-0.552,0-1-0.447-1-1s0.448-1,1-1c0.553,0,1,0.447,1,1S8.553,15,8,15z"/>
</g>
</svg>
