<?xml version="1.0" encoding="utf-8"?>
<!-- Generator: Adobe Illustrator 16.0.4, SVG Export Plug-In . SVG Version: 6.00 Build 0)  -->
<!DOCTYPE svg PUBLIC "-//W3C//DTD SVG 1.1//EN" "http://www.w3.org/Graphics/SVG/1.1/DTD/svg11.dtd">
<svg version="1.1" id="Layer_5" xmlns="http://www.w3.org/2000/svg" xmlns:xlink="http://www.w3.org/1999/xlink" x="0px" y="0px"
	 width="16px" height="16px" viewBox="0 0 16 16" style="enable-background:new 0 0 16 16;" xml:space="preserve">
<path style="fill:#681E1E;" d="M11,8c0,1.657-1.343,3-3,3c-0.828,0-1.563-0.351-2.105-0.895c-0.391-0.392-1.023-0.391-1.414,0
	s-0.391,1.023,0,1.414l-0.005,0.005C5.379,12.431,6.619,13,8,13c2.05,0,3.806-1.235,4.578-3H15V8H11z M8,5
	c0.829,0,1.563,0.351,2.105,0.895L10.11,5.89c0.391,0.391,1.023,0.391,1.414,0s0.391-1.023,0-1.414C10.621,3.57,9.382,3,8,3
	C5.951,3,4.194,4.235,3.422,6H1v2h4C5,6.343,6.343,5,8,5z M6.5,8c0,0.829,0.672,1.5,1.5,1.5c0.829,0,1.5-0.671,1.5-1.5
	S8.829,6.5,8,6.5C7.172,6.5,6.5,7.171,6.5,8z"/>
</svg>
