<?xml version="1.0" encoding="utf-8"?>
<!-- Generator: Adobe Illustrator 16.0.4, SVG Export Plug-In . SVG Version: 6.00 Build 0)  -->
<!DOCTYPE svg PUBLIC "-//W3C//DTD SVG 1.1//EN" "http://www.w3.org/Graphics/SVG/1.1/DTD/svg11.dtd">
<svg version="1.1" xmlns="http://www.w3.org/2000/svg" xmlns:xlink="http://www.w3.org/1999/xlink" x="0px" y="0px" width="16px"
	 height="16px" viewBox="0 0 16 16" style="enable-background:new 0 0 16 16;" xml:space="preserve">
<g id="Layer_2">
</g>
<g id="Layer_7">
	<path style="fill:#E84139;" d="M12.042,4.042C11.015,2.993,9.584,2.34,8,2.34c-1.585,0-3.016,0.653-4.043,1.703L0,8h0l3.957,3.956
		C4.984,13.007,6.416,13.659,8,13.659c1.583,0,3.015-0.652,4.042-1.701L16,8L12.042,4.042z M10.972,10.908
		c-0.79,0.807-1.846,1.251-2.971,1.251c-1.126,0-2.182-0.444-2.983-1.264L2.122,8l2.907-2.907C5.819,4.285,6.874,3.84,8,3.84
		c1.125,0,2.18,0.444,2.981,1.262L13.879,8L10.972,10.908z M11,8 M5,8c0,1.656,1.344,3,3,3s3-1.344,3-3c0-1.657-1.344-3-3-3
		S5,6.343,5,8 M6,7c0-0.552,0.447-1,1-1c0.552,0,1,0.448,1,1S7.552,8,7,8C6.447,8,6,7.552,6,7z"/>
</g>
</svg>
