<?xml version="1.0" encoding="utf-8"?>
<!-- Generator: Adobe Illustrator 19.2.1, SVG Export Plug-In . SVG Version: 6.00 Build 0)  -->
<svg version="1.1" id="Layer_1" xmlns="http://www.w3.org/2000/svg" xmlns:xlink="http://www.w3.org/1999/xlink" x="0px" y="0px"
	 viewBox="0 0 16 16" style="enable-background:new 0 0 16 16;" xml:space="preserve">
<g id="Layer_2">
</g>
<g id="Layer_2_1_">
</g>
<path d="M14.8,7.6c-1.4-2.4-4-3.9-6.8-3.9c-2.8,0-5.4,1.5-6.8,3.9L1,8l0.2,0.4c1.4,2.4,4,3.9,6.8,3.9c2.8,0,5.4-1.5,6.8-3.9L15,8
	L14.8,7.6z M8,10.8c-2.1,0-4-1.1-5.2-2.8c0.9-1.4,2.3-2.3,3.9-2.6C6,5.8,5.5,6.6,5.5,7.5C5.5,8.9,6.6,10,8,10s2.5-1.1,2.5-2.5
	c0-0.9-0.5-1.7-1.2-2.1c1.6,0.3,3,1.3,3.9,2.6C12,9.7,10.1,10.8,8,10.8z"/>
</svg>
