<?xml version="1.0" encoding="utf-8"?>
<!-- Generator: Adobe Illustrator 19.2.1, SVG Export Plug-In . SVG Version: 6.00 Build 0)  -->
<svg version="1.1" id="Layer_3" xmlns="http://www.w3.org/2000/svg" xmlns:xlink="http://www.w3.org/1999/xlink" x="0px" y="0px"
	 viewBox="0 0 16 16" style="enable-background:new 0 0 16 16;" xml:space="preserve">
<path d="M12,10h-0.9c-0.3,0-0.6-0.2-0.8-0.4L7.4,5.3C6.9,4.5,5.9,4,4.9,4H2v2h2.9c0.3,0,0.6,0.2,0.8,0.4l2.8,4.2
	c0.6,0.8,1.5,1.3,2.5,1.3H12v1.5l2.5-2.5L12,8.5V10z M10.2,6.4C10.4,6.2,10.7,6,11.1,6H12v1.5L14.5,5L12,2.5V4h-0.9
	c-1,0-1.9,0.5-2.5,1.3l1.2,1.8L10.2,6.4z M5.8,9.6C5.6,9.8,5.3,10,4.9,10H2v2h2.9c1,0,1.9-0.5,2.5-1.3L6.2,8.9L5.8,9.6z"/>
</svg>
