<?xml version="1.0" encoding="utf-8"?>
<!-- Generator: Adobe Illustrator 19.2.1, SVG Export Plug-In . SVG Version: 6.00 Build 0)  -->
<svg version="1.1" id="Layer_3" xmlns="http://www.w3.org/2000/svg" xmlns:xlink="http://www.w3.org/1999/xlink" x="0px" y="0px"
	 viewBox="0 0 16 16" enable-background="new 0 0 16 16" xml:space="preserve">
<path d="M8,5l0.7,1.5L9,7.3l0.9,0.1l1.6,0.2l-1.2,1.1L9.6,9.2l0.2,0.8l0.3,1.6l-1.4-0.8L8,10.4l-0.7,0.4l-1.4,0.8l0.3-1.6l0.2-0.8
	L5.7,8.7L4.5,7.6l1.6-0.2L7,7.3l0.4-0.8L8,5 M8,1.3L6,5.9L1,6.4l3.7,3.3l-1,4.9L8,12.2l4.3,2.5l-1-4.9L15,6.4l-5-0.5L8,1.3L8,1.3z"
	/>
</svg>
