<?xml version="1.0" encoding="utf-8"?>
<!-- Generator: Adobe Illustrator 16.0.4, SVG Export Plug-In . SVG Version: 6.00 Build 0)  -->
<!DOCTYPE svg PUBLIC "-//W3C//DTD SVG 1.1//EN" "http://www.w3.org/Graphics/SVG/1.1/DTD/svg11.dtd">
<svg version="1.1" id="Layer_3" xmlns="http://www.w3.org/2000/svg" xmlns:xlink="http://www.w3.org/1999/xlink" x="0px" y="0px"
	 width="16px" height="16px" viewBox="0 0 16 16" style="enable-background:new 0 0 16 16;" xml:space="preserve">
<path style="fill:#231F20;" d="M12,5V4H0v1l6,3L12,5z M0,6.5V12h8V8.5l-2,1L0,6.5z M15,7h-5C9.447,7,9,7.448,9,8v5
	c0,0.553,0.447,1,1,1h5c0.553,0,1-0.447,1-1V8C16,7.448,15.553,7,15,7z M15,11h-2v2h-1v-2h-2v-1h2V8h1v2h2V11z"/>
</svg>
