<?xml version="1.0" encoding="utf-8"?>
<!-- Generator: Adobe Illustrator 16.0.4, SVG Export Plug-In . SVG Version: 6.00 Build 0)  -->
<!DOCTYPE svg PUBLIC "-//W3C//DTD SVG 1.1//EN" "http://www.w3.org/Graphics/SVG/1.1/DTD/svg11.dtd">
<svg version="1.1" id="Layer_8" xmlns="http://www.w3.org/2000/svg" xmlns:xlink="http://www.w3.org/1999/xlink" x="0px" y="0px"
	 width="16px" height="16px" viewBox="0 0 16 16" style="enable-background:new 0 0 16 16;" xml:space="preserve">
<g>
	<polygon style="fill:#231F20;" points="12,5 12,4 0,4 0,5 6,8 	"/>
	<polygon style="fill:#231F20;" points="0,6.5 0,12 8,12 8,8.5 6,9.5 	"/>
	<path style="fill:#231F20;" d="M15,7h-5C9.447,7,9,7.448,9,8v5c0,0.553,0.447,1,1,1h5c0.553,0,1-0.447,1-1V8
		C16,7.448,15.553,7,15,7z M11.965,13l-2.121-2.121l0.707-0.707l1.414,1.414l2.828-2.828L15.5,9.465L11.965,13z"/>
</g>
</svg>
