<?xml version="1.0" encoding="utf-8"?>
<!-- Generator: Adobe Illustrator 19.2.1, SVG Export Plug-In . SVG Version: 6.00 Build 0)  -->
<svg version="1.1" id="Layer_1" xmlns="http://www.w3.org/2000/svg" xmlns:xlink="http://www.w3.org/1999/xlink" x="0px" y="0px"
	 viewBox="0 0 16 16" style="enable-background:new 0 0 16 16;" xml:space="preserve">
<path d="M12,3h-2c0-1.1-0.9-2-2-2S6,1.9,6,3H4C3.4,3,3,3.4,3,4v8c0,0.5,0.4,1,1,1h8c0.5,0,1-0.4,1-1V4C13,3.4,12.6,3,12,3z M8,2.2
	c0.4,0,0.8,0.3,0.8,0.8S8.4,3.8,8,3.8S7.2,3.4,7.2,3S7.6,2.2,8,2.2z M9,10H5V9h4V10z M11,8H5V7h6V8z M11,6H5V5h6V6z"/>
</svg>
