<?xml version="1.0" encoding="utf-8"?>
<!-- Generator: Adobe Illustrator 19.2.1, SVG Export Plug-In . SVG Version: 6.00 Build 0)  -->
<svg version="1.1" id="Layer_1" xmlns="http://www.w3.org/2000/svg" xmlns:xlink="http://www.w3.org/1999/xlink" x="0px" y="0px"
	 viewBox="0 0 16 16" style="enable-background:new 0 0 16 16;" xml:space="preserve">
<path d="M12,3h-1.5L10,2H6L5.5,3H4C3.5,3,3,3.5,3,4v8c0,0.5,0.5,1,1,1h8c0.5,0,1-0.5,1-1V4C13,3.5,12.5,3,12,3z M11,11H5V5h6V11z
	 M10,8H7.5v1H10V8z M10,6H7.5v1H10V6z M6.5,7C6.8,7,7,6.8,7,6.5S6.8,6,6.5,6S6,6.2,6,6.5S6.2,7,6.5,7z M6.5,9C6.8,9,7,8.8,7,8.5
	S6.8,8,6.5,8S6,8.2,6,8.5S6.2,9,6.5,9z"/>
</svg>
