<?xml version="1.0" encoding="utf-8"?>
<!-- Generator: Adobe Illustrator 19.2.1, SVG Export Plug-In . SVG Version: 6.00 Build 0)  -->
<svg version="1.1" id="Group_1_copy_1_" xmlns="http://www.w3.org/2000/svg" xmlns:xlink="http://www.w3.org/1999/xlink" x="0px"
	 y="0px" viewBox="0 0 16 16" enable-background="new 0 0 16 16" xml:space="preserve">
<path d="M5.9,13h4.3c0.5,0,0.9-0.4,1-0.9L12,5.5H4l0.9,6.6C5,12.6,5.4,13,5.9,13z M11,3c0-0.6-0.4-1-1-1H6C5.4,2,5,2.4,5,3L3,4v1h1
	h1h1h1h2h1h1h1h1V4L11,3z M9.5,4h-3C6.2,4,6,3.8,6,3.5S6.2,3,6.5,3h3C9.8,3,10,3.2,10,3.5S9.8,4,9.5,4z"/>
</svg>
