<?xml version="1.0" encoding="utf-8"?>
<!-- Generator: Adobe Illustrator 16.0.4, SVG Export Plug-In . SVG Version: 6.00 Build 0)  -->
<!DOCTYPE svg PUBLIC "-//W3C//DTD SVG 1.1//EN" "http://www.w3.org/Graphics/SVG/1.1/DTD/svg11.dtd">
<svg version="1.1" xmlns="http://www.w3.org/2000/svg" xmlns:xlink="http://www.w3.org/1999/xlink" x="0px" y="0px" width="16px"
	 height="16px" viewBox="0 0 16 16" style="enable-background:new 0 0 16 16;" xml:space="preserve">
<g id="Rectangle_1_1_" style="enable-background:new    ;">
</g>
<g id="Ellipse_1_1_" style="enable-background:new    ;">
	<path style="fill:#0074A2;" d="M8,2C4.687,2,2,4.687,2,8s2.687,6,6,6s6-2.687,6-6S11.313,2,8,2z M12,8
		c0,0.74-0.215,1.426-0.565,2.021L5.979,4.566C6.574,4.215,7.259,4,8,4C10.209,4,12,5.791,12,8z M4,8c0-0.74,0.215-1.425,0.565-2.02
		l5.455,5.455C9.425,11.785,8.74,12,8,12C5.791,12,4,10.209,4,8z"/>
</g>
</svg>
