<?xml version="1.0" encoding="utf-8"?>
<!-- Generator: Adobe Illustrator 19.2.1, SVG Export Plug-In . SVG Version: 6.00 Build 0)  -->
<svg version="1.1" id="Layer_1" xmlns="http://www.w3.org/2000/svg" xmlns:xlink="http://www.w3.org/1999/xlink" x="0px" y="0px"
	 viewBox="0 0 16 16" enable-background="new 0 0 16 16" xml:space="preserve">
<g id="Rectangle_1_1_" enable-background="new    ">
</g>
<g id="Ellipse_1_1_" enable-background="new    ">
	<path d="M8,2C4.7,2,2,4.7,2,8s2.7,6,6,6s6-2.7,6-6S11.3,2,8,2z M12,8c0,0.7-0.2,1.4-0.6,2L6,4.6C6.6,4.2,7.3,4,8,4
		C10.2,4,12,5.8,12,8z M4,8c0-0.7,0.2-1.4,0.6-2l5.5,5.5C9.4,11.8,8.7,12,8,12C5.8,12,4,10.2,4,8z"/>
</g>
</svg>
