<?xml version="1.0" encoding="utf-8"?>
<!-- Generator: Adobe Illustrator 19.2.1, SVG Export Plug-In . SVG Version: 6.00 Build 0)  -->
<svg version="1.1" id="Layer_3" xmlns="http://www.w3.org/2000/svg" xmlns:xlink="http://www.w3.org/1999/xlink" x="0px" y="0px"
	 viewBox="0 0 16 16" enable-background="new 0 0 16 16" xml:space="preserve">
<path d="M15,9h-5c-0.6,0-1,0.4-1,1v5c0,0.6,0.4,1,1,1h5c0.6,0,1-0.4,1-1v-5C16,9.4,15.6,9,15,9z M15,13h-5v-1h5V13z M12,8V5
	c0-1.1-0.9-2-2-2H2C0.9,3,0,3.9,0,5v5c0,1.1,0.9,2,2,2h6v-2c0-1.2,0.8-2,2-2H12z M6,9.1L1,6.2V5l5,2.9L11,5v1.2L6,9.1z"/>
</svg>
