<?xml version="1.0" encoding="utf-8"?>
<!-- Generator: Adobe Illustrator 19.2.1, SVG Export Plug-In . SVG Version: 6.00 Build 0)  -->
<svg version="1.1" id="Shape_1_1_" xmlns="http://www.w3.org/2000/svg" xmlns:xlink="http://www.w3.org/1999/xlink" x="0px" y="0px"
	 viewBox="0 0 16 16" style="enable-background:new 0 0 16 16;" xml:space="preserve">
<path d="M12,4v1h-1V4H5v1H4V4H2v9h2v-1h1v1h6v-1h1v1h2V4H12z M5,11H4v-1h1V11z M5,9H4V8h1V9z M5,7H4V6h1V7z M12,11h-1v-1h1V11z
	 M12,9h-1V8h1V9z M12,7h-1V6h1V7z"/>
</svg>
