<?xml version="1.0" encoding="utf-8"?>
<!-- Generator: Adobe Illustrator 19.2.1, SVG Export Plug-In . SVG Version: 6.00 Build 0)  -->
<svg version="1.1" id="flat" xmlns="http://www.w3.org/2000/svg" xmlns:xlink="http://www.w3.org/1999/xlink" x="0px" y="0px"
	 viewBox="0 0 16 16" style="enable-background:new 0 0 16 16;" xml:space="preserve">
<path d="M8,2C4.7,2,2,4.7,2,8s2.7,6,6,6s6-2.7,6-6S11.3,2,8,2z M11.9,5.8h-1.5c-0.1-0.7-0.2-1.3-0.4-1.8C10.7,4.3,11.4,5,11.9,5.8z
	 M12.5,8c0,0.3,0,0.5-0.1,0.8h-1.9c0-0.2,0-0.5,0-0.8s0-0.5,0-0.8h1.9C12.5,7.5,12.5,7.7,12.5,8z M8,12.5c-0.2-0.2-0.6-0.9-0.8-2.2
	h1.6C8.6,11.5,8.2,12.3,8,12.5z M7,8.8C7,8.5,7,8.3,7,8s0-0.5,0-0.8h2C9,7.5,9,7.7,9,8s0,0.5,0,0.8H7z M3.5,8c0-0.3,0-0.5,0.1-0.8
	h1.9c0,0.2,0,0.5,0,0.8s0,0.5,0,0.8H3.6C3.5,8.5,3.5,8.3,3.5,8z M8,3.5c0.2,0.1,0.6,0.9,0.8,2.2H7.2C7.4,4.4,7.8,3.6,8,3.5z
	 M6.1,3.9C5.9,4.5,5.8,5.1,5.7,5.8H4.1C4.6,5,5.3,4.3,6.1,3.9z M4.1,10.2h1.5c0.1,0.7,0.2,1.3,0.4,1.8C5.3,11.7,4.6,11,4.1,10.2z
	 M9.9,12.1c0.2-0.5,0.3-1.1,0.4-1.8h1.5C11.4,11,10.7,11.7,9.9,12.1z"/>
</svg>
