<?xml version="1.0" encoding="utf-8"?>
<!-- Generator: Adobe Illustrator 16.0.4, SVG Export Plug-In . SVG Version: 6.00 Build 0)  -->
<!DOCTYPE svg PUBLIC "-//W3C//DTD SVG 1.1//EN" "http://www.w3.org/Graphics/SVG/1.1/DTD/svg11.dtd">
<svg version="1.1" id="flat" xmlns="http://www.w3.org/2000/svg" xmlns:xlink="http://www.w3.org/1999/xlink" x="0px" y="0px"
	 width="16px" height="16px" viewBox="0 0 16 16" style="enable-background:new 0 0 16 16;" xml:space="preserve">
<path style="fill:#231F20;" d="M8,2C4.687,2,2,4.687,2,8s2.687,6,6,6s6-2.687,6-6S11.313,2,8,2z M3.72,5.527l0.283,0.081
	L3.767,5.629L3.63,5.678L3.595,5.686c0.034-0.064,0.067-0.128,0.103-0.19L3.72,5.527z M8,13c-0.155,0-0.301-0.032-0.453-0.046
	l0.26-0.207l0.015-0.129l-0.134-0.183l0.282,0.04l0.312-0.71l0.392-0.241l0.216-0.532l0.178-0.511l-0.01-0.448L8.813,9.879
	L8.438,9.848l-0.37-0.079l0.065-0.13L7.872,9.713l0.064-0.381L7.871,9.289L7.598,9.138L7.219,8.875L6.69,8.706L6.536,8.652
	L6.422,8.841l0.019-0.209L6.133,8.77L5.665,8.878L5.56,8.927L5.716,9l0.117-0.085l0.065,0.037L5.839,9.434l-0.11,0.414l-0.06,0.129
	l0.083,0.218L6,10.635l0.526,0.514l0.087,0.491l0.075,1.075l0.032,0.099C4.585,12.244,3,10.312,3,8c0-0.498,0.095-0.969,0.231-1.423
	L3.44,6.939l0.002,0.281l0.04,0.179L3.56,7.496l0.039,0.13l0.064,0.08l0.005-0.134L3.61,7.056l0.041,0.127l0.173,0.369L4.214,8.17
	l0.34,0.142l0.307,0.074l0.316-0.204l0.116-0.34l-0.447,0.24L4.614,7.829l0.051-0.34l0.385-0.31l0.3,0.002L5.711,7.18l0.185,0.371
	L5.959,7.35l0.202-0.464l0.256-0.209l0.076-0.183l0.2-0.158l0.273-0.151l0.111-0.129L7.321,5.94l0.203-0.044L7.398,6.043
	l0.359-0.146L7.669,5.841L7.563,5.721l0.041-0.134L7.27,5.679l0.428-0.168l0.584-0.149l-0.16-0.157L8.042,4.774L7.816,4.854
	L7.745,4.71L7.487,4.579L7.229,4.756L7.077,5.052L6.814,5.321L6.6,5.102l-0.3-0.141L6.193,4.844l0.431-0.33l0.282-0.163l0.584-0.193
	L7.118,4.192L7.032,4.014l-0.22-0.023L6.768,4.132L6.534,4.189L6.162,4.142L5.89,4.203L5.64,4.139L5.267,4.043L4.968,4.052
	C5.812,3.402,6.855,3,8,3c0.563,0,1.096,0.114,1.602,0.287L9.369,3.3l-0.54,0.132l-0.251,0.06l0.173,0.134L9.11,3.778l0.097,0.17
	L9.075,4.203l0.049,0.466l0.468-0.226l0.604-0.268l0.468-0.081l0.062-0.07L10.56,4.004l0.036-0.073l0.257,0.041l-0.159-0.139
	l0.034-0.014c0.602,0.394,1.106,0.914,1.49,1.521l-0.113,0.091l-0.316,0.172l-0.161,0.065l0.188,0.208l-0.067,0.171l-0.363-0.021
	l-0.104,0.197L11.261,6.54l0.184,0.072l0.396-0.091l0.203-0.274l0.186-0.166l0.226-0.021l0.105-0.052l0.043,0.04
	c0.12,0.284,0.212,0.583,0.278,0.891l-0.189-0.082L12.49,6.569l-0.519,0.056l-0.216,0.075l-0.295-0.003L11.172,6.97l-0.102,0.2
	l-0.146,0.162L10.82,7.434l-0.178,0.274L10.604,7.85L10.56,7.909l-0.007,0.424l0.006,0.254l0.305,0.418l0.312,0.227l0.412-0.024
	l0.436-0.165l0.184,0.155l0.198,0.059l0.271,0.197l-0.117,0.397l0.051,0.082C11.852,11.733,10.071,13,8,13z"/>
</svg>
