<?xml version="1.0" encoding="utf-8"?>
<!-- Generator: Adobe Illustrator 16.0.4, SVG Export Plug-In . SVG Version: 6.00 Build 0)  -->
<!DOCTYPE svg PUBLIC "-//W3C//DTD SVG 1.1//EN" "http://www.w3.org/Graphics/SVG/1.1/DTD/svg11.dtd">
<svg version="1.1" id="Layer_1" xmlns="http://www.w3.org/2000/svg" xmlns:xlink="http://www.w3.org/1999/xlink" x="0px" y="0px"
	 width="16px" height="16px" viewBox="0 0 16 16" style="enable-background:new 0 0 16 16;" xml:space="preserve">
<path style="fill:#6F48FF;" d="M8.999,6.473c0-0.003,0-0.007,0-0.01c0-0.005-0.001-0.01-0.001-0.016v0
	C8.972,6.21,8.783,6.023,8.546,6.002H8.544C8.537,6.001,8.53,6.001,8.522,6h-0.01C8.508,6,8.504,6,8.5,6h-2C6.224,6,6,6.224,6,6.5
	S6.224,7,6.5,7h1.36l-0.845,3.379c-0.067,0.268,0.096,0.539,0.364,0.606c0.268,0.066,0.539-0.097,0.606-0.364l1-4
	C8.995,6.581,9,6.54,9,6.5V6.498c0-0.005,0-0.009,0-0.014C9,6.48,9,6.477,8.999,6.473z M11,3V2h-1v1H5V2H4v1H2v10h11V3H11z M12,11
	c0,0.553-0.447,1-1,1H4c-0.552,0-1-0.447-1-1V6c0-0.553,0.448-1,1-1h7c0.553,0,1,0.447,1,1V11z"/>
</svg>
