<?xml version="1.0" encoding="utf-8"?>
<!-- Generator: Adobe Illustrator 19.2.1, SVG Export Plug-In . SVG Version: 6.00 Build 0)  -->
<svg version="1.1" id="Layer_3" xmlns="http://www.w3.org/2000/svg" xmlns:xlink="http://www.w3.org/1999/xlink" x="0px" y="0px"
	 viewBox="0 0 16 16" enable-background="new 0 0 16 16" xml:space="preserve">
<path d="M13,4c0-1.1-0.9-2-2-2S9,2.9,9,4c0,0.7,0.4,1.4,1,1.7V7c0,1.1-0.9,2-2,2C7.3,9,6.6,9.2,6,9.6V5.7c0.6-0.3,1-1,1-1.7
	c0-1.1-0.9-2-2-2S3,2.9,3,4c0,0.7,0.4,1.4,1,1.7V14h2v-1c0-1.1,0.9-2,2-2c2.2,0,4-1.8,4-4V5.7C12.6,5.4,13,4.7,13,4z M5,3.2
	c0.4,0,0.8,0.3,0.8,0.8S5.4,4.8,5,4.8S4.2,4.4,4.2,4S4.6,3.2,5,3.2z M11,4.8c-0.4,0-0.8-0.3-0.8-0.8s0.3-0.8,0.8-0.8
	s0.8,0.3,0.8,0.8S11.4,4.8,11,4.8z"/>
</svg>
