<?xml version="1.0" encoding="utf-8"?>
<!-- Generator: Adobe Illustrator 19.2.1, SVG Export Plug-In . SVG Version: 6.00 Build 0)  -->
<svg version="1.1" id="Layer_1" xmlns="http://www.w3.org/2000/svg" xmlns:xlink="http://www.w3.org/1999/xlink" x="0px" y="0px"
	 viewBox="0 0 16 16" enable-background="new 0 0 16 16" xml:space="preserve">
<path d="M7,4H6v2H4v1h2v2h1V7h2V6H7V4z M11,9.6c0.6-0.9,1-2,1-3.1C12,3.5,9.5,1,6.5,1S1,3.5,1,6.5S3.5,12,6.5,12
	c1.2,0,2.2-0.4,3.1-1l3.7,3.7l1.4-1.4L11,9.6z M6.5,10.5c-2.2,0-4-1.8-4-4s1.8-4,4-4s4,1.8,4,4S8.7,10.5,6.5,10.5z"/>
</svg>
