<?xml version="1.0" encoding="utf-8"?>
<!-- Generator: Adobe Illustrator 16.0.4, SVG Export Plug-In . SVG Version: 6.00 Build 0)  -->
<!DOCTYPE svg PUBLIC "-//W3C//DTD SVG 1.1//EN" "http://www.w3.org/Graphics/SVG/1.1/DTD/svg11.dtd">
<svg version="1.1" id="Layer_1" xmlns="http://www.w3.org/2000/svg" xmlns:xlink="http://www.w3.org/1999/xlink" x="0px" y="0px"
	 width="16px" height="16px" viewBox="0 0 16 16" style="enable-background:new 0 0 16 16;" xml:space="preserve">
<path style="fill:#7D145E;" d="M7,4H6v2H4v1h2v2h1V7h2V6H7V4z M10.134,9.134C10.673,8.393,11,7.487,11,6.5C11,4.015,8.985,2,6.5,2
	S2,4.015,2,6.5S4.015,11,6.5,11c0.987,0,1.893-0.327,2.634-0.866L13,14l1-1L10.134,9.134z M6.5,10C4.567,10,3,8.433,3,6.5
	S4.567,3,6.5,3C8.434,3,10,4.567,10,6.5S8.434,10,6.5,10z"/>
</svg>
