<svg viewBox="0 0 16 16" xmlns="http://www.w3.org/2000/svg"><symbol viewBox="0 0 16 16" id="activity"><title>activity</title> <polygon points="11,14.4 8.5,7.7 6.1,13.4 3.9,9 2.8,10.6 1.2,9.4 4.1,5 5.9,8.6 8.5,2.3 11,8.6 13.1,2.7 14.9,3.3 
	"/> </symbol><symbol viewBox="0 0 16 16" id="anchor"><title>anchor</title> <path d="M12,8v2v0.5c0,0.8-0.7,1.5-1.5,1.5S9,11.3,9,10.5V5.8c0.7-0.3,1.1-1,1.1-1.8c0-1.1-0.9-2-2-2c-1.1,0-2,0.9-2,2
	c0,0.7,0.4,1.3,0.9,1.7v4.8C7,11.3,6.3,12,5.5,12S4,11.3,4,10.5V10V8c-1.1,0-2,0.9-2,2v0.5C2,12.4,3.6,14,5.5,14
	c1,0,1.9-0.4,2.5-1.1c0.6,0.6,1.5,1.1,2.5,1.1c1.9,0,3.5-1.6,3.5-3.5V10C14,8.9,13.1,8,12,8z"/> </symbol><symbol viewBox="0 0 16 16" id="aside"><title>aside</title> <path d="M12,2H4C2.9,2,2,2.9,2,4v8c0,1.1,0.9,2,2,2h6l4-4V4C14,2.9,13.1,2,12,2z M9,7H4V6h5V7z M4,5V4h8v1H4z
	 M10,12.5V10h2.5L10,12.5z"/> </symbol><symbol viewBox="0 0 16 16" id="attachment"><title>attachment</title> <path d="M9.5,1C8.1,1,7,2.2,7,3.5v7C7,11.3,7.7,12,8.5,12c0.8,0,1.5-0.7,1.5-1.5V5H9v5.5C9,10.8,8.8,11,8.5,11S8,10.8,8,10.5v-7
	C8,2.7,8.7,2,9.5,2C10.3,2,11,2.7,11,3.5v8c0,1.4-1.1,2.5-2.5,2.5C7.1,14,6,12.9,6,11.5V5H5v6.5C5,13.4,6.6,15,8.5,15
	s3.5-1.6,3.5-3.5v-8C12,2.2,10.9,1,9.5,1z"/> </symbol><symbol viewBox="0 0 16 16" id="audio"><title>audio</title> <path d="M4,5C2.9,5,2,5.9,2,7v2c0,1.1,0.9,2,2,2h1l4,4V1L5,5H4z M11.5,4.5l-0.7,0.7C11.6,5.9,12,6.9,12,8c0,1.1-0.5,2.1-1.2,2.8
	l0.7,0.7C12.4,10.6,13,9.4,13,8C13,6.6,12.4,5.4,11.5,4.5z M13,3l-0.7,0.7C13.3,4.8,14,6.3,14,8c0,1.7-0.7,3.2-1.8,4.2l0.7,0.7
	c1.3-1.3,2.1-3,2.1-5C15,6,14.2,4.3,13,3z"/> </symbol><symbol viewBox="0 0 16 16" id="bold"><title>bold</title> <path d="M12,5c0-1.7-1.4-3-3-3H4v5v2v5h5c1.6,0,3-1.3,3-3v-1c0-0.8-0.3-1.5-0.8-2C11.7,7.5,12,6.8,12,6V5z M6,4h3c0.5,0,1,0.5,1,1v1
	c0,0.5-0.5,1-1,1H6V4z M10,11c0,0.5-0.5,1-1,1H6V9h3h0c0.5,0,1,0.5,1,1V11z"/> </symbol><symbol viewBox="0 0 16 16" id="book"><title>book</title> <path d="M12,1h-1v8l-1-1L9,9V1H3v14h9c0.6,0,1-0.4,1-1V2C13,1.4,12.6,1,12,1z"/> </symbol><symbol viewBox="0 0 16 16" id="bug"><title>bug</title> <path d="M14,7V5h-2.1c-0.1-0.4-0.2-0.7-0.4-1l1.3-1.3l-1.4-1.4L10,2.6C9.4,2.2,8.7,2,8,2S6.6,2.2,6,2.6L4.7,1.3
	L3.3,2.7L4.6,4C4.4,4.3,4.2,4.6,4.1,5H2v2h2v2H2v2h2.1c0.4,1.6,1.7,2.7,3.4,3V7h1v7c1.6-0.2,2.9-1.4,3.4-3H14V9h-2V7H14z"/> </symbol><symbol viewBox="0 0 16 16" id="cart"><title>cart</title> <path d="M11,12c-0.6,0-1,0.4-1,1s0.4,1,1,1s1-0.4,1-1S11.6,12,11,12z M5,12c-0.6,0-1,0.4-1,1s0.4,1,1,1s1-0.4,1-1
	S5.6,12,5,12z M11,10H5V9h5.6c0.8,0,1.5-0.5,1.9-1.3L14,4H5V3c0-0.6-0.4-1-1-1H2v1h2v7c0,0.6,0.4,1,1,1h6h1C12,10.4,11.6,10,11,10z"/> </symbol><symbol viewBox="0 0 16 16" id="category"><title>category</title> <path d="M13,5H8L7.3,3.6C7.1,3.2,6.8,3,6.4,3H3C2.5,3,2,3.5,2,4v2v6c0,0.6,0.5,1,1,1h10c0.6,0,1-0.4,1-1V6C14,5.4,13.6,5,13,5z"/> </symbol><symbol viewBox="0 0 16 16" id="chat"><title>chat</title> <path d="M14,4.3V8c0,1.7-1.3,3-3,3H4.8c-0.3,0-0.5,0.1-0.7,0.3l-0.3,0.3C4.1,11.8,4.6,12,5,12h6.2
	c0.5,0,1,0.2,1.4,0.6L15,15V6C15,5.3,14.6,4.6,14,4.3z M11,10c1.1,0,2-0.9,2-2V4c0-1.1-0.9-2-2-2H3C1.9,2,1,2.9,1,4v9l2.4-2.4
	C3.8,10.2,4.3,10,4.8,10H11z"/> </symbol><symbol viewBox="0 0 16 16" id="checkmark"><title>checkmark</title> <polygon points="13.3,3.3 6.5,10.1 3.7,7.3 2.3,8.7 6.5,12.9 14.7,4.7 "/> </symbol><symbol viewBox="0 0 16 16" id="close-alt"><title>close-alt</title> <polygon points="14.7,2.7 13.3,1.3 8,6.6 2.7,1.3 1.3,2.7 6.6,8 1.3,13.3 2.7,14.7 8,9.4 13.3,14.7 14.7,13.3 9.4,8 
	"/> </symbol><symbol viewBox="0 0 16 16" id="close"><title>close</title> <polygon points="12.7,4.7 11.3,3.3 8,6.6 4.7,3.3 3.3,4.7 6.6,8 3.3,11.3 4.7,12.7 8,9.4 11.3,12.7 12.7,11.3 9.4,8 
	"/> </symbol><symbol viewBox="0 0 16 16" id="cloud-download"><title>cloud-download</title> <path d="M9,11H7v2H5l3,3l3-3H9V11z M13,8h-0.184C12.928,7.686,13,7.353,13,7c0-1.657-1.344-3-3-3
	C8.792,4,7.756,4.719,7.281,5.749C6.828,5.287,6.198,5,5.5,5C4.119,5,3,6.119,3,7.5C3,7.671,3.018,7.838,3.05,8H3
	c-1.104,0-2,0.896-2,2s0.896,2,2,2h3v-2h4v2h3c1.104,0,2-0.896,2-2S14.104,8,13,8z"/> </symbol><symbol viewBox="0 0 16 16" id="cloud-upload"><title>cloud-upload</title> <path d="M13,8h-0.184C12.928,7.686,13,7.353,13,7c0-1.657-1.344-3-3-3C8.792,4,7.756,4.719,7.281,5.749
	C6.828,5.287,6.198,5,5.5,5C4.119,5,3,6.119,3,7.5C3,7.671,3.018,7.838,3.05,8H3c-1.104,0-2,0.896-2,2s0.896,2,2,2h4v-2H5l3-3l3,3H9
	v2h4c1.104,0,2-0.896,2-2S14.104,8,13,8z"/> </symbol><symbol viewBox="0 0 16 16" id="cloud"><title>cloud</title> <path d="M13,8h-0.184C12.928,7.686,13,7.353,13,7c0-1.657-1.344-3-3-3C8.792,4,7.756,4.719,7.281,5.749
	C6.828,5.288,6.198,5,5.5,5C4.119,5,3,6.119,3,7.5C3,7.672,3.017,7.837,3.051,8H3c-1.104,0-2,0.896-2,2s0.896,2,2,2h10
	c1.104,0,2-0.896,2-2S14.104,8,13,8z"/> </symbol><symbol viewBox="0 0 16 16" id="code"><title>code</title> <polygon points="5.3,12.7 0.6,8 5.3,3.3 6.7,4.7 3.4,8 6.7,11.3 "/> <polygon points="10.7,12.7 9.3,11.3 12.6,8 9.3,4.7 10.7,3.3 15.4,8 "/> </symbol><symbol viewBox="0 0 16 16" id="cog"><title>cog</title> <path d="M13,8c0-0.4-0.1-0.8-0.1-1.1l1.8-1.3l-1.2-2.2l-2,0.9C11,3.8,10.3,3.4,9.6,3.2L9.2,1H6.8L6.5,3.2
	C5.8,3.5,5.2,3.8,4.6,4.3l-2-0.9L1.3,5.6l1.8,1.3C3.1,7.2,3,7.6,3,8c0,0.4,0.1,0.8,0.1,1.1l-1.8,1.3l1.2,2.2l2-0.9
	c0.5,0.5,1.2,0.9,1.9,1.1L6.8,15h2.5l0.2-2.2c0.7-0.2,1.4-0.6,1.9-1.1l2,0.9l1.2-2.2l-1.8-1.3C12.9,8.8,13,8.4,13,8z M8,10.5
	c-1.4,0-2.5-1.1-2.5-2.5S6.6,5.5,8,5.5s2.5,1.1,2.5,2.5S9.4,10.5,8,10.5z"/> </symbol><symbol viewBox="0 0 16 16" id="collapse"><title>collapse</title> <polygon points="11,11 7.5,7.5 4,11 3,10 7.5,5.5 12,10 "/> </symbol><symbol viewBox="0 0 16 16" id="comment"><title>comment</title> <style type="text/css"> .st0{display:none;} .st1{display:inline;} .st2{fill:#231F20;} </style> <g class="st0">  </g> <g> <path class="st2" d="M13,3H3C1.9,3,1,3.9,1,5v10l2.4-2.4C3.8,12.2,4.3,12,4.8,12H13c1.1,0,2-0.9,2-2V5C15,3.9,14.1,3,13,3z"/> </g> </symbol><symbol viewBox="0 0 16 16" id="day"><title>day</title> <path d="M11,3V2h-1v1H5V2H4v1H2v10h11V3H11z M12,11c0,0.553-0.447,1-1,1H4c-0.552,0-1-0.447-1-1V6
	c0-0.553,0.448-1,1-1h7c0.553,0,1,0.447,1,1V11z M7.5,6h-1C6.224,6,6,6.224,6,6.5S6.224,7,6.5,7H7v3.5C7,10.776,7.224,11,7.5,11
	S8,10.776,8,10.5v-4C8,6.224,7.776,6,7.5,6z"/> </symbol><symbol viewBox="0 0 16 16" id="document"><title>document</title> <path d="M9,1H4C3.5,1,3,1.5,3,2v12c0,0.5,0.5,1,1,1h8c0.5,0,1-0.5,1-1V5L9,1z M9,5V2.5L11.5,5H9z"/> </symbol><symbol viewBox="0 0 16 16" id="download"><title>download</title> <path d="M11,7H9V3H7v4H5l3,3L11,7z M3,11v2h10v-2H3z"/> </symbol><symbol viewBox="0 0 16 16" id="edit"><title>edit</title> <path d="M10,2.5l-7,7V13h3.5l7-7L10,2.5z M10,4l0.75,0.75L6.104,9.396l-0.75-0.75L10,4z M6,12l-2-2l1-1l0.75,0.75h0
	l0.5,0.5h0L7,11L6,12z M6.604,9.896L11.25,5.25L12,6l-4.646,4.646L6.604,9.896z"/> </symbol><symbol viewBox="0 0 16 16" id="ellipsis"><title>ellipsis</title> <path d="M3,6.25C2.033,6.25,1.25,7.033,1.25,8c0,0.966,0.783,1.75,1.75,1.75S4.75,8.966,4.75,8
	C4.75,7.033,3.967,6.25,3,6.25z M8,6.25C7.033,6.25,6.25,7.033,6.25,8c0,0.966,0.783,1.75,1.75,1.75c0.966,0,1.75-0.784,1.75-1.75
	C9.75,7.033,8.966,6.25,8,6.25z M13,6.25c-0.966,0-1.75,0.783-1.75,1.75c0,0.966,0.784,1.75,1.75,1.75S14.75,8.966,14.75,8
	C14.75,7.033,13.966,6.25,13,6.25z"/> </symbol><symbol viewBox="0 0 16 16" id="expand"><title>expand</title> <polygon points="11,6 7.5,9.5 4,6 3,7 7.5,11.5 12,7 "/> </symbol><symbol viewBox="0 0 16 16" id="external"><title>external</title> <path d="M10,11H5V6h2l1-1H4v7h7V8l-1,1V11z M8,3v1h3.293L7,8.293L7.707,9L12,4.707V8h1V3H8z"/> </symbol><symbol viewBox="0 0 16 16" id="fastforward"><title>fastforward</title> <polygon points="15,8 7,3 7,6.75 1,3 1,13 7,9.25 7,13 "/> </symbol><symbol viewBox="0 0 16 16" id="feed"><title>feed</title>  <g> <path d="M2,6v2c3.309,0,6,2.691,6,6h2C10,9.582,6.418,6,2,6z M2,2v2c5.514,0,10,4.486,10,10h2
		C14,7.373,8.627,2,2,2z M3.5,11C2.671,11,2,11.672,2,12.5S2.671,14,3.5,14S5,13.328,5,12.5S4.329,11,3.5,11z"/> </g> </symbol><symbol viewBox="0 0 16 16" id="flag"><title>flag</title> <path d="M2,14h2V2H2V14z M12,3c-2,0-2-1-4-1S6,3,5,3v6c1,0,1-1,3-1s2,1,4,1h2V3H12z"/> </symbol><symbol viewBox="0 0 16 16" id="fullscreen"><title>fullscreen</title> <polygon points="1,5 1,2 4,2 "/> <rect x="5" y="6" width="6" height="4"/> <polygon points="12,2 15,2 15,5 "/> <polygon points="1,11 1,14 4,14 "/> <polygon points="12,14 15,14 15,11 "/> <polygon points="12,5 14,2 15,3 "/> <polygon points="12,11 15,13 14,14 "/> <polygon points="1,13 4,11 2,14 "/> <polygon points="1,3 2,2 4,5 "/> </symbol><symbol viewBox="0 0 16 16" id="gallery"><title>gallery</title> <path d="M9,5v7h7V5H9z M1,8h7V5H1V8z M5,12h3V9H5V12z M1,12h3V9H1V12z"/> </symbol><symbol viewBox="0 0 16 16" id="heart"><title>heart</title> <path d="M8,13L2.941,8.211C1.774,7.107,1.68,5.217,2.729,3.99c1.05-1.228,2.847-1.327,4.014-0.223L8,4.957
	l1.256-1.19c1.166-1.103,2.964-1.005,4.014,0.223c1.052,1.227,0.956,3.117-0.211,4.222L8,13z"/> </symbol><symbol viewBox="0 0 16 16" id="help"><title>help</title> <path d="M8,2C4.686,2,2,4.687,2,8c0,3.313,2.686,6,6,6c3.313,0,6-2.687,6-6C14,4.687,11.313,2,8,2z M8,12
	c-0.553,0-1-0.449-1-1s0.447-1,1-1c0.552,0,1,0.449,1,1S8.552,12,8,12z M10.49,6.97c-0.197,0.306-0.506,0.594-0.936,0.866
	C9.195,8.07,8.969,8.242,8.875,8.352C8.783,8.459,8.74,8.588,8.74,8.734V9H7.149V8.555c0-0.336,0.069-0.623,0.206-0.855
	c0.14-0.234,0.384-0.46,0.737-0.68C8.371,6.844,8.57,6.685,8.695,6.544C8.816,6.402,8.879,6.24,8.879,6.058
	c0-0.145-0.064-0.26-0.199-0.344C8.549,5.629,8.379,5.587,8.17,5.587c-0.522,0-1.131,0.185-1.828,0.554L5.624,4.734
	C6.482,4.244,7.378,4,8.314,4c0.768,0,1.375,0.168,1.812,0.506c0.438,0.337,0.654,0.798,0.654,1.38
	C10.781,6.305,10.684,6.666,10.49,6.97z"/> </symbol><symbol viewBox="0 0 16 16" id="hide"><title>hide</title>   <g> <g> <path d="M8,11c1.656,0,3-1.344,3-3c0-0.155-0.019-0.305-0.044-0.452l-3.408,3.408
			C7.695,10.981,7.845,11,8,11z"/> <path d="M13.252,5.252l-1.061,1.061L13.879,8l-2.907,2.908c-0.79,0.807-1.846,1.251-2.971,1.251
			c-0.484,0-0.947-0.105-1.39-0.266l-1.149,1.148C6.227,13.43,7.084,13.659,8,13.659c1.583,0,3.015-0.652,4.042-1.701L16,8
			L13.252,5.252z"/> <path d="M12.547,2.546L11.5,3.593C10.535,2.823,9.331,2.34,8,2.34c-1.585,0-3.016,0.653-4.043,1.703L0,8h0
			l3.546,3.546l-1,1.001l1.007,1.006l9.999-9.999L12.547,2.546z M7,8C6.447,8,6,7.552,6,7s0.447-1,1-1c0.552,0,1,0.448,1,1
			S7.552,8,7,8z M9.603,5.49C9.139,5.189,8.596,5,8,5C6.344,5,5,6.343,5,8c0,0.596,0.189,1.139,0.491,1.604l-0.883,0.883L2.122,8
			l2.907-2.907C5.819,4.285,6.874,3.84,8,3.84c0.889,0,1.72,0.302,2.429,0.824L9.603,5.49z"/> </g> </g> </symbol><symbol viewBox="0 0 16 16" id="hierarchy"><title>hierarchy</title> <path d="M2,5h2V3H2V5z M6,3v2h8V3H6z M2,9h2V7H2V9z M11,7H6v2h5V7z M2,13h2v-2H2V13z M6,13h7v-2H6V13z"/> </symbol><symbol viewBox="0 0 16 16" id="home"><title>home</title> <path d="M8,3L3,7l1,1v4h8V8l1-1L8,3z M9,11.5H7V8h2V11.5z"/> </symbol><symbol viewBox="0 0 16 16" id="image"><title>image</title> <path d="M11,5l-1-2H6L5,5L1,6v7h14V6L11,5z M8,11.998c-1.933,0-3.5-1.566-3.5-3.5c0-1.933,1.567-3.5,3.5-3.5
	c1.934,0,3.5,1.567,3.5,3.5C11.5,10.432,9.934,11.998,8,11.998z M4,3.5H2v1.251l2-0.5V3.5z M8,5.999c-1.381,0-2.5,1.119-2.5,2.5
	c0,1.381,1.119,2.5,2.5,2.5s2.5-1.119,2.5-2.5C10.5,7.118,9.381,5.999,8,5.999z"/> </symbol><symbol viewBox="0 0 16 16" id="info"><title>info</title> <path d="M8,2C4.686,2,2,4.687,2,8c0,3.313,2.686,6,6,6c3.313,0,6-2.687,6-6C14,4.687,11.313,2,8,2z M8,4
	c0.552,0,1,0.448,1,1S8.552,6,8,6C7.447,6,7,5.552,7,5S7.447,4,8,4z M10,12H6v-1h1.25V8H6.249V7H8.75v4H10V12z"/> </symbol><symbol viewBox="0 0 16 16" id="italic"><title>italic</title> <polygon points="11.7,4 12.1,2 6.1,2 5.7,4 7.7,4 6.3,12 4.3,12 3.9,14 9.9,14 10.3,12 8.3,12 9.7,4 "/> </symbol><symbol viewBox="0 0 15.998 15.998" id="key"><title>key</title> <path d="M13.418,4.779l-2.229-2.23c-0.778-0.779-2.042-0.779-2.82,0l-1.82,1.82
	c-0.778,0.778-0.778,2.042,0,2.82l0.006,0.006L3,10.749v2.249h2.25l3.557-3.557c0.781,0.754,2.022,0.748,2.792-0.022l1.819-1.82
	C14.197,6.82,14.197,5.558,13.418,4.779z M10.499,7.374l-2-2l1.25-1.25l2,2L10.499,7.374z"/> </symbol><symbol viewBox="0 0 16 16" id="link"><title>link</title> <g> <path d="M8.5,2C7.119,2,6,3.119,6,4.5v3c0,1.025,0.618,1.903,1.5,2.289V8.61C7.195,8.335,7,7.941,7,7.5v-3
		C7,3.673,7.673,3,8.5,3S10,3.673,10,4.5v3c0,0.441-0.195,0.835-0.5,1.11v1.179C10.383,9.403,11,8.525,11,7.5v-3
		C11,3.119,9.881,2,8.5,2z"/> </g> <path d="M7.5,5.211V6.39C7.805,6.665,8,7.059,8,7.5v3C8,11.327,7.327,12,6.5,12S5,11.327,5,10.5v-3
	c0-0.441,0.195-0.835,0.5-1.11V5.211C4.618,5.597,4,6.475,4,7.5v3C4,11.881,5.119,13,6.5,13S9,11.881,9,10.5v-3
	C9,6.475,8.382,5.597,7.5,5.211z"/> </symbol><symbol viewBox="0 0 16 16" id="location"><title>location</title> <path d="M7.5,2C5.015,2,3,4.015,3,6.5c0,1.244,0.505,2.37,1.321,3.185l3.179,3.18l3.179-3.18
	C11.495,8.87,12,7.744,12,6.5C12,4.015,9.985,2,7.5,2z M7.5,9C6.119,9,5,7.88,5,6.5S6.119,4,7.5,4C8.88,4,10,5.12,10,6.5
	S8.88,9,7.5,9z"/> </symbol><symbol viewBox="0 0 16 16" id="lock"><title>lock</title> <path d="M12,7V6c0-2.209-1.791-4-4-4S4,3.791,4,6v1C3.448,7,3,7.448,3,8v5c0,0.553,0.448,1,1,1h8
	c0.553,0,1-0.447,1-1V8C13,7.448,12.553,7,12,7z M6,7V6c0-1.104,0.896-2,2-2s2,0.896,2,2v1H6z"/> </symbol><symbol viewBox="0 0 16 16" id="mail"><title>mail</title> <path d="M2,4v1l6,3l6-3V4H2z M2,6.5V12h12V6.5l-6,3L2,6.5z"/> </symbol><symbol viewBox="0 0 16 16" id="menu"><title>menu</title> <path d="M0,14h16v-2H0V14z M0,2v2h16V2H0z M0,9h16V7H0V9z"/> </symbol><symbol viewBox="0 0 16 16" id="microphone"><title>microphone</title> <path d="M8,10c1.1,0,2-0.9,2-2V4c0-1.1-0.9-2-2-2S6,2.9,6,4v4C6,9.1,6.9,10,8,10z M11,8c0,1.7-1.3,3-3,3S5,9.7,5,8H3
	c0,2.4,1.7,4.4,4,4.9V15h2v-2.1c2.3-0.5,4-2.5,4-4.9C13,8,11,8,11,8z"/> </symbol><symbol viewBox="0 0 16 16" id="minus"><title>minus</title> <rect x="3" y="7" width="10" height="2"/> </symbol><symbol viewBox="0 0 16 16" id="month"><title>month</title> <g> <path d="M6,11h1v-1H6V11z M6,9h1V8H6V9z M6,7h1V6H6V7z M4,11h1v-1H4V11z M4,9h1V8H4V9z M10,9h1V8h-1V9z M8,7
		h1V6H8V7z M10,7h1V6h-1V7z M11,3V2h-1v1H5V2H4v1H2v10h11V3H11z M12,11c0,0.553-0.447,1-1,1H4c-0.552,0-1-0.447-1-1V6
		c0-0.553,0.448-1,1-1h7c0.553,0,1,0.447,1,1V11z M8,9h1V8H8V9z M8,11h1v-1H8V11z"/> </g> </symbol><symbol viewBox="0 0 16 16" id="move"><title>move</title> <polygon points="15,8 12,5 12,7 9,7 9,4 11,4 8,1 5,4 7,4 7,7 4,7 4,5 1,8 4,11 4,9 7,9 7,12 5,12 8,15 11,12 9,12 9,9 12,9 12,11 
	"/> </symbol><symbol viewBox="0 0 16 16" id="next"><title>next</title> <g> <polygon points="8,4.646 7.323,5.323 10,8 3,8 3,9 10,9 7.323,11.677 8,12.354 11.854,8.5 	"/> </g> </symbol><symbol viewBox="0 0 16 16" id="notice"><title>notice</title>  <g> <path d="M8,2C4.686,2,2,4.687,2,8c0,3.313,2.686,6,6,6c3.313,0,6-2.687,6-6C14,4.687,11.313,2,8,2z M8,12
		c-0.552,0-1-0.447-1-1s0.448-1,1-1c0.553,0,1,0.447,1,1S8.553,12,8,12z M8.697,9H7.3L6.9,4h2.2L8.697,9z"/> </g> </symbol><symbol viewBox="0 0 16 16" id="paintbrush"><title>paintbrush</title> <g> <path d="M6,1c0,2-1,3-1,3l0.01,0.021L2.722,6.308c-0.389,0.389-0.389,1.025,0,1.414l2.101,2.102l5-5L6,1z"/> <path d="M13.58,11.58L11,9h-1L9.5,8.5C9.225,8.225,9.318,7.682,9.707,7.293l0.586-0.586
		c0.389-0.389,0.389-1.025,0-1.414l-0.116-0.116l-5,5l0.116,0.116c0.389,0.389,1.025,0.389,1.414,0l0.586-0.586
		C7.682,9.318,8.225,9.225,8.5,9.5L9,10v1l2.58,2.58c0.257,0.259,0.611,0.42,1.005,0.42C13.366,14,14,13.366,14,12.585
		C14,12.191,13.839,11.836,13.58,11.58z M12.585,13.085c-0.276,0-0.5-0.224-0.5-0.5s0.224-0.5,0.5-0.5s0.5,0.224,0.5,0.5
		S12.861,13.085,12.585,13.085z"/> </g> </symbol><symbol viewBox="0 0 16 16" id="pause"><title>pause</title> <path d="M4,13h3V3H4V13z M9,3v10h3V3H9z"/> </symbol><symbol viewBox="0 0 16 16" id="phone"><title>phone</title> <path d="M10,1H6C4.9,1,4,1.9,4,3v10c0,1.1,0.9,2,2,2h4c1.1,0,2-0.9,2-2V3C12,1.9,11.1,1,10,1z M8.5,14h-1
	C7.2,14,7,13.8,7,13.5S7.2,13,7.5,13h1C8.8,13,9,13.2,9,13.5S8.8,14,8.5,14z M11,12H5V3h6V12z"/> </symbol><symbol viewBox="0 0 16 16" id="picture"><title>picture</title> <path d="M3,3v10h10V3H3z M6,5c0.552,0,1,0.448,1,1S6.552,7,6,7S5,6.552,5,6S5.448,5,6,5z M12,12H4l2-3
	l1.5,2.25L11,6l1,1.5V12z"/> </symbol><symbol viewBox="0 0 16 16" id="pinned"><title>pinned</title> <path d="M3.732,11.561c-0.783,0.783-0.904,1.189-1.061,1.768c0.578-0.156,0.985-0.277,1.768-1.061l4.242-4.242L7.975,7.318
	L3.732,11.561z"/> <path d="M9.293,2.464c0.391,0.391,0.391,1.023,0,1.414L7.879,5.293c-0.391,0.391-1.024,0.391-1.415,0L5.05,6.707l4.243,4.242
	l1.414-1.414c-0.391-0.391-0.391-1.023,0-1.414l1.414-1.414c0.391-0.391,1.023-0.391,1.414,0l1.414-1.414L10.707,1.05L9.293,2.464z"/> </symbol><symbol viewBox="0 0 16 16" id="play"><title>play</title> <polygon points="4,3 4,13 12,8 "/> </symbol><symbol viewBox="0 0 16 16" id="plugin"><title>plugin</title> <path d="M7,3c0-0.6-0.4-1-1-1S5,2.4,5,3v3h2V3z M11,3c0-0.6-0.4-1-1-1S9,2.4,9,3v3h2V3z M4,6.5V10c0,1.1,0.9,2,2,2h1
	v3h2v-3h1c1.1,0,2-0.9,2-2V6.5H4z"/> </symbol><symbol viewBox="0 0 16 16" id="plus"><title>plus</title> <polygon points="13,7 9,7 9,3 7,3 7,7 3,7 3,9 7,9 7,13 9,13 9,9 13,9 "/> </symbol><symbol viewBox="0 0 16 16" id="previous"><title>previous</title> <g> <polygon points="8,4.646 8.677,5.323 6,8 13,8 13,9 6,9 8.677,11.677 8,12.354 4.146,8.5 	"/> </g> </symbol><symbol viewBox="0 0 16 16" id="print"><title>print</title> <path d="M2,6v6h2V9h8v3h2V6H2z M11,3H5v2h6V3z M11,11v-1H5v1c0,0.768,0.293,1.535,0.879,2.121L6.758,14h6
	l-0.879-0.879C11.293,12.535,11,11.768,11,11z"/> </symbol><symbol viewBox="0 0 16 16" id="quote"><title>quote</title> <path d="M2,9h3c0,1.104-0.896,2-2,2v2c2.209,0,4-1.791,4-4V4H2V9z M9,4v5h3c0,1.104-0.896,2-2,2v2
	c2.209,0,4-1.791,4-4V4H9z"/> </symbol><symbol viewBox="0 0 16 16" id="refresh"><title>refresh</title> <path d="M3.775,3.775C2.688,4.859,2,6.343,2,8c0,2.972,2.164,5.433,5,5.91v-2.052C5.278,11.412,4,9.861,4,8
	c0-1.105,0.458-2.095,1.185-2.815L7,7V2H2L3.775,3.775z M14,8c0-2.972-2.164-5.433-5-5.91v2.052C10.722,4.588,12,6.139,12,8
	c0,1.105-0.458,2.095-1.185,2.815l-1.67-1.67C9.052,9.052,9,9,9,9v5h5c0,0-0.81-0.81-1.775-1.775C13.312,11.14,14,9.657,14,8z"/> </symbol><symbol viewBox="0 0 16 16" id="reply"><title>reply</title> <path d="M10,6H8V3L3,8l5,5v-3h2c1.023,0,2.047,0.391,2.828,1.172L14,12.343V10C14,7.791,12.209,6,10,6z"/> </symbol><symbol viewBox="0 0 16 16" id="rewind"><title>rewind</title> <polygon points="15,3 9,6.75 9,3 1,8 9,13 9,9.25 15,13 "/> </symbol><symbol viewBox="0 0 16 16" id="search"><title>search</title> <path d="M14.7,13.3l-4.5-4.5C10.7,8,11,7,11,6c0-2.8-2.2-5-5-5S1,3.2,1,6s2.2,5,5,5c1,0,2-0.3,2.8-0.8l4.5,4.5
	L14.7,13.3z M6,9C4.3,9,3,7.7,3,6s1.3-3,3-3s3,1.3,3,3S7.7,9,6,9z"/> </symbol><symbol viewBox="0 0 16 16" id="send-to-phone"><title>send-to-phone</title>  <path d="M6,10l3-3L6,4v2H2v2h4V10z M10,1H6C4.9,1,4,1.9,4,3v2h1V3h6v9H5V9H4v4c0,1.1,0.9,2,2,2h4c1.1,0,2-0.9,2-2V3
	C12,1.9,11.1,1,10,1z M8.5,14h-1C7.2,14,7,13.8,7,13.5S7.2,13,7.5,13h1C8.8,13,9,13.2,9,13.5S8.8,14,8.5,14z"/> </symbol><symbol viewBox="0 0 16 16" id="send-to-tablet"><title>send-to-tablet</title> <g> <path d="M4,10l3-3L4,4v2H0v2h4V10z"/> </g> <path d="M12,0H4C2.9,0,2,0.9,2,2v3h1V2h10v11H3V9H2v5c0,1.1,0.9,2,2,2h8c1.1,0,2-0.9,2-2V2C14,0.9,13.1,0,12,0z
	 M8.5,15h-1C7.2,15,7,14.8,7,14.5S7.2,14,7.5,14h1C8.8,14,9,14.2,9,14.5S8.8,15,8.5,15z"/> </symbol><symbol viewBox="0 0 16 16" id="share"><title>share</title> <path d="M11,8c0,1.657-1.343,3-3,3c-0.828,0-1.563-0.351-2.105-0.895c-0.391-0.392-1.023-0.391-1.414,0
	s-0.391,1.023,0,1.414l-0.005,0.005C5.379,12.431,6.619,13,8,13c2.05,0,3.806-1.235,4.578-3H15V8H11z M8,5
	c0.829,0,1.563,0.351,2.105,0.895L10.11,5.89c0.391,0.391,1.023,0.391,1.414,0s0.391-1.023,0-1.414C10.621,3.57,9.382,3,8,3
	C5.951,3,4.194,4.235,3.422,6H1v2h4C5,6.343,6.343,5,8,5z M6.5,8c0,0.829,0.672,1.5,1.5,1.5c0.829,0,1.5-0.671,1.5-1.5
	S8.829,6.5,8,6.5C7.172,6.5,6.5,7.171,6.5,8z"/> </symbol><symbol viewBox="0 0 16 16" id="show"><title>show</title>  <g> <path d="M12.042,4.042C11.015,2.993,9.584,2.34,8,2.34c-1.585,0-3.016,0.653-4.043,1.703L0,8h0l3.957,3.956
		C4.984,13.007,6.416,13.659,8,13.659c1.583,0,3.015-0.652,4.042-1.701L16,8L12.042,4.042z M10.972,10.908
		c-0.79,0.807-1.846,1.251-2.971,1.251c-1.126,0-2.182-0.444-2.983-1.264L2.122,8l2.907-2.907C5.819,4.285,6.874,3.84,8,3.84
		c1.125,0,2.18,0.444,2.981,1.262L13.879,8L10.972,10.908z M11,8 M5,8c0,1.656,1.344,3,3,3s3-1.344,3-3c0-1.657-1.344-3-3-3
		S5,6.343,5,8 M6,7c0-0.552,0.447-1,1-1c0.552,0,1,0.448,1,1S7.552,8,7,8C6.447,8,6,7.552,6,7z"/> </g> </symbol><symbol viewBox="0 0 16 16" id="shuffle"><title>shuffle</title> <path d="M13,10h-2c-1.104,0-2-0.896-2-2c0-2.209-1.791-4-4-4H2v2h3c1.104,0,2,0.896,2,2c0,2.209,1.791,4,4,4
	h2v1l2-2l-2-2V10z M11,6h2v1l2-2l-2-2v1h-2c-0.843,0-1.622,0.263-2.267,0.708c0.447,0.506,0.786,1.1,1,1.756
	C10.079,6.179,10.517,6,11,6z M5,10H2v2h3c0.843,0,1.622-0.264,2.267-0.708c-0.447-0.506-0.786-1.1-1-1.756
	C5.921,9.821,5.483,10,5,10z"/> </symbol><symbol viewBox="0 0 16 16" id="sitemap"><title>sitemap</title> <path d="M14,11.277V10c0-1.657-1.344-3-3-3H9V4.723C9.596,4.376,10,3.738,10,3c0-1.104-0.896-2-2-2
	S6,1.896,6,3c0,0.738,0.405,1.376,1,1.723V7H5c-1.657,0-3,1.343-3,3v1.277C1.405,11.624,1,12.262,1,13c0,1.104,0.896,2,2,2
	s2-0.896,2-2c0-0.738-0.405-1.376-1-1.723V10c0-0.553,0.448-1,1-1h2v2.277C6.405,11.624,6,12.262,6,13c0,1.104,0.896,2,2,2
	s2-0.896,2-2c0-0.738-0.404-1.376-1-1.723V9h2c0.553,0,1,0.447,1,1v1.277c-0.596,0.347-1,0.984-1,1.723c0,1.104,0.896,2,2,2
	s2-0.896,2-2C15,12.262,14.596,11.624,14,11.277z M8,2c0.552,0,1,0.448,1,1S8.552,4,8,4S7,3.552,7,3S7.448,2,8,2z M3,14
	c-0.552,0-1-0.447-1-1s0.448-1,1-1s1,0.447,1,1S3.552,14,3,14z M8,14c-0.552,0-1-0.447-1-1s0.448-1,1-1s1,0.447,1,1S8.552,14,8,14z
	 M13,14c-0.553,0-1-0.447-1-1s0.447-1,1-1s1,0.447,1,1S13.553,14,13,14z"/> </symbol><symbol viewBox="0 0 16 16" id="skip-ahead"><title>skip-ahead</title> <path d="M2,13l8-5L2,3V13z M11,3v10h3V3H11z"/> </symbol><symbol viewBox="0 0 16 16" id="skip-back"><title>skip-back</title> <path d="M6,8l8,5V3L6,8z M2,13h3V3H2V13z"/> </symbol><symbol viewBox="0 0 16 16" id="spam"><title>spam</title>  <g> <path d="M11,2H5L2,5v6l3,3h6l3-3V5L11,2z M8,12c-0.552,0-1-0.447-1-1s0.448-1,1-1c0.553,0,1,0.447,1,1
		S8.553,12,8,12z M8.697,9H7.3L6.9,4h2.2L8.697,9z"/> </g> </symbol><symbol viewBox="0 0 16 16" id="standard"><title>standard</title> <g> <path d="M4,5v1h8V5H4z M9,7H4v1h5V7z M10,8h2V7h-2V8z M7,10h5V9H7V10z M6,9H4v1h2V9z M4,12h6v-1H4V12z"/> </g> </symbol><symbol viewBox="0 0 16 16" id="star-empty"><title>star-empty</title> <path d="M8,4.199L8.922,7h2.902L9.478,8.64l0.925,2.762L8,9.69L5.599,11.4L6.523,8.64L4.177,7h2.901L8,4.199
	 M8,1L6.354,6H1l4.338,3.031L3.674,14L8,10.918L12.326,14l-1.663-4.969L15,6H9.646L8,1L8,1z"/> </symbol><symbol viewBox="0 0 16 16" id="star-half"><title>star-half</title> <path d="M15,6H9.646L8,1L6.354,6H1l4.338,3.031L3.674,14L8,10.918L12.326,14l-1.663-4.969L15,6z M8,9.69
	V4.199L8.922,7h2.902L9.478,8.64l0.925,2.762L8,9.69z"/> </symbol><symbol viewBox="0 0 16 16" id="star"><title>star</title> <polygon points="15,6 9.646,6 8,1 6.354,6 1,6 5.338,9.031 3.674,14 8,10.918 12.326,14 10.663,9.031 "/> </symbol><symbol viewBox="0 0 16 16" id="status"><title>status</title> <path d="M11,5c0-1.657-1.344-3-3-3C6.343,2,5,3.343,5,5c0,1.305,0.837,2.403,2,2.816V13l2-1V7.816
	C10.162,7.403,11,6.305,11,5z"/> </symbol><symbol viewBox="0 0 16 16" id="stop"><title>stop</title> <rect x="4" y="4" width="8" height="8"/> </symbol><symbol viewBox="0 0 16 16" id="subscribe"><title>subscribe</title> <path d="M12,5V4H0v1l6,3L12,5z M0,6.5V12h8V8.5l-2,1L0,6.5z M15,7h-5C9.447,7,9,7.448,9,8v5
	c0,0.553,0.447,1,1,1h5c0.553,0,1-0.447,1-1V8C16,7.448,15.553,7,15,7z M15,11h-2v2h-1v-2h-2v-1h2V8h1v2h2V11z"/> </symbol><symbol viewBox="0 0 16 16" id="subscribed"><title>subscribed</title> <g> <polygon points="12,5 12,4 0,4 0,5 6,8 	"/> <polygon points="0,6.5 0,12 8,12 8,8.5 6,9.5 	"/> <path d="M15,7h-5C9.447,7,9,7.448,9,8v5c0,0.553,0.447,1,1,1h5c0.553,0,1-0.447,1-1V8
		C16,7.448,15.553,7,15,7z M11.965,13l-2.121-2.121l0.707-0.707l1.414,1.414l2.828-2.828L15.5,9.465L11.965,13z"/> </g> </symbol><symbol viewBox="0 0 16 16" id="summary"><title>summary</title> <path d="M5.5,8C5.224,8,5,8.224,5,8.5S5.224,9,5.5,9S6,8.776,6,8.5S5.776,8,5.5,8z M5.5,6
	C5.224,6,5,6.224,5,6.5S5.224,7,5.5,7S6,6.776,6,6.5S5.776,6,5.5,6z M5.5,10C5.224,10,5,10.224,5,10.5S5.224,11,5.5,11
	S6,10.776,6,10.5S5.776,10,5.5,10z M7,9h3V8H7V9z M7,11h3v-1H7V11z M10,3c0-0.553-0.447-1-1-1H6C5.448,2,5,2.447,5,3H3v10h9V3H10z
	 M6.5,3h2C8.776,3,9,3.224,9,3.5S8.776,4,8.5,4h-2C6.224,4,6,3.776,6,3.5S6.224,3,6.5,3z M11,12H4V4h1v1h5V4h1V12z M7,7h3V6H7V7z"/> </symbol><symbol viewBox="0 0 16 16" id="tablet"><title>tablet</title> <path d="M12,0H4C2.9,0,2,0.9,2,2v12c0,1.1,0.9,2,2,2h8c1.1,0,2-0.9,2-2V2C14,0.9,13.1,0,12,0z M8.5,15h-1
	C7.2,15,7,14.8,7,14.5S7.2,14,7.5,14h1C8.8,14,9,14.2,9,14.5S8.8,15,8.5,15z M13,13H3V2h10V13z"/> </symbol><symbol viewBox="0 0 16 16" id="tag"><title>tag</title> <g> <path d="M8,4l-6,6l4,4l6-6V4H8z M10,7C9.447,7,9,6.553,9,6s0.447-1,1-1s1,0.447,1,1S10.553,7,10,7z"/> </g> </symbol><symbol viewBox="0 0 16 16" id="time"><title>time</title>  <g> <path d="M7.5,2C4.462,2,2,4.462,2,7.5C2,10.537,4.462,13,7.5,13c3.037,0,5.5-2.463,5.5-5.5C13,4.462,10.537,2,7.5,2z M7.5,12
		C5.015,12,3,9.985,3,7.5S5.015,3,7.5,3C9.984,3,12,5.015,12,7.5S9.984,12,7.5,12z M8,4H7v3.707l2.621,2.621l0.707-0.707L8,7.293V4z
		"/> </g> </symbol><symbol viewBox="0 0 16 16" id="top"><title>top</title> <path d="M3,12h10L8,7L3,12z M3,5v1h10V5H3z"/> </symbol><symbol viewBox="0 0 16 16" id="trash"><title>trash</title> <g> <path d="M10,4c0-0.553-0.447-1-1-1H6C5.448,3,5,3.447,5,4L3,5v1h1h1h1h1h1h1h1h1h1V5L10,4z M8.5,5h-2C6.224,5,6,4.776,6,4.5
		S6.224,4,6.5,4h2C8.776,4,9,4.224,9,4.5S8.776,5,8.5,5z"/> <path d="M10,6.5V12H9V6.5H8V12H7V6.5H6V12H5V6.5H4V12c0,0.553,0.448,1,1,1h5c0.553,0,1-0.447,1-1V6.5H10z"/> </g> </symbol><symbol viewBox="0 0 16 16" id="unapprove"><title>unapprove</title>  <g> <path d="M8,2C4.687,2,2,4.687,2,8s2.687,6,6,6s6-2.687,6-6S11.313,2,8,2z M12,8
		c0,0.74-0.215,1.426-0.565,2.021L5.979,4.566C6.574,4.215,7.259,4,8,4C10.209,4,12,5.791,12,8z M4,8c0-0.74,0.215-1.425,0.565-2.02
		l5.455,5.455C9.425,11.785,8.74,12,8,12C5.791,12,4,10.209,4,8z"/> </g> </symbol><symbol viewBox="0 0 16 16" id="unsubscribe"><title>unsubscribe</title> <path d="M12,5V4H0v1l6,3L12,5z M0,6.5V12h8V8.5l-2,1L0,6.5z M15,7h-5C9.447,7,9,7.448,9,8v5
	c0,0.553,0.447,1,1,1h5c0.553,0,1-0.447,1-1V8C16,7.448,15.553,7,15,7z M15,11h-5v-1h5V11z"/> </symbol><symbol viewBox="0 0 16 16" id="unzoom"><title>unzoom</title> <path d="M10.134,9.134C10.673,8.393,11,7.487,11,6.5C11,4.015,8.985,2,6.5,2S2,4.015,2,6.5S4.015,11,6.5,11
	c0.987,0,1.893-0.327,2.634-0.866L13,14l1-1L10.134,9.134z M6.5,10C4.567,10,3,8.433,3,6.5S4.567,3,6.5,3C8.434,3,10,4.567,10,6.5
	S8.434,10,6.5,10z M4,7h5V6H4V7z"/> </symbol><symbol viewBox="0 0 16 16" id="user"><title>user</title> <g> <path d="M8,7c1.104,0,2-0.896,2-2S9.104,3,8,3S6,3.896,6,5S6.896,7,8,7z M9,8H7c-1.656,0-3,1.343-3,3v2h8v-2
		C12,9.343,10.656,8,9,8z"/> </g> </symbol><symbol viewBox="0 0 16 16" id="video"><title>video</title> <polygon points="4,3 4,13 13,8 "/> </symbol><symbol viewBox="0 0 16 16" id="videocamera"><title>videocamera</title> <path d="M11,7V5c0-0.552-0.447-1-1-1H3C2.448,4,2,4.448,2,5v6c0,0.553,0.448,1,1,1h7c0.553,0,1-0.447,1-1V9
	l3,3V4L11,7z"/> </symbol><symbol viewBox="0 0 16 16" id="warning"><title>warning</title> <path d="M15.594,11.297L9.66,1.633c-0.913-1.487-2.407-1.487-3.32,0l-5.934,9.664
	C-0.508,12.783,0.174,14,1.918,14h12.164C15.826,14,16.508,12.783,15.594,11.297z M8,12c-0.552,0-1-0.447-1-1s0.448-1,1-1
	c0.553,0,1,0.447,1,1S8.553,12,8,12z M8.697,9H7.3L6.9,4h2.2L8.697,9z"/> </symbol><symbol viewBox="0 0 16 16" id="website"><title>website</title> <path d="M8,2C4.687,2,2,4.687,2,8s2.687,6,6,6s6-2.687,6-6S11.313,2,8,2z M3.72,5.527l0.283,0.081
	L3.767,5.629L3.63,5.678L3.595,5.686c0.034-0.064,0.067-0.128,0.103-0.19L3.72,5.527z M8,13c-0.155,0-0.301-0.032-0.453-0.046
	l0.26-0.207l0.015-0.129l-0.134-0.183l0.282,0.04l0.312-0.71l0.392-0.241l0.216-0.532l0.178-0.511l-0.01-0.448L8.813,9.879
	L8.438,9.848l-0.37-0.079l0.065-0.13L7.872,9.713l0.064-0.381L7.871,9.289L7.598,9.138L7.219,8.875L6.69,8.706L6.536,8.652
	L6.422,8.841l0.019-0.209L6.133,8.77L5.665,8.878L5.56,8.927L5.716,9l0.117-0.085l0.065,0.037L5.839,9.434l-0.11,0.414l-0.06,0.129
	l0.083,0.218L6,10.635l0.526,0.514l0.087,0.491l0.075,1.075l0.032,0.099C4.585,12.244,3,10.312,3,8c0-0.498,0.095-0.969,0.231-1.423
	L3.44,6.939l0.002,0.281l0.04,0.179L3.56,7.496l0.039,0.13l0.064,0.08l0.005-0.134L3.61,7.056l0.041,0.127l0.173,0.369L4.214,8.17
	l0.34,0.142l0.307,0.074l0.316-0.204l0.116-0.34l-0.447,0.24L4.614,7.829l0.051-0.34l0.385-0.31l0.3,0.002L5.711,7.18l0.185,0.371
	L5.959,7.35l0.202-0.464l0.256-0.209l0.076-0.183l0.2-0.158l0.273-0.151l0.111-0.129L7.321,5.94l0.203-0.044L7.398,6.043
	l0.359-0.146L7.669,5.841L7.563,5.721l0.041-0.134L7.27,5.679l0.428-0.168l0.584-0.149l-0.16-0.157L8.042,4.774L7.816,4.854
	L7.745,4.71L7.487,4.579L7.229,4.756L7.077,5.052L6.814,5.321L6.6,5.102l-0.3-0.141L6.193,4.844l0.431-0.33l0.282-0.163l0.584-0.193
	L7.118,4.192L7.032,4.014l-0.22-0.023L6.768,4.132L6.534,4.189L6.162,4.142L5.89,4.203L5.64,4.139L5.267,4.043L4.968,4.052
	C5.812,3.402,6.855,3,8,3c0.563,0,1.096,0.114,1.602,0.287L9.369,3.3l-0.54,0.132l-0.251,0.06l0.173,0.134L9.11,3.778l0.097,0.17
	L9.075,4.203l0.049,0.466l0.468-0.226l0.604-0.268l0.468-0.081l0.062-0.07L10.56,4.004l0.036-0.073l0.257,0.041l-0.159-0.139
	l0.034-0.014c0.602,0.394,1.106,0.914,1.49,1.521l-0.113,0.091l-0.316,0.172l-0.161,0.065l0.188,0.208l-0.067,0.171l-0.363-0.021
	l-0.104,0.197L11.261,6.54l0.184,0.072l0.396-0.091l0.203-0.274l0.186-0.166l0.226-0.021l0.105-0.052l0.043,0.04
	c0.12,0.284,0.212,0.583,0.278,0.891l-0.189-0.082L12.49,6.569l-0.519,0.056l-0.216,0.075l-0.295-0.003L11.172,6.97l-0.102,0.2
	l-0.146,0.162L10.82,7.434l-0.178,0.274L10.604,7.85L10.56,7.909l-0.007,0.424l0.006,0.254l0.305,0.418l0.312,0.227l0.412-0.024
	l0.436-0.165l0.184,0.155l0.198,0.059l0.271,0.197l-0.117,0.397l0.051,0.082C11.852,11.733,10.071,13,8,13z"/> </symbol><symbol viewBox="0 0 16 16" id="week"><title>week</title> <path d="M8.999,6.473c0-0.003,0-0.007,0-0.01c0-0.005-0.001-0.01-0.001-0.016v0
	C8.972,6.21,8.783,6.023,8.546,6.002H8.544C8.537,6.001,8.53,6.001,8.522,6h-0.01C8.508,6,8.504,6,8.5,6h-2C6.224,6,6,6.224,6,6.5
	S6.224,7,6.5,7h1.36l-0.845,3.379c-0.067,0.268,0.096,0.539,0.364,0.606c0.268,0.066,0.539-0.097,0.606-0.364l1-4
	C8.995,6.581,9,6.54,9,6.5V6.498c0-0.005,0-0.009,0-0.014C9,6.48,9,6.477,8.999,6.473z M11,3V2h-1v1H5V2H4v1H2v10h11V3H11z M12,11
	c0,0.553-0.447,1-1,1H4c-0.552,0-1-0.447-1-1V6c0-0.553,0.448-1,1-1h7c0.553,0,1,0.447,1,1V11z"/> </symbol><symbol viewBox="0 0 16 16" id="xpost"><title>xpost</title> <path d="M13,4c0-1.104-0.896-2-2-2S9,2.896,9,4c0,0.738,0.404,1.376,1,1.723V7c0,1.104-0.896,2-2,2
	C7.268,9,6.59,9.211,6,9.555V5.723C6.595,5.376,7,4.738,7,4c0-1.104-0.896-2-2-2S3,2.896,3,4c0,0.738,0.405,1.376,1,1.723V14h2v-1
	c0-1.104,0.896-2,2-2c2.209,0,4-1.791,4-4V5.723C12.596,5.376,13,4.738,13,4z M5,3c0.552,0,1,0.448,1,1S5.552,5,5,5S4,4.552,4,4
	S4.448,3,5,3z M11,5c-0.553,0-1-0.448-1-1s0.447-1,1-1s1,0.448,1,1S11.553,5,11,5z"/> </symbol><symbol viewBox="0 0 16 16" id="zoom"><title>zoom</title> <path d="M7,4H6v2H4v1h2v2h1V7h2V6H7V4z M10.134,9.134C10.673,8.393,11,7.487,11,6.5C11,4.015,8.985,2,6.5,2
	S2,4.015,2,6.5S4.015,11,6.5,11c0.987,0,1.893-0.327,2.634-0.866L13,14l1-1L10.134,9.134z M6.5,10C4.567,10,3,8.433,3,6.5
	S4.567,3,6.5,3C8.434,3,10,4.567,10,6.5S8.434,10,6.5,10z"/> </symbol></svg>