<svg xmlns="http://www.w3.org/2000/svg" width="16" height="16" viewBox="0 0 16 16"><rect x="0" fill="none" width="16" height="16"/><g><path d="M4 3h2.802c1.276 0 2.202.182 2.78.545.575.363.863.94.863 1.733 0 .538-.126.98-.378 1.323-.253.346-.588.553-1.006.623v.062c.57.127.982.365 1.235.714.252.348.38.812.38 1.39 0 .82-.298 1.46-.89 1.92-.595.46-1.4.69-2.417.69H4V3zm2 3.564h1.017c.518 0 .892-.08 1.124-.24.232-.16.35-.425.35-.794 0-.345-.127-.592-.38-.742-.253-.15-.652-.225-1.198-.225H6v2zM6 8.08v2.344h1.152c.525 0 .913-.1 1.163-.302.25-.2.376-.51.376-.923 0-.748-.533-1.122-1.6-1.122H6z"/></g></svg>