<svg xmlns="http://www.w3.org/2000/svg" width="16" height="16" viewBox="0 0 16 16"><rect x="0" fill="none" width="16" height="16"/><g><path d="M14.5 8H13c0-.485-.084-.946-.22-1.386C13.544 5.608 14 4.36 14 3v-.5c0-.276-.224-.5-.5-.5s-.5.224-.5.5V3c0 2.76-2.238 5-5 5-2.76 0-5-2.24-5-5v-.5c0-.276-.224-.5-.5-.5s-.5.224-.5.5V3c0 1.364.46 2.617 1.227 3.625C3.095 7.063 3 7.518 3 8H1.5c-.276 0-.5.224-.5.5s.224.5.5.5h1.6c.08.38.21.74.368 1.083C2.558 11.135 2 12.5 2 14v.5c0 .275.224.5.5.5s.5-.225.5-.5V14c0-1.132.386-2.166 1.02-3 .914 1.207 2.35 2 3.98 2 1.635 0 3.072-.796 3.984-2.01C12.62 11.83 13 12.87 13 14v.5c0 .275.224.5.5.5s.5-.225.5-.5V14c0-1.5-.556-2.866-1.467-3.917.158-.344.29-.702.366-1.083h1.6c.276 0 .5-.224.5-.5s-.224-.5-.5-.5zM8 7c1.633 0 3.034-.985 3.655-2.39C10.742 3.625 9.45 3 8 3c-1.448 0-2.742.625-3.655 1.61C4.965 6.015 6.368 7 8 7z"/></g></svg>