<svg xmlns="http://www.w3.org/2000/svg" width="16" height="16" viewBox="0 0 16 16"><rect x="0" fill="none" width="16" height="16"/><g><path d="M14.75 10.156l-1.81-1.568C12.964 8.393 13 8.2 13 8c0-.203-.036-.395-.06-.59l1.81-1.57-.45-1.087-2.387.17c-.246-.313-.525-.592-.837-.837l.17-2.386-1.087-.45-1.57 1.81C8.393 3.037 8.2 3 8 3s-.394.037-.59.06L5.84 1.25l-1.086.45.17 2.386c-.313.246-.592.526-.838.838L1.7 4.754l-.45 1.09 1.81 1.57C3.035 7.607 3 7.798 3 8c0 .203.036.396.06.592l-1.81 1.57.45 1.087 2.388-.17c.246.31.524.59.836.834l-.17 2.386 1.09.45 1.57-1.81c.194.024.385.06.586.06.203 0 .396-.036.593-.06l1.568 1.81 1.09-.45-.17-2.388c.31-.245.59-.524.834-.836l2.386.17.45-1.09zM10 8c0 1.104-.896 2-2 2s-2-.896-2-2 .896-2 2-2 2 .896 2 2z"/></g></svg>