<svg xmlns="http://www.w3.org/2000/svg" width="16" height="16" viewBox="0 0 16 16"><rect x="0" fill="none" width="16" height="16"/><g><path d="M8 2C4.686 2 2 4.687 2 8s2.686 6 6 6c3.313 0 6-2.687 6-6s-2.687-6-6-6zm0 10c-.553 0-1-.45-1-1s.447-1 1-1c.552 0 1 .45 1 1s-.448 1-1 1zm2.49-5.03c-.197.306-.506.594-.936.866-.36.234-.585.406-.68.516-.09.107-.134.236-.134.382V9H7.15v-.445c0-.336.068-.623.205-.855.14-.234.384-.46.737-.68.28-.176.478-.335.603-.476.12-.142.184-.304.184-.486 0-.145-.065-.26-.2-.344-.13-.085-.3-.127-.51-.127-.522 0-1.13.185-1.828.554l-.718-1.406C6.482 4.244 7.378 4 8.314 4c.768 0 1.375.168 1.812.506.438.337.654.798.654 1.38 0 .42-.096.78-.29 1.084z"/></g></svg>