<svg xmlns="http://www.w3.org/2000/svg" width="16" height="16" viewBox="0 0 16 16"><rect x="0" fill="none" width="16" height="16"/><g><g><path d="M8 11c1.656 0 3-1.344 3-3 0-.155-.02-.305-.044-.452l-3.408 3.408c.147.025.297.044.452.044z"/><path d="M13.252 5.252l-1.06 1.06L13.878 8l-2.908 2.908c-.79.807-1.846 1.25-2.97 1.25-.485 0-.948-.104-1.39-.265L5.46 13.04c.765.39 1.622.62 2.538.62 1.583 0 3.015-.653 4.042-1.702L16 8l-2.748-2.748zM12.547 2.546L11.5 3.593C10.535 2.823 9.33 2.34 8 2.34c-1.585 0-3.016.653-4.043 1.703L0 8l3.546 3.546-1 1 1.007 1.007 10-10-1.006-1.007zM7 8c-.553 0-1-.448-1-1s.447-1 1-1c.552 0 1 .448 1 1s-.448 1-1 1zm2.603-2.51C9.14 5.19 8.596 5 8 5 6.344 5 5 6.343 5 8c0 .596.19 1.14.49 1.604l-.882.883L2.122 8 5.03 5.093C5.82 4.285 6.873 3.84 8 3.84c.89 0 1.72.302 2.43.824l-.827.826z"/></g></g></svg>