<svg xmlns="http://www.w3.org/2000/svg" width="16" height="16" viewBox="0 0 16 16"><rect x="0" fill="none" width="16" height="16"/><g><path d="M8.5 2C7.12 2 6 3.12 6 4.5v3c0 1.025.618 1.903 1.5 2.29V8.61C7.195 8.335 7 7.94 7 7.5v-3C7 3.673 7.673 3 8.5 3s1.5.673 1.5 1.5v3c0 .44-.195.835-.5 1.11v1.18c.883-.387 1.5-1.265 1.5-2.29v-3C11 3.12 9.88 2 8.5 2z"/><path d="M7.5 5.21v1.18c.305.275.5.67.5 1.11v3c0 .827-.673 1.5-1.5 1.5S5 11.327 5 10.5v-3c0-.44.195-.835.5-1.11V5.21C4.618 5.598 4 6.476 4 7.5v3C4 11.88 5.12 13 6.5 13S9 11.88 9 10.5v-3c0-1.025-.618-1.903-1.5-2.29z"/></g></svg>