<svg xmlns="http://www.w3.org/2000/svg" width="16" height="16" viewBox="0 0 16 16"><rect x="0" fill="none" width="16" height="16"/><g><g><path d="M6 1c0 2-1 3-1 3l.01.02L2.722 6.31c-.39.39-.39 1.025 0 1.414l2.1 2.102 5-5L6 1zM13.58 11.58L11 9h-1l-.5-.5c-.275-.275-.182-.818.207-1.207l.586-.586c.39-.39.39-1.025 0-1.414l-.116-.116-5 5 .116.116c.39.39 1.025.39 1.414 0l.586-.586c.39-.39.932-.482 1.207-.207l.5.5v1l2.58 2.58c.257.26.61.42 1.005.42.78 0 1.415-.634 1.415-1.415 0-.394-.16-.75-.42-1.005zm-.995 1.505c-.276 0-.5-.224-.5-.5s.224-.5.5-.5.5.224.5.5-.224.5-.5.5z"/></g></g></svg>