<svg xmlns="http://www.w3.org/2000/svg" width="16" height="16" viewBox="0 0 16 16"><rect x="0" fill="none" width="16" height="16"/><g><path d="M11 8c0 1.657-1.343 3-3 3-.828 0-1.563-.35-2.105-.895-.39-.392-1.023-.39-1.414 0s-.39 1.023 0 1.414l-.004.004C5.38 12.43 6.62 13 8 13c2.05 0 3.806-1.235 4.578-3H15V8h-4zM8 5c.83 0 1.563.35 2.105.895l.005-.005c.39.39 1.023.39 1.414 0s.39-1.023 0-1.414C10.62 3.57 9.382 3 8 3 5.95 3 4.194 4.235 3.422 6H1v2h4c0-1.657 1.343-3 3-3zM6.5 8c0 .83.672 1.5 1.5 1.5.83 0 1.5-.67 1.5-1.5S8.83 6.5 8 6.5c-.828 0-1.5.67-1.5 1.5z"/></g></svg>