<svg xmlns="http://www.w3.org/2000/svg" width="16" height="16" viewBox="0 0 16 16"><rect x="0" fill="none" width="16" height="16"/><g><path d="M12.042 4.042C11.015 2.992 9.584 2.34 8 2.34c-1.585 0-3.016.653-4.043 1.703L0 8l3.957 3.956C4.984 13.006 6.417 13.66 8 13.66c1.583 0 3.015-.653 4.042-1.702L16 8l-3.958-3.958zm-1.07 6.866c-.79.807-1.846 1.25-2.97 1.25-1.127 0-2.183-.443-2.984-1.263L2.122 8 5.03 5.093C5.82 4.285 6.873 3.84 8 3.84c1.125 0 2.18.444 2.98 1.262L13.88 8l-2.908 2.908zM5 8c0 1.656 1.344 3 3 3s3-1.344 3-3c0-1.657-1.344-3-3-3S5 6.343 5 8m1-1c0-.552.447-1 1-1 .552 0 1 .448 1 1s-.448 1-1 1c-.553 0-1-.448-1-1z"/></g></svg>