<svg xmlns="http://www.w3.org/2000/svg" width="16" height="16" viewBox="0 0 16 16"><rect x="0" fill="none" width="16" height="16"/><g><path d="M5.5 8c-.276 0-.5.224-.5.5s.224.5.5.5.5-.224.5-.5-.224-.5-.5-.5zm0-2c-.276 0-.5.224-.5.5s.224.5.5.5.5-.224.5-.5-.224-.5-.5-.5zm0 4c-.276 0-.5.224-.5.5s.224.5.5.5.5-.224.5-.5-.224-.5-.5-.5zM7 9h3V8H7v1zm0 2h3v-1H7v1zm3-8c0-.553-.447-1-1-1H6c-.552 0-1 .447-1 1H3v10h9V3h-2zM6.5 3h2c.276 0 .5.224.5.5s-.224.5-.5.5h-2c-.276 0-.5-.224-.5-.5s.224-.5.5-.5zm4.5 9H4V4h1v1h5V4h1v8zM7 7h3V6H7v1z"/></g></svg>