<svg xmlns="http://www.w3.org/2000/svg" width="16" height="16" viewBox="0 0 16 16"><rect x="0" fill="none" width="16" height="16"/><g><path d="M8 2C4.687 2 2 4.687 2 8s2.687 6 6 6 6-2.687 6-6-2.687-6-6-6zM3.72 5.527l.283.08-.236.022-.137.048-.035.008c.034-.064.067-.128.103-.19l.022.03zM8 13c-.155 0-.3-.032-.453-.046l.26-.207.015-.13-.134-.182.282.04.312-.71.392-.24.216-.533.178-.51-.01-.45-.245-.153-.375-.032-.37-.08.065-.13-.26.075.063-.38-.065-.044-.272-.152-.38-.263-.528-.17-.154-.053-.114.19.02-.21-.31.138-.467.108-.105.05.156.072.117-.085.065.037-.06.482-.11.414-.06.13.084.217.248.44.526.514.087.49.075 1.075.032.1C4.585 12.244 3 10.31 3 8c0-.498.095-.97.23-1.423l.21.362.002.28.04.18.078.096.04.13.063.08.005-.134-.058-.516.04.127.174.37.39.617.34.142.307.074.317-.204.116-.34-.447.24-.232-.253.05-.34.386-.31H5.71l.186.37.063-.2.2-.464.257-.21.076-.182.2-.158.273-.15.11-.13.245-.116.204-.044-.126.147.36-.146-.09-.056-.105-.12.04-.133-.333.092.428-.17.584-.148-.16-.157-.08-.43-.226.08-.07-.145-.26-.13-.257.176-.153.296-.263.27L6.6 5.1l-.3-.14-.107-.118.43-.33.283-.163.584-.192-.372.034-.086-.178-.22-.023-.044.142-.234.057-.372-.048-.272.06-.25-.063-.373-.097-.3.01C5.813 3.402 6.856 3 8 3c.563 0 1.096.114 1.602.287L9.37 3.3l-.54.132-.252.06.173.134.36.152.097.17-.132.255.05.466.467-.227.604-.268.468-.08.062-.07-.166-.02.036-.074.257.042-.16-.14.035-.013c.602.393 1.106.913 1.49 1.52l-.113.09-.316.173-.162.065.188.208-.067.17-.364-.02-.104.197-.02.317.183.072.396-.09.204-.275.186-.166.226-.02.105-.052.044.04c.12.284.212.583.278.89l-.19-.08-.202-.29-.52.057-.215.075-.295-.003-.288.273-.102.2-.146.162-.104.102-.178.274-.038.142-.044.06-.007.423.006.254.304.418.312.227.412-.024.436-.165.184.155.198.06.27.196-.116.397.05.083C11.853 11.733 10.07 13 8 13z"/></g></svg>