<svg xmlns="http://www.w3.org/2000/svg" width="16" height="16" viewBox="0 0 16 16"><rect x="0" fill="none" width="16" height="16"/><g><path d="M9 6.473v-.01l-.002-.016c-.026-.237-.215-.424-.452-.445h-.002c-.007 0-.014 0-.022-.002H6.5c-.276 0-.5.224-.5.5s.224.5.5.5h1.36l-.845 3.38c-.067.267.096.538.364.605.267.066.538-.097.605-.364l1-4c.01-.04.015-.08.015-.12v-.002-.014-.01zM11 3V2h-1v1H5V2H4v1H2v10h11V3h-2zm1 8c0 .553-.447 1-1 1H4c-.552 0-1-.447-1-1V6c0-.553.448-1 1-1h7c.553 0 1 .447 1 1v5z"/></g></svg>