<svg xmlns="http://www.w3.org/2000/svg" width="16" height="16" viewBox="0 0 16 16"><rect x="0" fill="none" width="16" height="16"/><g><path d="M13 4c0-1.104-.896-2-2-2s-2 .896-2 2c0 .738.404 1.376 1 1.723V7c0 1.104-.896 2-2 2-.732 0-1.41.21-2 .555V5.723C6.595 5.376 7 4.738 7 4c0-1.104-.896-2-2-2s-2 .896-2 2c0 .738.405 1.376 1 1.723V14h2v-1c0-1.104.896-2 2-2 2.21 0 4-1.79 4-4V5.723c.596-.347 1-.985 1-1.723zM5 3c.552 0 1 .448 1 1s-.448 1-1 1-1-.448-1-1 .448-1 1-1zm6 2c-.553 0-1-.448-1-1s.447-1 1-1 1 .448 1 1-.447 1-1 1z"/></g></svg>