<?xml version="1.0" encoding="utf-8"?>
<!-- Generator: Adobe Illustrator 16.0.4, SVG Export Plug-In . SVG Version: 6.00 Build 0)  -->
<!DOCTYPE svg PUBLIC "-//W3C//DTD SVG 1.1//EN" "http://www.w3.org/Graphics/SVG/1.1/DTD/svg11.dtd">
<svg version="1.1" id="Layer_1" xmlns="http://www.w3.org/2000/svg" xmlns:xlink="http://www.w3.org/1999/xlink" x="0px" y="0px"
	 width="16px" height="16px" viewBox="0 0 16 16" style="enable-background:new 0 0 16 16;" xml:space="preserve">
<path style="fill:#231F20;" d="M11.332,5.1L10,7.764l-2-4l-2,4l-1-2l-2,4L2.447,8.658L0.658,9.553L3,14.236l2-4l1,2l2-4l2,4
	l3.124-6.249C13.082,5.99,13.043,6,13,6C12.303,6,11.689,5.642,11.332,5.1z M13,2.5c-0.829,0-1.5,0.672-1.5,1.5s0.671,1.5,1.5,1.5
	s1.5-0.672,1.5-1.5S13.829,2.5,13,2.5z"/>
</svg>
