<?xml version="1.0" encoding="utf-8"?>
<!-- Generator: Adobe Illustrator 16.0.4, SVG Export Plug-In . SVG Version: 6.00 Build 0)  -->
<!DOCTYPE svg PUBLIC "-//W3C//DTD SVG 1.1//EN" "http://www.w3.org/Graphics/SVG/1.1/DTD/svg11.dtd">
<svg version="1.1" id="Rectangle_3_1_" xmlns="http://www.w3.org/2000/svg" xmlns:xlink="http://www.w3.org/1999/xlink" x="0px"
	 y="0px" width="16px" height="16px" viewBox="0 0 16 16" style="enable-background:new 0 0 16 16;" xml:space="preserve">
<path style="fill:#0F0F0F;" d="M11.986,10.392c-0.721,0.768-1.771,1.32-2.986,1.521V8h1V7H9V5.723C9.596,5.376,10,4.738,10,4
	c0-1.104-0.896-2-2-2S6,2.896,6,4c0,0.738,0.405,1.376,1,1.723V7H6v1h1v3.912c-1.214-0.201-2.266-0.754-2.986-1.521L2.86,11.084
	C3.91,12.829,5.816,14,8,14c2.185,0,4.09-1.171,5.14-2.916L11.986,10.392z M8,3c0.553,0,1,0.448,1,1S8.553,5,8,5
	C7.448,5,7,4.552,7,4S7.448,3,8,3z"/>
</svg>
