<?xml version="1.0" encoding="utf-8"?>
<!-- Generator: Adobe Illustrator 16.0.4, SVG Export Plug-In . SVG Version: 6.00 Build 0)  -->
<!DOCTYPE svg PUBLIC "-//W3C//DTD SVG 1.1//EN" "http://www.w3.org/Graphics/SVG/1.1/DTD/svg11.dtd">
<svg version="1.1" id="Shape_1_1_" xmlns="http://www.w3.org/2000/svg" xmlns:xlink="http://www.w3.org/1999/xlink" x="0px" y="0px"
	 width="16px" height="16px" viewBox="0 0 16 16" style="enable-background:new 0 0 16 16;" xml:space="preserve">
<path style="fill:#865252;" d="M9,11H7v2H5l3,3l3-3H9V11z M13,8h-0.184C12.928,7.686,13,7.353,13,7c0-1.657-1.344-3-3-3
	C8.792,4,7.756,4.719,7.281,5.749C6.828,5.287,6.198,5,5.5,5C4.119,5,3,6.119,3,7.5C3,7.671,3.018,7.838,3.05,8H3
	c-1.104,0-2,0.896-2,2s0.896,2,2,2h3v-2h4v2h3c1.104,0,2-0.896,2-2S14.104,8,13,8z"/>
</svg>
