<?xml version="1.0" encoding="utf-8"?>
<!-- Generator: Adobe Illustrator 16.0.4, SVG Export Plug-In . SVG Version: 6.00 Build 0)  -->
<!DOCTYPE svg PUBLIC "-//W3C//DTD SVG 1.1//EN" "http://www.w3.org/Graphics/SVG/1.1/DTD/svg11.dtd">
<svg version="1.1" id="Shape_1_copy_1_" xmlns="http://www.w3.org/2000/svg" xmlns:xlink="http://www.w3.org/1999/xlink" x="0px"
	 y="0px" width="16px" height="16px" viewBox="0 0 16 16" style="enable-background:new 0 0 16 16;" xml:space="preserve">
<path style="fill:#0E5C13;" d="M13.997,6.11c-0.001-0.008-0.003-0.015-0.004-0.022c-0.003-0.015-0.005-0.029-0.009-0.043
	c-0.002-0.009-0.006-0.017-0.008-0.025c-0.005-0.012-0.009-0.024-0.014-0.037c-0.004-0.009-0.008-0.017-0.012-0.025
	c-0.005-0.012-0.011-0.022-0.018-0.034c-0.004-0.008-0.01-0.016-0.015-0.023c-0.007-0.011-0.014-0.021-0.021-0.031
	c-0.006-0.008-0.012-0.015-0.018-0.022c-0.009-0.01-0.017-0.019-0.026-0.027c-0.006-0.007-0.013-0.014-0.021-0.021
	c-0.009-0.009-0.019-0.017-0.029-0.024c-0.007-0.006-0.015-0.012-0.022-0.018c-0.003-0.002-0.006-0.005-0.009-0.007L8.286,2.101
	c-0.173-0.115-0.399-0.115-0.572,0L2.228,5.749C2.225,5.751,2.222,5.754,2.219,5.756L2.196,5.773
	c-0.01,0.008-0.02,0.016-0.029,0.024C2.16,5.805,2.153,5.812,2.146,5.818C2.137,5.827,2.129,5.836,2.121,5.846
	C2.114,5.854,2.108,5.86,2.103,5.868c-0.007,0.01-0.015,0.021-0.021,0.031c-0.005,0.008-0.01,0.016-0.015,0.023
	C2.06,5.935,2.054,5.945,2.049,5.957C2.045,5.966,2.041,5.974,2.037,5.982C2.032,5.995,2.028,6.008,2.024,6.02
	C2.021,6.028,2.018,6.036,2.016,6.045C2.012,6.059,2.01,6.073,2.007,6.088C2.006,6.096,2.004,6.103,2.003,6.11
	C2,6.133,1.998,6.155,1.998,6.178v3.648c0,0.022,0.002,0.045,0.005,0.067C2.004,9.9,2.006,9.908,2.007,9.916
	C2.01,9.93,2.012,9.944,2.016,9.959c0.002,0.009,0.005,0.017,0.008,0.024c0.004,0.013,0.008,0.025,0.013,0.038
	c0.004,0.009,0.008,0.017,0.012,0.024c0.005,0.012,0.011,0.023,0.018,0.035c0.004,0.008,0.009,0.016,0.015,0.023
	c0.007,0.011,0.014,0.021,0.021,0.031c0.006,0.008,0.012,0.015,0.018,0.022c0.008,0.009,0.017,0.019,0.025,0.027
	c0.007,0.007,0.014,0.014,0.021,0.021c0.009,0.008,0.019,0.017,0.029,0.024l0.023,0.018c0.003,0.002,0.006,0.004,0.008,0.006
	l5.486,3.649C7.801,13.961,7.9,13.989,8,13.989s0.199-0.028,0.286-0.086l5.486-3.649l0.009-0.006
	c0.008-0.006,0.016-0.012,0.022-0.018c0.011-0.008,0.021-0.017,0.029-0.024c0.008-0.007,0.015-0.014,0.021-0.021
	c0.01-0.009,0.018-0.019,0.026-0.027c0.006-0.008,0.012-0.015,0.018-0.022c0.008-0.011,0.015-0.021,0.021-0.031
	c0.005-0.008,0.011-0.016,0.015-0.023c0.007-0.012,0.013-0.023,0.018-0.035c0.004-0.008,0.008-0.016,0.012-0.024
	c0.005-0.013,0.009-0.025,0.014-0.038c0.002-0.008,0.006-0.016,0.008-0.024c0.004-0.015,0.006-0.029,0.009-0.043
	c0.001-0.008,0.003-0.016,0.004-0.022C14,9.871,14.002,9.849,14.002,9.826V6.178C14.002,6.155,14,6.133,13.997,6.11z M8.516,3.49
	l4.042,2.688l-1.806,1.205L8.516,5.891V3.49z M7.484,3.49v2.4L5.248,7.383L3.443,6.178L7.484,3.49z M3.03,7.141L4.32,8.002
	L3.03,8.863V7.141z M7.484,12.514L3.443,9.825l1.805-1.204l2.236,1.492V12.514z M8,9.22L6.176,8.002L8,6.784l1.824,1.218L8,9.22z
	 M8.516,12.514v-2.4l2.236-1.492l1.806,1.204L8.516,12.514z M12.971,8.863L11.68,8.002l1.291-0.861V8.863z"/>
</svg>
