<?xml version="1.0" encoding="utf-8"?>
<!-- Generator: Adobe Illustrator 16.0.4, SVG Export Plug-In . SVG Version: 6.00 Build 0)  -->
<!DOCTYPE svg PUBLIC "-//W3C//DTD SVG 1.1//EN" "http://www.w3.org/Graphics/SVG/1.1/DTD/svg11.dtd">
<svg version="1.1" id="Layer_8" xmlns="http://www.w3.org/2000/svg" xmlns:xlink="http://www.w3.org/1999/xlink" x="0px" y="0px"
	 width="16px" height="16px" viewBox="0 0 16 16" style="enable-background:new 0 0 16 16;" xml:space="preserve">
<path style="fill:#231F20;" d="M14.75,10.156l-1.81-1.568C12.964,8.393,13,8.201,13,8c0-0.203-0.036-0.395-0.06-0.591l1.809-1.569
	l-0.45-1.087l-2.386,0.169c-0.246-0.312-0.525-0.591-0.837-0.836L11.247,1.7L10.159,1.25l-1.57,1.81C8.394,3.037,8.202,3,8,3
	S7.606,3.037,7.411,3.06l-1.57-1.81L4.754,1.7l0.17,2.386C4.611,4.332,4.332,4.612,4.086,4.924L1.701,4.754L1.25,5.843l1.809,1.57
	C3.036,7.608,3,7.799,3,8c0,0.203,0.036,0.396,0.06,0.592l-1.81,1.569l0.451,1.088l2.387-0.17c0.246,0.312,0.524,0.59,0.836,0.835
	L4.754,14.3l1.089,0.451l1.57-1.811C7.608,12.964,7.799,13,8,13c0.203,0,0.396-0.036,0.593-0.06l1.568,1.809l1.088-0.45l-0.17-2.387
	c0.312-0.245,0.59-0.524,0.835-0.836l2.386,0.171L14.75,10.156z M10,8c0,1.104-0.896,2-2,2S6,9.104,6,8s0.896-2,2-2S10,6.896,10,8z"
	/>
</svg>
