<?xml version="1.0" encoding="utf-8"?>
<!-- Generator: Adobe Illustrator 16.0.4, SVG Export Plug-In . SVG Version: 6.00 Build 0)  -->
<!DOCTYPE svg PUBLIC "-//W3C//DTD SVG 1.1//EN" "http://www.w3.org/Graphics/SVG/1.1/DTD/svg11.dtd">
<svg version="1.1" id="Layer_1" xmlns="http://www.w3.org/2000/svg" xmlns:xlink="http://www.w3.org/1999/xlink" x="0px" y="0px"
	 width="16px" height="16px" viewBox="0 0 16 16" style="enable-background:new 0 0 16 16;" xml:space="preserve">
<path style="fill:#A45656;" d="M11,3V2h-1v1H5V2H4v1H2v10h11V3H11z M12,11c0,0.553-0.447,1-1,1H4c-0.552,0-1-0.447-1-1V6
	c0-0.553,0.448-1,1-1h7c0.553,0,1,0.447,1,1V11z M7.5,6h-1C6.224,6,6,6.224,6,6.5S6.224,7,6.5,7H7v3.5C7,10.776,7.224,11,7.5,11
	S8,10.776,8,10.5v-4C8,6.224,7.776,6,7.5,6z"/>
</svg>
