<?xml version="1.0" encoding="utf-8"?>
<!-- Generator: Adobe Illustrator 16.0.4, SVG Export Plug-In . SVG Version: 6.00 Build 0)  -->
<!DOCTYPE svg PUBLIC "-//W3C//DTD SVG 1.1//EN" "http://www.w3.org/Graphics/SVG/1.1/DTD/svg11.dtd">
<svg version="1.1" id="Layer_1" xmlns="http://www.w3.org/2000/svg" xmlns:xlink="http://www.w3.org/1999/xlink" x="0px" y="0px"
	 width="16px" height="16px" viewBox="0 0 16 16" style="enable-background:new 0 0 16 16;" xml:space="preserve">
<g>
	<path style="fill:#8DB9CC;" d="M4,5h1V4H4V5z M6,5h1V4H6V5z M8,5h1V4H8V5z M10,4v1h1V4H10z M4,7h1V6H4V7z M6,7h1V6H6V7z M8,7h1V6H8
		V7z M10,7h1V6h-1V7z M4,9h1V8H4V9z M6,9h1V8H6V9z M8,9h1V8H8V9z M10,9h1V8h-1V9z M4,11h1v-1H4V11z M6,11h1v-1H6V11z M8,11h1v-1H8
		V11z M10,11h1v-1h-1V11z"/>
</g>
</svg>
