<?xml version="1.0" encoding="utf-8"?>
<!-- Generator: Adobe Illustrator 16.0.4, SVG Export Plug-In . SVG Version: 6.00 Build 0)  -->
<!DOCTYPE svg PUBLIC "-//W3C//DTD SVG 1.1//EN" "http://www.w3.org/Graphics/SVG/1.1/DTD/svg11.dtd">
<svg version="1.1" id="Layer_1" xmlns="http://www.w3.org/2000/svg" xmlns:xlink="http://www.w3.org/1999/xlink" x="0px" y="0px"
	 width="16px" height="16px" viewBox="0 0 16 16" style="enable-background:new 0 0 16 16;" xml:space="preserve">
<path d="M8,15c-1.625,0-3.125-0.5-4.25-1.5C4.875,11.375,7,9.75,9.25,9c1.125,2.5,1.5,4.25,1.625,5.375C10,14.75,9,15,8,15z
	 M12,13.75c-0.5-2.625-1.375-4.75-1.5-5c1.625-0.25,3-0.25,4.5,0C14.75,10.75,13.625,12.625,12,13.75z M1,7.5
	c2.625,0.25,4.375,0,7.25-0.875c0.25,0.5,0.5,1,0.625,1.375c-2.25,0.75-4.75,2.375-6.125,4.625C1.625,11.375,1,9.75,1,8
	C1,7.875,1,7.75,1,7.5z M13.75,4C14.5,5,14.875,6.25,15,7.625c-1.125-0.25-3.25-0.375-4.875,0c-0.25-0.5-0.375-0.875-0.75-1.375
	C10.875,5.5,12.5,5,13.75,4z M5.25,1.5c1,1.375,1.75,2.625,2.5,4.125c-1.125,0.375-4.25,1-6.5,0.75C1.75,4.125,3.25,2.375,5.25,1.5z
	 M8,1c2,0,3.75,0.875,5,2.125c-1.125,1-3.125,1.625-4.125,2C8,3.625,7.5,2.75,6.5,1.125C7,1.125,7.5,1,8,1z M8,0
	C3.625,0,0,3.625,0,8s3.625,8,8,8s8-3.625,8-8S12.375,0,8,0z"/>
</svg>
