<?xml version="1.0" encoding="utf-8"?>
<!-- Generator: Adobe Illustrator 16.0.4, SVG Export Plug-In . SVG Version: 6.00 Build 0)  -->
<!DOCTYPE svg PUBLIC "-//W3C//DTD SVG 1.1//EN" "http://www.w3.org/Graphics/SVG/1.1/DTD/svg11.dtd">
<svg version="1.1" id="Layer_4" xmlns="http://www.w3.org/2000/svg" xmlns:xlink="http://www.w3.org/1999/xlink" x="0px" y="0px"
	 width="16px" height="16px" viewBox="0 0 16 16" style="enable-background:new 0 0 16 16;" xml:space="preserve">
<path style="fill:#3C5A96;" d="M13,1H3C1.896,1,1,1.896,1,3v10c0,1.104,0.896,2,2,2h5.655V9.443H6.668V7.417h1.987
	c0,0,0-0.948,0-1.85c0-1.36,0.879-2.609,2.907-2.609c0.819,0,1.426,0.078,1.426,0.078l-0.046,1.893c0,0-0.62-0.005-1.297-0.005
	c-0.729,0-0.848,0.337-0.848,0.894c0,0.06,0,0.086,0,0.094v0.002v1.503H13l-0.097,2.027h-2.105V15H13c1.104,0,2-0.896,2-2V3
	C15,1.896,14.104,1,13,1z"/>
</svg>
