<?xml version="1.0" encoding="utf-8"?>
<!-- Generator: Adobe Illustrator 16.0.4, SVG Export Plug-In . SVG Version: 6.00 Build 0)  -->
<!DOCTYPE svg PUBLIC "-//W3C//DTD SVG 1.1//EN" "http://www.w3.org/Graphics/SVG/1.1/DTD/svg11.dtd">
<svg version="1.1" id="Layer_2" xmlns="http://www.w3.org/2000/svg" xmlns:xlink="http://www.w3.org/1999/xlink" x="0px" y="0px"
	 width="16px" height="16px" viewBox="0 0 16 16" style="enable-background:new 0 0 16 16;" xml:space="preserve">
<g>
	<g>
		<path style="fill:#F94877;" d="M11.545,2c0,0-5.518,0-6.401,0S4.001,2.664,4.001,3.083s0,10.169,0,10.169
			c0,0.471,0.253,0.646,0.396,0.703c0.143,0.058,0.535,0.106,0.771-0.165c0,0,3.021-3.506,3.073-3.558
			c0.079-0.079,0.079-0.079,0.157-0.079h1.956c0.821,0,0.953-0.586,1.039-0.931c0.047-0.191,0.415-2.057,0.735-3.673l0.405-2.021
			C12.737,2.536,12.485,2,11.545,2z M10.898,5.132c-0.032,0.151-0.223,0.311-0.399,0.311c-0.176,0-2.494,0-2.494,0
			c-0.28,0-0.481,0.191-0.481,0.472V6.22c0,0.28,0.202,0.479,0.483,0.479c0,0,1.918,0,2.117,0s0.393,0.217,0.35,0.429
			c-0.043,0.212-0.244,1.261-0.269,1.377c-0.024,0.116-0.157,0.314-0.393,0.314c-0.198,0-1.728,0-1.728,0
			c-0.314,0-0.41,0.041-0.62,0.302c-0.21,0.262-2.103,2.534-2.103,2.534c-0.019,0.021-0.038,0.016-0.038-0.009V3.711
			c0-0.179,0.156-0.389,0.389-0.389c0,0,4.937,0,5.137,0c0.189,0,0.366,0.178,0.317,0.41L10.898,5.132z"/>
	</g>
</g>
</svg>
