<?xml version="1.0" encoding="utf-8"?>
<!-- Generator: Adobe Illustrator 16.0.4, SVG Export Plug-In . SVG Version: 6.00 Build 0)  -->
<!DOCTYPE svg PUBLIC "-//W3C//DTD SVG 1.1//EN" "http://www.w3.org/Graphics/SVG/1.1/DTD/svg11.dtd">
<svg version="1.1" id="Layer_1" xmlns="http://www.w3.org/2000/svg" xmlns:xlink="http://www.w3.org/1999/xlink" x="0px" y="0px"
	 width="16px" height="16px" viewBox="0 0 16 16" style="enable-background:new 0 0 16 16;" xml:space="preserve">
<path style="fill-rule:evenodd;clip-rule:evenodd;fill:#181616;" d="M8,0C3.582,0,0,3.582,0,8c0,3.535,2.292,6.533,5.471,7.591
	c0.4,0.072,0.546-0.174,0.546-0.387c0-0.189-0.007-0.693-0.011-1.359c-2.226,0.482-2.695-1.072-2.695-1.072
	c-0.364-0.926-0.888-1.172-0.888-1.172c-0.727-0.496,0.055-0.486,0.055-0.486c0.803,0.057,1.226,0.824,1.226,0.824
	c0.713,1.223,1.873,0.871,2.328,0.666c0.073-0.518,0.279-0.869,0.508-1.07c-1.776-0.201-3.644-0.889-3.644-3.954
	c0-0.873,0.312-1.587,0.824-2.146C3.637,5.232,3.362,4.419,3.797,3.318c0,0,0.672-0.215,2.2,0.82C6.636,3.96,7.32,3.872,8,3.869
	C8.68,3.872,9.364,3.96,10.003,4.138c1.527-1.035,2.198-0.82,2.198-0.82c0.437,1.101,0.162,1.915,0.08,2.117
	c0.512,0.559,0.821,1.273,0.821,2.146c0,3.073-1.87,3.75-3.652,3.948c0.287,0.246,0.543,0.734,0.543,1.482
	c0,1.068-0.01,1.932-0.01,2.193c0,0.215,0.144,0.463,0.55,0.385C13.71,14.529,16,11.533,16,8C16,3.582,12.418,0,8,0z"/>
</svg>
