<?xml version="1.0" encoding="utf-8"?>
<!-- Generator: Adobe Illustrator 19.1.0, SVG Export Plug-In . SVG Version: 6.00 Build 0)  -->
<svg version="1.1" id="Layer_1" xmlns="http://www.w3.org/2000/svg" xmlns:xlink="http://www.w3.org/1999/xlink" x="0px" y="0px"
	 viewBox="0 0 16 16" enable-background="new 0 0 16 16" xml:space="preserve">
<path d="M6,7.5v1.2h2c-0.1,0.5-0.6,1.5-2,1.5c-1.2,0-2.2-1-2.2-2.2s1-2.2,2.2-2.2c0.7,0,1.1,0.3,1.4,0.5l0.9-0.9
	C7.7,4.8,6.9,4.5,6,4.5C4.1,4.5,2.5,6.1,2.5,8s1.6,3.5,3.5,3.5c2,0,3.4-1.4,3.4-3.4c0-0.3-0.1-0.4-0.1-0.6H6z M13,7V6h-1v1h-1v1h1v1
	h1V8h1V7H13z"/>
</svg>
