<?xml version="1.0" encoding="utf-8"?>
<!-- Generator: Adobe Illustrator 16.0.4, SVG Export Plug-In . SVG Version: 6.00 Build 0)  -->
<!DOCTYPE svg PUBLIC "-//W3C//DTD SVG 1.1//EN" "http://www.w3.org/Graphics/SVG/1.1/DTD/svg11.dtd">
<svg version="1.1" xmlns="http://www.w3.org/2000/svg" xmlns:xlink="http://www.w3.org/1999/xlink" x="0px" y="0px" width="16px"
	 height="16px" viewBox="0 0 16 16" style="enable-background:new 0 0 16 16;" xml:space="preserve">
<g id="Layer_4">
</g>
<g id="Layer_5">
	<g>
		<path style="fill:#2F3490;" d="M4.468,11.546c-0.377-0.367-0.682-0.683-0.682-1.237c0-0.329,0.105-0.643,0.252-0.924
			c-0.15,0.011-0.302,0.019-0.46,0.019C2.482,9.403,1.61,9.028,1,8.417v3.788c0.728-0.401,1.612-0.651,2.607-0.651
			C3.908,11.554,4.183,11.546,4.468,11.546z"/>
		<path style="fill:#2F3490;" d="M4.494,8.679c1.277,0.038,2.013-1.042,1.792-2.72C6.066,4.28,4.973,2.903,3.695,2.865
			C2.417,2.827,1.56,4.111,1.781,5.79C2.001,7.468,3.216,8.641,4.494,8.679z"/>
		<path style="fill:#2F3490;" d="M7.543,14.298C7.333,13.479,6.5,13.03,5.466,12.312c-0.376-0.122-0.79-0.193-1.234-0.198
			c-1.353-0.015-2.551,0.603-3.136,1.468C1.346,14.4,2.099,15,3,15h4.596c0.003-0.063,0.008-0.126,0.008-0.19
			C7.604,14.635,7.582,14.464,7.543,14.298z"/>
		<path style="fill:#2F3490;" d="M15,4V3c0-1.104-0.896-2-2-2H3C1.896,1,1,1.896,1,3v0.51c0.814-0.848,2.047-1.417,3.409-1.417
			c1.24,0,4.742,0,4.742,0L8.091,3.206H6.846c0.878,0.503,1.345,1.54,1.345,2.682c0,1.048-0.581,1.893-1.401,2.534
			C5.99,9.046,5.838,9.309,5.838,9.84c0,0.454,0.957,1.13,1.396,1.46c1.531,1.148,1.841,1.871,1.841,3.308
			c0,0.131-0.013,0.262-0.033,0.393H13c1.104,0,2-0.896,2-2V5h-2v2h-1V5h-2V4h2V2h1v2H15z"/>
	</g>
</g>
</svg>
