<?xml version="1.0" encoding="utf-8"?>
<!-- Generator: Adobe Illustrator 19.1.0, SVG Export Plug-In . SVG Version: 6.00 Build 0)  -->
<svg version="1.1" id="Layer_1" xmlns="http://www.w3.org/2000/svg" xmlns:xlink="http://www.w3.org/1999/xlink" x="0px" y="0px"
	 viewBox="0 0 16 16" style="enable-background:new 0 0 16 16;" xml:space="preserve">
<path d="M5.7,7v1.6h2.6c-0.1,0.6-0.8,1.9-2.6,1.9c-1.6,0-2.9-1.3-2.9-2.9s1.3-2.9,2.9-2.9c1,0,1.5,0.4,1.8,0.6l1.2-1.2
	c-0.7-0.8-1.8-1.2-3-1.2c-2.4,0-4.6,2.1-4.6,4.6s2.1,4.6,4.6,4.6c2.6,0,4.4-1.8,4.4-4.4C10.1,7.3,10,7,10,7C10,7,5.7,7,5.7,7z M13,7
	V6h-1v1h-1v1h1v1h1V8h1V7H13z"/>
</svg>
