<?xml version="1.0" encoding="utf-8"?>
<!-- Generator: Adobe Illustrator 16.0.4, SVG Export Plug-In . SVG Version: 6.00 Build 0)  -->
<!DOCTYPE svg PUBLIC "-//W3C//DTD SVG 1.1//EN" "http://www.w3.org/Graphics/SVG/1.1/DTD/svg11.dtd">
<svg version="1.1" xmlns="http://www.w3.org/2000/svg" xmlns:xlink="http://www.w3.org/1999/xlink" x="0px" y="0px" width="16px"
	 height="16px" viewBox="0 0 16 16" style="enable-background:new 0 0 16 16;" xml:space="preserve">
<g id="Layer_2">
</g>
<g id="Layer_3">
</g>
<g id="Layer_4">
	<g>
		<path style="fill:#B91D2F;" d="M8,11c1.656,0,3-1.344,3-3c0-0.155-0.019-0.305-0.044-0.452l-3.408,3.408
			C7.695,10.981,7.845,11,8,11z"/>
		<path style="fill:#B91D2F;" d="M13.252,5.252l-1.061,1.061L13.879,8l-2.907,2.908c-0.79,0.807-1.846,1.251-2.971,1.251
			c-0.484,0-0.947-0.105-1.39-0.266l-1.149,1.148C6.227,13.43,7.084,13.659,8,13.659c1.583,0,3.015-0.652,4.042-1.701L16,8
			L13.252,5.252z"/>
		<path style="fill:#B91D2F;" d="M12.547,2.546L11.5,3.593C10.535,2.823,9.331,2.34,8,2.34c-1.585,0-3.016,0.653-4.043,1.703L0,8h0
			l3.546,3.546l-1,1.001l1.007,1.006l9.999-9.999L12.547,2.546z M7,8C6.447,8,6,7.552,6,7s0.447-1,1-1c0.552,0,1,0.448,1,1
			S7.552,8,7,8z M9.603,5.49C9.139,5.189,8.596,5,8,5C6.344,5,5,6.343,5,8c0,0.596,0.189,1.139,0.491,1.604l-0.883,0.883L2.122,8
			l2.907-2.907C5.819,4.285,6.874,3.84,8,3.84c0.889,0,1.72,0.302,2.429,0.824L9.603,5.49z"/>
	</g>
</g>
</svg>
