<?xml version="1.0" encoding="utf-8"?>
<!-- Generator: Adobe Illustrator 20.1.0, SVG Export Plug-In . SVG Version: 6.00 Build 0)  -->
<svg version="1.1" id="Layer_1" xmlns="http://www.w3.org/2000/svg" xmlns:xlink="http://www.w3.org/1999/xlink" x="0px" y="0px"
	 viewBox="0 0 16 16" style="enable-background:new 0 0 16 16;" xml:space="preserve">
<g id="Layer_4">
</g>
<g id="Layer_5">
</g>
<g id="Layer_6">
</g>
<g>
	<path d="M8,2.3c1.9,0,2.1,0,2.8,0c0.7,0,1.1,0.1,1.3,0.2c0.3,0.1,0.6,0.3,0.8,0.5c0.2,0.2,0.4,0.5,0.5,0.8c0.1,0.2,0.2,0.6,0.2,1.3
		c0,0.7,0,1,0,2.8s0,2.1,0,2.8c0,0.7-0.1,1.1-0.2,1.3c-0.1,0.3-0.3,0.6-0.5,0.8c-0.2,0.2-0.5,0.4-0.8,0.5c-0.2,0.1-0.6,0.2-1.3,0.2
		c-0.7,0-1,0-2.8,0s-2.1,0-2.8,0c-0.7,0-1.1-0.1-1.3-0.2c-0.3-0.1-0.6-0.3-0.8-0.5c-0.2-0.2-0.4-0.5-0.5-0.8
		c-0.1-0.2-0.2-0.6-0.2-1.3c0-0.7,0-1,0-2.8s0-2.1,0-2.8c0-0.7,0.1-1.1,0.2-1.3c0.1-0.3,0.3-0.6,0.5-0.8c0.2-0.2,0.5-0.4,0.8-0.5
		c0.2-0.1,0.6-0.2,1.3-0.2C5.9,2.3,6.1,2.3,8,2.3 M8,1C6.1,1,5.9,1,5.1,1c-0.7,0-1.3,0.2-1.7,0.3C3,1.5,2.6,1.8,2.2,2.2
		C1.8,2.6,1.5,3,1.4,3.4C1.2,3.9,1.1,4.4,1,5.1c0,0.7,0,1,0,2.9c0,1.9,0,2.1,0,2.9c0,0.7,0.2,1.3,0.3,1.7c0.2,0.5,0.4,0.9,0.8,1.2
		c0.4,0.4,0.8,0.6,1.2,0.8c0.4,0.2,1,0.3,1.7,0.3c0.7,0,1,0,2.9,0s2.1,0,2.9,0c0.7,0,1.3-0.2,1.7-0.3c0.5-0.2,0.9-0.4,1.2-0.8
		c0.4-0.4,0.6-0.8,0.8-1.2c0.2-0.4,0.3-1,0.3-1.7c0-0.7,0-1,0-2.9s0-2.1,0-2.9c0-0.7-0.2-1.3-0.3-1.7c-0.2-0.5-0.4-0.9-0.8-1.2
		c-0.4-0.4-0.8-0.6-1.2-0.8c-0.4-0.2-1-0.3-1.7-0.3C10.1,1,9.9,1,8,1L8,1z"/>
	<path d="M8,4.4C6,4.4,4.4,6,4.4,8S6,11.6,8,11.6S11.6,10,11.6,8S10,4.4,8,4.4z M8,10.3c-1.3,0-2.3-1-2.3-2.3s1-2.3,2.3-2.3
		c1.3,0,2.3,1,2.3,2.3S9.3,10.3,8,10.3z"/>
	<circle cx="11.7" cy="4.3" r="0.8"/>
</g>
</svg>
