<?xml version="1.0" encoding="utf-8"?>
<!-- Generator: Adobe Illustrator 16.0.4, SVG Export Plug-In . SVG Version: 6.00 Build 0)  -->
<!DOCTYPE svg PUBLIC "-//W3C//DTD SVG 1.1//EN" "http://www.w3.org/Graphics/SVG/1.1/DTD/svg11.dtd">
<svg version="1.1" xmlns="http://www.w3.org/2000/svg" xmlns:xlink="http://www.w3.org/1999/xlink" x="0px" y="0px" width="16px"
	 height="16px" viewBox="0 0 16 16" style="enable-background:new 0 0 16 16;" xml:space="preserve">
<g id="Layer_4">
</g>
<g id="Layer_5">
</g>
<g id="Layer_6">
</g>
<g id="Layer_8">
	<path style="fill:#96B7EA;" d="M13,1H3C1.896,1,1,1.896,1,3v10c0,1.104,0.896,2,2,2h10c1.104,0,2-0.896,2-2V3
		C15,1.896,14.104,1,13,1z M8,5c1.656,0,3,1.343,3,3c0,1.656-1.344,3-3,3c-1.657,0-3-1.344-3-3C5,6.343,6.343,5,8,5z M14,13
		c0,0.553-0.447,1-1,1H3c-0.552,0-1-0.447-1-1V7h2.142C4.058,7.321,4,7.652,4,8c0,2.209,1.791,4,4,4s4-1.791,4-4
		c0-0.348-0.059-0.679-0.142-1H14V13z M14,4c0,0.552-0.447,1-1,1h-1c-0.553,0-1-0.448-1-1V3c0-0.552,0.447-1,1-1h1
		c0.553,0,1,0.448,1,1V4z"/>
</g>
</svg>
