<?xml version="1.0" encoding="utf-8"?>
<!-- Generator: Adobe Illustrator 16.0.4, SVG Export Plug-In . SVG Version: 6.00 Build 0)  -->
<!DOCTYPE svg PUBLIC "-//W3C//DTD SVG 1.1//EN" "http://www.w3.org/Graphics/SVG/1.1/DTD/svg11.dtd">
<svg version="1.1" id="Layer_3" xmlns="http://www.w3.org/2000/svg" xmlns:xlink="http://www.w3.org/1999/xlink" x="0px" y="0px"
	 width="16px" height="16px" viewBox="0 0 16 16" style="enable-background:new 0 0 16 16;" xml:space="preserve">
<g>
	<path style="fill:#231F20;" d="M8.5,2C7.119,2,6,3.119,6,4.5v3c0,1.025,0.618,1.903,1.5,2.289V8.61C7.195,8.335,7,7.941,7,7.5v-3
		C7,3.673,7.673,3,8.5,3S10,3.673,10,4.5v3c0,0.441-0.195,0.835-0.5,1.11v1.179C10.383,9.403,11,8.525,11,7.5v-3
		C11,3.119,9.881,2,8.5,2z"/>
</g>
<path style="fill:#231F20;" d="M7.5,5.211V6.39C7.805,6.665,8,7.059,8,7.5v3C8,11.327,7.327,12,6.5,12S5,11.327,5,10.5v-3
	c0-0.441,0.195-0.835,0.5-1.11V5.211C4.618,5.597,4,6.475,4,7.5v3C4,11.881,5.119,13,6.5,13S9,11.881,9,10.5v-3
	C9,6.475,8.382,5.597,7.5,5.211z"/>
</svg>
