<?xml version="1.0" encoding="utf-8"?>
<!-- Generator: Adobe Illustrator 16.0.4, SVG Export Plug-In . SVG Version: 6.00 Build 0)  -->
<!DOCTYPE svg PUBLIC "-//W3C//DTD SVG 1.1//EN" "http://www.w3.org/Graphics/SVG/1.1/DTD/svg11.dtd">
<svg version="1.1" id="Layer_1" xmlns="http://www.w3.org/2000/svg" xmlns:xlink="http://www.w3.org/1999/xlink" x="0px" y="0px"
	 width="16px" height="16px" viewBox="0 0 16 16" style="enable-background:new 0 0 16 16;" xml:space="preserve">
<path style="fill:#6F80BC;" d="M13,1H3C1.896,1,1,1.896,1,3v10c0,1.104,0.896,2,2,2h10c1.104,0,2-0.896,2-2V3
	C15,1.896,14.104,1,13,1z M5.181,13H3.122V6.805h2.059V13z M4.151,5.959H4.138C3.447,5.959,3,5.483,3,4.889
	c0-0.607,0.46-1.07,1.165-1.07c0.704,0,1.138,0.463,1.151,1.07C5.316,5.483,4.869,5.959,4.151,5.959z M12.605,13h-2.059V9.686
	c0-0.832-0.297-1.4-1.043-1.4c-0.569,0-0.908,0.383-1.057,0.753C8.393,9.17,8.379,9.355,8.379,9.54V13H6.32c0,0,0.027-5.614,0-6.195
	h2.059v0.878c0.273-0.422,0.763-1.023,1.855-1.023c1.355,0,2.371,0.886,2.371,2.788V13z"/>
</svg>
