<?xml version="1.0" encoding="utf-8"?>
<!-- Generator: Adobe Illustrator 16.0.4, SVG Export Plug-In . SVG Version: 6.00 Build 0)  -->
<!DOCTYPE svg PUBLIC "-//W3C//DTD SVG 1.1//EN" "http://www.w3.org/Graphics/SVG/1.1/DTD/svg11.dtd">
<svg version="1.1" id="Layer_2" xmlns="http://www.w3.org/2000/svg" xmlns:xlink="http://www.w3.org/1999/xlink" x="0px" y="0px"
	 width="16px" height="16px" viewBox="0 0 16 16" style="enable-background:new 0 0 16 16;" xml:space="preserve">
<path style="fill:#231F20;" d="M12,7V6c0-2.209-1.791-4-4-4S4,3.791,4,6v1C3.448,7,3,7.448,3,8v5c0,0.553,0.448,1,1,1h8
	c0.553,0,1-0.447,1-1V8C13,7.448,12.553,7,12,7z M6,7V6c0-1.104,0.896-2,2-2s2,0.896,2,2v1H6z"/>
</svg>
