<?xml version="1.0" encoding="utf-8"?>
<!-- Generator: Adobe Illustrator 16.0.4, SVG Export Plug-In . SVG Version: 6.00 Build 0)  -->
<!DOCTYPE svg PUBLIC "-//W3C//DTD SVG 1.1//EN" "http://www.w3.org/Graphics/SVG/1.1/DTD/svg11.dtd">
<svg version="1.1" id="Layer_1" xmlns="http://www.w3.org/2000/svg" xmlns:xlink="http://www.w3.org/1999/xlink" x="0px" y="0px"
	 width="16px" height="16px" viewBox="0 0 16 16" style="enable-background:new 0 0 16 16;" xml:space="preserve">
<path style="fill:#808080;" d="M8.001,9C8.83,9,9.5,8.328,9.5,7.5v-4C9.5,2.673,8.83,2,8.001,2C7.173,2,6.5,2.673,6.5,3.5v4
	C6.5,8.328,7.173,9,8.001,9z M10.949,8C10.711,9.418,9.486,10.5,8,10.5c-1.484,0-2.71-1.082-2.949-2.5h-1.5
	C3.765,9.91,5.165,11.453,7,11.875V14h2v-2.125C10.836,11.453,12.235,9.91,12.449,8H10.949z"/>
</svg>
