<?xml version="1.0" encoding="utf-8"?>
<!-- Generator: Adobe Illustrator 16.0.4, SVG Export Plug-In . SVG Version: 6.00 Build 0)  -->
<!DOCTYPE svg PUBLIC "-//W3C//DTD SVG 1.1//EN" "http://www.w3.org/Graphics/SVG/1.1/DTD/svg11.dtd">
<svg version="1.1" id="Layer_1" xmlns="http://www.w3.org/2000/svg" xmlns:xlink="http://www.w3.org/1999/xlink" x="0px" y="0px"
	 width="16px" height="16px" viewBox="0 0 16 16" style="enable-background:new 0 0 16 16;" xml:space="preserve">
<path style="fill:#C9232D;" d="M8.384,0C3.698,0,1.336,3.358,1.336,6.16c0,1.696,0.642,3.206,2.019,3.766
	c0.226,0.093,0.428,0.005,0.494-0.245C3.894,9.507,4.003,9.07,4.05,8.89c0.065-0.248,0.041-0.335-0.143-0.552
	c-0.396-0.468-0.65-1.073-0.65-1.933c0-2.492,1.864-4.723,4.854-4.723c2.647,0,4.103,1.618,4.103,3.779
	c0,2.843-1.257,5.242-3.126,5.242c-1.031,0-1.803-0.853-1.556-1.897c0.295-1.25,0.871-2.599,0.871-3.5c0-0.807-0.433-1.48-1.33-1.48
	c-1.054,0-1.902,1.092-1.902,2.553c0,0.931,0.315,1.561,0.315,1.561s-1.079,4.573-1.268,5.373c-0.177,0.749-0.2,1.575-0.172,2.265
	L5.21,16c0.374-0.591,0.783-1.351,0.993-2.111c0.122-0.439,0.694-2.712,0.694-2.712c0.343,0.654,1.344,1.23,2.409,1.23
	c3.169,0,5.32-2.891,5.32-6.759C14.626,2.724,12.147,0,8.384,0z"/>
</svg>
