<?xml version="1.0" encoding="utf-8"?>
<!-- Generator: Adobe Illustrator 16.0.4, SVG Export Plug-In . SVG Version: 6.00 Build 0)  -->
<!DOCTYPE svg PUBLIC "-//W3C//DTD SVG 1.1//EN" "http://www.w3.org/Graphics/SVG/1.1/DTD/svg11.dtd">
<svg version="1.1" id="Layer_1" xmlns="http://www.w3.org/2000/svg" xmlns:xlink="http://www.w3.org/1999/xlink" x="0px" y="0px"
	 width="16px" height="16px" viewBox="0 0 16 16" style="enable-background:new 0 0 16 16;" xml:space="preserve">
<g>
	<path style="fill:#C9232D;" d="M8,0C3.582,0,0,3.582,0,8c0,3.275,1.97,6.091,4.789,7.328c-0.022-0.56-0.004-1.229,0.14-1.837
		c0.153-0.649,1.029-4.359,1.029-4.359S5.702,8.621,5.702,7.866c0-1.186,0.688-2.071,1.543-2.071c0.728,0,1.079,0.546,1.079,1.201
		c0,0.731-0.467,1.826-0.707,2.839c-0.2,0.848,0.426,1.54,1.263,1.54c1.517,0,2.536-1.946,2.536-4.253
		c0-1.753-1.181-3.066-3.329-3.066c-2.426,0-3.938,1.81-3.938,3.832c0,0.697,0.206,1.188,0.527,1.568
		c0.148,0.176,0.169,0.246,0.116,0.447c-0.039,0.146-0.127,0.501-0.164,0.642c-0.053,0.203-0.217,0.274-0.4,0.199
		C3.11,10.289,2.59,9.064,2.59,7.688c0-2.273,1.917-4.998,5.718-4.998c3.054,0,5.064,2.21,5.064,4.583
		c0,3.138-1.745,5.483-4.316,5.483c-0.864,0-1.676-0.467-1.955-0.998c0,0-0.464,1.844-0.563,2.2
		c-0.17,0.617-0.502,1.233-0.805,1.713C6.453,15.885,7.212,16,8,16c4.419,0,8-3.581,8-8C16,3.582,12.419,0,8,0z"/>
</g>
</svg>
