<?xml version="1.0" encoding="utf-8"?>
<!-- Generator: Adobe Illustrator 16.0.4, SVG Export Plug-In . SVG Version: 6.00 Build 0)  -->
<!DOCTYPE svg PUBLIC "-//W3C//DTD SVG 1.1//EN" "http://www.w3.org/Graphics/SVG/1.1/DTD/svg11.dtd">
<svg version="1.1" id="Layer_3" xmlns="http://www.w3.org/2000/svg" xmlns:xlink="http://www.w3.org/1999/xlink" x="0px" y="0px"
	 width="16px" height="16px" viewBox="0 0 16 16" style="enable-background:new 0 0 16 16;" xml:space="preserve">
<path style="opacity:0.5;fill:#3EA7E2;" d="M12,2H4C2.896,2,2,2.896,2,4v3c0,3.313,2.687,6,6,6s6-2.687,6-6V4
	C14,2.896,13.104,2,12,2z M11.707,6.707L8.879,9.535L8.846,9.502C8.671,9.794,8.365,10,8,10S7.329,9.794,7.154,9.502L7.121,9.535
	L4.293,6.707c-0.391-0.391-0.391-1.024,0-1.414c0.39-0.391,1.023-0.391,1.414,0L8,7.586l2.293-2.293
	c0.391-0.391,1.023-0.391,1.414,0C12.098,5.683,12.098,6.316,11.707,6.707z"/>
</svg>
