<?xml version="1.0" encoding="utf-8"?>
<!-- Generator: Adobe Illustrator 16.0.4, SVG Export Plug-In . SVG Version: 6.00 Build 0)  -->
<!DOCTYPE svg PUBLIC "-//W3C//DTD SVG 1.1//EN" "http://www.w3.org/Graphics/SVG/1.1/DTD/svg11.dtd">
<svg version="1.1" id="Layer_2" xmlns="http://www.w3.org/2000/svg" xmlns:xlink="http://www.w3.org/1999/xlink" x="0px" y="0px"
	 width="16px" height="16px" viewBox="0 0 16 16" style="enable-background:new 0 0 16 16;" xml:space="preserve">
<path style="fill:#343433;" d="M8,1C4.141,1,1,4.141,1,8c0,3.86,3.141,7,7,7c3.86,0,7-3.14,7-7C15,4.141,11.86,1,8,1z M8.694,2.176
	c1.653,0.059,3.26,0.876,4.338,2.195c0.198,0.234,0.379,0.485,0.542,0.747C12.575,3.864,11.035,3.06,9.308,3.06
	c-1.65,0-3.127,0.733-4.127,1.892C5.177,4.954,5.174,4.959,5.17,4.962C5.134,4.999,5.099,5.036,5.063,5.073
	C5.056,5.081,5.049,5.088,5.041,5.096C4.333,5.863,3.898,6.887,3.898,8.011c0,2.371,1.929,4.3,4.3,4.3
	c0.399,0,0.786-0.057,1.154-0.159c-1.294,0.587-2.892,0.523-4.148-0.227c-1.289-0.762-2.22-2.178-2.403-3.719
	c-0.206-1.543,0.338-3.183,1.482-4.31C5.406,2.75,7.044,2.094,8.694,2.176z M11.055,8.139c-0.034-1.417-1.111-2.722-2.481-2.922
	c-1.349-0.24-2.742,0.6-3.116,1.863c-0.19,0.618-0.133,1.293,0.14,1.857c0.273,0.56,0.747,1.016,1.326,1.231
	c1.165,0.458,2.541-0.189,2.921-1.304c0.415-1.106-0.277-2.396-1.358-2.643C7.423,5.936,6.274,6.751,6.244,7.791
	C6.208,8.292,6.421,8.786,6.771,9.106c0.351,0.333,0.861,0.467,1.31,0.37c0.452-0.089,0.84-0.39,1.028-0.794
	c0.189-0.403,0.153-0.879-0.061-1.237c-0.208-0.359-0.601-0.604-1-0.617C7.648,6.808,7.264,7,7.042,7.303
	C6.814,7.608,6.776,8.021,6.916,8.345c0.003,0.008,0.007,0.015,0.011,0.021c0.135,0.444,0.542,0.77,1.027,0.782
	c-0.23,0.027-0.472-0.013-0.679-0.128C6.949,8.849,6.709,8.497,6.65,8.117C6.592,7.736,6.713,7.321,6.999,7.04
	c0.279-0.289,0.692-0.456,1.106-0.424c0.415,0.028,0.811,0.245,1.062,0.601c0.255,0.347,0.357,0.809,0.268,1.241
	C9.354,8.892,9.065,9.28,8.67,9.518c-0.39,0.238-0.885,0.318-1.34,0.2C6.875,9.605,6.472,9.294,6.221,8.874
	C5.97,8.459,5.879,7.939,5.983,7.454c0.1-0.49,0.401-0.925,0.823-1.227C7.641,5.609,8.945,5.701,9.68,6.515
	c0.774,0.77,0.929,2.119,0.284,3.06c-0.614,0.963-1.918,1.46-3.062,1.116C5.755,10.377,4.863,9.236,4.78,7.994
	C4.731,7.375,4.871,6.736,5.188,6.19c0.313-0.545,0.81-1.003,1.382-1.304c1.148-0.616,2.671-0.52,3.744,0.297
	c0.876,0.647,1.458,1.694,1.565,2.806c0,0.008,0.001,0.015,0.001,0.021c0,2.03-1.651,3.682-3.682,3.682
	c-0.481,0-0.941-0.094-1.363-0.263c0.606,0.145,1.244,0.123,1.829-0.055c0.704-0.213,1.326-0.649,1.76-1.226
	C10.857,9.568,11.089,8.845,11.055,8.139z M8,14.379c-3.517,0-6.378-2.861-6.378-6.379c0-3.352,2.599-6.106,5.888-6.357
	C7.417,1.654,7.324,1.668,7.232,1.685C5.381,2.002,3.72,3.159,2.808,4.771c-0.916,1.611-0.974,3.633-0.21,5.269
	c0.739,1.638,2.277,2.909,4.043,3.187c1.748,0.308,3.593-0.338,4.751-1.611c1.203-1.258,1.588-3.17,1.04-4.757
	c-0.408-1.267-1.383-2.332-2.59-2.832c2.392,0.416,4.322,2.255,4.322,4.747c0,0.703-0.169,1.414-0.46,2.076
	C12.656,12.939,10.494,14.379,8,14.379z"/>
</svg>
