<?xml version="1.0" encoding="utf-8"?>
<!-- Generator: Adobe Illustrator 16.0.4, SVG Export Plug-In . SVG Version: 6.00 Build 0)  -->
<!DOCTYPE svg PUBLIC "-//W3C//DTD SVG 1.1//EN" "http://www.w3.org/Graphics/SVG/1.1/DTD/svg11.dtd">
<svg version="1.1" id="Layer_1" xmlns="http://www.w3.org/2000/svg" xmlns:xlink="http://www.w3.org/1999/xlink" x="0px" y="0px"
	 width="16px" height="16px" viewBox="0 0 16 16" style="enable-background:new 0 0 16 16;" xml:space="preserve">
<path d="M9.562,9.938c-0.297,0.297-0.805,0.438-1.57,0.438c-0.75,0-1.258-0.141-1.555-0.438c-0.156-0.156-0.406-0.156-0.562,0
	s-0.156,0.414,0,0.57c0.445,0.445,1.141,0.672,2.133,0.672c0.977,0,1.672-0.227,2.117-0.672c0.156-0.156,0.156-0.414,0-0.57
	S9.719,9.781,9.562,9.938z M6.992,8.328c0-0.484-0.391-0.875-0.875-0.875c-0.477,0-0.867,0.391-0.867,0.875
	c0,0.477,0.391,0.875,0.867,0.875C6.602,9.203,6.992,8.805,6.992,8.328z M9.883,7.453c-0.484,0-0.875,0.391-0.875,0.875
	c0,0.477,0.391,0.875,0.875,0.875s0.875-0.398,0.875-0.875C10.758,7.844,10.367,7.453,9.883,7.453z M13.266,7.492
	c-0.25-0.398-0.602-0.766-1.023-1.078c0.141-0.18,0.344-0.305,0.594-0.305c0.422,0,0.766,0.344,0.766,0.766
	C13.602,7.133,13.461,7.352,13.266,7.492z M7.977,12.086c-2.727,0-4.945-1.383-4.945-3.086S5.25,5.914,7.977,5.914
	c2.719,0,4.938,1.383,4.938,3.094C12.914,10.703,10.695,12.086,7.977,12.086z M2.398,6.875c0-0.422,0.344-0.766,0.773-0.766
	c0.234,0,0.43,0.109,0.57,0.281c-0.43,0.312-0.781,0.672-1.031,1.07C2.523,7.328,2.398,7.117,2.398,6.875z M12.5,1.898
	c0.328,0,0.602,0.273,0.602,0.602S12.828,3.102,12.5,3.102S11.898,2.828,11.898,2.5S12.172,1.898,12.5,1.898z M14.398,6.875
	c0-0.867-0.703-1.57-1.562-1.57c-0.531,0-0.992,0.266-1.273,0.672C10.695,5.5,9.625,5.195,8.461,5.133l0.602-3.016l2.047,0.469
	c0.047,0.734,0.648,1.312,1.391,1.312c0.773,0,1.398-0.625,1.398-1.398S13.273,1.102,12.5,1.102c-0.516,0-0.969,0.289-1.211,0.703
	L8.844,1.242C8.742,1.219,8.633,1.234,8.539,1.297c-0.094,0.055-0.156,0.148-0.18,0.258l-0.719,3.57
	C6.43,5.172,5.32,5.477,4.422,5.953c-0.281-0.391-0.734-0.648-1.25-0.648c-0.867,0-1.57,0.703-1.57,1.57
	c0,0.562,0.305,1.047,0.758,1.32C2.281,8.461,2.234,8.727,2.234,9.008c0,2.141,2.578,3.883,5.742,3.883S13.711,11.148,13.711,9
	c0-0.266-0.039-0.523-0.109-0.773C14.07,7.953,14.398,7.461,14.398,6.875z"/>
</svg>
