<?xml version="1.0" encoding="utf-8"?>
<!-- Generator: Adobe Illustrator 16.0.4, SVG Export Plug-In . SVG Version: 6.00 Build 0)  -->
<!DOCTYPE svg PUBLIC "-//W3C//DTD SVG 1.1//EN" "http://www.w3.org/Graphics/SVG/1.1/DTD/svg11.dtd">
<svg version="1.1" id="Layer_1" xmlns="http://www.w3.org/2000/svg" xmlns:xlink="http://www.w3.org/1999/xlink" x="0px" y="0px"
	 width="16px" height="16px" viewBox="0 0 16 16" style="enable-background:new 0 0 16 16;" xml:space="preserve">
<path d="M14.506,9.484c0.101-0.453,0.153-0.927,0.153-1.412c0-3.635-2.947-6.583-6.583-6.583c-0.385,0-0.761,0.036-1.124,0.097
	C6.362,1.214,5.667,1,4.919,1C2.811,1,1.101,2.71,1.101,4.818c0,0.704,0.192,1.365,0.524,1.929C1.538,7.176,1.49,7.617,1.49,8.072
	c0,3.635,2.948,6.582,6.583,6.582c0.41,0,0.813-0.039,1.207-0.108C9.817,14.833,10.429,15,11.082,15
	c2.107,0,3.817-1.711,3.817-3.818C14.902,10.569,14.759,9.997,14.506,9.484z M11.454,11.218c-0.308,0.433-0.752,0.773-1.341,1.015
	c-0.575,0.24-1.268,0.361-2.055,0.361c-0.944,0-1.737-0.166-2.357-0.493c-0.441-0.24-0.81-0.564-1.084-0.962
	c-0.281-0.403-0.421-0.807-0.421-1.189c0-0.242,0.092-0.451,0.276-0.622c0.18-0.172,0.412-0.253,0.686-0.253
	c0.228,0,0.42,0.066,0.582,0.201c0.154,0.127,0.28,0.318,0.385,0.563c0.119,0.268,0.245,0.493,0.38,0.67
	c0.127,0.17,0.314,0.315,0.551,0.424c0.236,0.113,0.56,0.169,0.958,0.169c0.542,0,0.989-0.116,1.326-0.343
	c0.327-0.223,0.485-0.492,0.485-0.823c0-0.259-0.082-0.464-0.255-0.626C9.393,9.143,9.155,9.013,8.867,8.925
	C8.566,8.833,8.164,8.732,7.662,8.628C6.979,8.482,6.397,8.309,5.938,8.112C5.466,7.91,5.084,7.631,4.81,7.286
	C4.525,6.931,4.386,6.489,4.386,5.964c0-0.498,0.148-0.945,0.445-1.33c0.294-0.385,0.727-0.682,1.278-0.888
	c0.546-0.202,1.193-0.305,1.933-0.305c0.586,0,1.101,0.069,1.537,0.2c0.431,0.136,0.798,0.32,1.086,0.543
	c0.29,0.228,0.505,0.468,0.64,0.721c0.126,0.253,0.197,0.503,0.197,0.748c0,0.237-0.091,0.451-0.271,0.634
	c-0.18,0.188-0.406,0.285-0.679,0.285c-0.245,0-0.434-0.061-0.562-0.175c-0.123-0.109-0.251-0.28-0.396-0.525
	c-0.166-0.31-0.362-0.56-0.59-0.729c-0.22-0.167-0.591-0.255-1.098-0.255c-0.472,0-0.857,0.097-1.141,0.281
	c-0.276,0.18-0.408,0.385-0.408,0.629c0,0.148,0.044,0.276,0.131,0.385C6.581,6.296,6.711,6.397,6.882,6.48
	c0.175,0.087,0.35,0.158,0.53,0.206c0.183,0.053,0.49,0.127,0.91,0.224c0.533,0.113,1.024,0.24,1.457,0.38
	c0.437,0.14,0.817,0.315,1.123,0.516c0.316,0.206,0.565,0.468,0.744,0.783c0.179,0.316,0.267,0.704,0.267,1.159
	C11.912,10.291,11.758,10.784,11.454,11.218z"/>
</svg>
