<?xml version="1.0" encoding="utf-8"?>
<!-- Generator: Adobe Illustrator 16.0.3, SVG Export Plug-In . SVG Version: 6.00 Build 0)  -->
<!DOCTYPE svg PUBLIC "-//W3C//DTD SVG 1.1//EN" "http://www.w3.org/Graphics/SVG/1.1/DTD/svg11.dtd">
<svg version="1.1" id="Ebene_1" xmlns="http://www.w3.org/2000/svg" xmlns:xlink="http://www.w3.org/1999/xlink" x="0px" y="0px"
	 width="16px" height="16px" viewBox="0 0 16 16" enable-background="new 0 0 16 16" xml:space="preserve">
<g>
	<path fill-rule="evenodd" clip-rule="evenodd" fill="#FFFFFF" d="M0,0c5.334,0,10.666,0,16,0c0,5.333,0,10.667,0,16
		c-5.334,0-10.666,0-16,0C0,10.667,0,5.333,0,0z M9.176,15.201c0.035,0,0.061,0,0.084,0c1.92,0,3.842,0,5.762,0
		c0.111,0,0.131-0.021,0.131-0.136c0-4.714,0-9.429,0-14.144c0-0.117-0.02-0.138-0.137-0.138c-2.492,0-4.982,0.001-7.473-0.001
		c-0.359,0-0.711,0.037-1.059,0.127c-0.398,0.104-0.77,0.265-1.111,0.488C5.07,1.594,4.797,1.822,4.559,2.096
		C4.352,2.333,4.174,2.585,4.027,2.861C3.895,3.116,3.791,3.381,3.715,3.66C3.646,3.905,3.596,4.155,3.586,4.406
		C3.568,4.818,3.58,5.231,3.58,5.654c0.17-0.062,0.334-0.123,0.498-0.182c0.098-0.036,0.197-0.075,0.299-0.101
		c0.152-0.037,0.307-0.063,0.459-0.094c0.08-0.017,0.16-0.051,0.238-0.048C5.641,5.25,6.211,5.171,6.773,5.275
		C6.93,5.304,7.09,5.326,7.242,5.366c0.154,0.04,0.307,0.091,0.455,0.148c0.178,0.068,0.352,0.145,0.525,0.221
		C8.324,5.78,8.424,5.827,8.52,5.883c0.174,0.103,0.352,0.203,0.512,0.322C9.164,6.303,9.303,6.392,9.42,6.512
		c0.115,0.117,0.258,0.207,0.361,0.337c0.008,0.01,0.021,0.015,0.031,0.023C9.834,6.89,9.855,6.906,9.873,6.926
		c0.029,0.036,0.053,0.076,0.082,0.111c0.084,0.097,0.172,0.191,0.258,0.286c0.021,0.022,0.049,0.041,0.064,0.066
		c0.082,0.127,0.16,0.255,0.24,0.383c0.01,0.013,0.014,0.03,0.023,0.042c0.154,0.169,0.229,0.387,0.338,0.583
		c0.084,0.15,0.137,0.32,0.193,0.484c0.055,0.156,0.104,0.315,0.146,0.475c0.035,0.129,0.055,0.262,0.082,0.393
		c0.016,0.087,0.043,0.175,0.047,0.262c0.004,0.326,0.006,0.652,0,0.978c-0.004,0.201,0.014,0.402-0.027,0.605
		c-0.045,0.235-0.068,0.475-0.148,0.703c-0.055,0.156-0.111,0.311-0.172,0.465c-0.053,0.139-0.109,0.277-0.164,0.415
		c-0.031,0.077-0.059,0.157-0.102,0.227c-0.064,0.109-0.143,0.209-0.211,0.316c-0.057,0.086-0.104,0.178-0.16,0.264
		c-0.047,0.069-0.102,0.133-0.152,0.199c-0.025,0.035-0.047,0.074-0.078,0.105c-0.072,0.074-0.148,0.145-0.223,0.218
		c-0.016,0.016-0.02,0.042-0.033,0.059c-0.02,0.022-0.041,0.042-0.063,0.062c-0.023,0.021-0.049,0.041-0.072,0.063
		c-0.076,0.075-0.15,0.153-0.23,0.223c-0.102,0.089-0.211,0.173-0.314,0.259C9.191,15.175,9.188,15.183,9.176,15.201z M5.828,15.345
		c0,0.005,0,0.009,0,0.014c0.23-0.015,0.459-0.023,0.688-0.047c0.398-0.043,0.777-0.175,1.145-0.325
		c0.244-0.101,0.477-0.236,0.701-0.376c0.176-0.11,0.342-0.243,0.496-0.383c0.172-0.156,0.326-0.333,0.49-0.5
		c0.178-0.184,0.313-0.399,0.445-0.615c0.104-0.168,0.191-0.349,0.266-0.532c0.088-0.209,0.164-0.425,0.227-0.643
		c0.094-0.323,0.152-0.653,0.137-0.993c-0.006-0.151-0.004-0.304,0-0.455c0.006-0.239-0.029-0.473-0.08-0.705
		c-0.08-0.359-0.205-0.702-0.352-1.038C9.963,8.686,9.93,8.63,9.895,8.574c-0.1-0.17-0.189-0.349-0.307-0.507
		C9.445,7.874,9.285,7.692,9.119,7.518C8.994,7.386,8.85,7.274,8.713,7.155C8.498,6.966,8.258,6.814,8.006,6.683
		c-0.174-0.09-0.357-0.165-0.541-0.241C7.098,6.289,6.713,6.177,6.316,6.162C5.861,6.144,5.402,6.115,4.947,6.216
		C4.568,6.301,4.199,6.413,3.85,6.581c-0.256,0.123-0.508,0.256-0.73,0.436C2.941,7.161,2.762,7.303,2.594,7.456
		C2.486,7.554,2.391,7.667,2.299,7.782C2.176,7.938,2.051,8.096,1.945,8.265c-0.129,0.208-0.256,0.42-0.352,0.645
		C1.488,9.162,1.408,9.428,1.336,9.693c-0.053,0.188-0.088,0.383-0.102,0.577c-0.016,0.242,0,0.486-0.004,0.729
		c-0.006,0.245,0.027,0.484,0.08,0.721c0.08,0.358,0.205,0.703,0.355,1.036c0.07,0.155,0.18,0.291,0.256,0.444
		c0.107,0.214,0.27,0.387,0.414,0.574c0.098,0.128,0.227,0.231,0.346,0.344c0.229,0.217,0.471,0.414,0.748,0.57
		c0.215,0.121,0.42,0.257,0.66,0.329c0.182,0.055,0.355,0.132,0.539,0.185c0.285,0.083,0.578,0.147,0.879,0.143
		C5.613,15.343,5.721,15.345,5.828,15.345z"/>
	<path fill-rule="evenodd" clip-rule="evenodd" d="M9.176,15.201c0.012-0.018,0.016-0.025,0.021-0.03
		c0.104-0.086,0.213-0.169,0.314-0.259c0.08-0.07,0.154-0.148,0.23-0.223c0.023-0.022,0.049-0.042,0.072-0.063
		c0.021-0.02,0.043-0.039,0.063-0.062c0.014-0.017,0.018-0.043,0.033-0.059c0.074-0.073,0.15-0.144,0.223-0.218
		c0.031-0.031,0.053-0.07,0.078-0.105c0.051-0.066,0.105-0.13,0.152-0.199c0.057-0.086,0.104-0.178,0.16-0.264
		c0.068-0.107,0.146-0.208,0.211-0.316c0.043-0.07,0.07-0.15,0.102-0.227c0.055-0.138,0.111-0.276,0.164-0.415
		c0.061-0.154,0.117-0.31,0.172-0.465c0.08-0.228,0.104-0.468,0.148-0.703c0.041-0.203,0.023-0.404,0.027-0.605
		c0.006-0.326,0.004-0.652,0-0.978c-0.004-0.087-0.031-0.175-0.047-0.262c-0.027-0.131-0.047-0.264-0.082-0.393
		c-0.043-0.16-0.092-0.319-0.146-0.475c-0.057-0.164-0.109-0.333-0.193-0.484C10.77,8.2,10.695,7.982,10.541,7.813
		c-0.01-0.012-0.014-0.028-0.023-0.042c-0.08-0.128-0.158-0.256-0.24-0.383c-0.016-0.025-0.043-0.043-0.064-0.066
		c-0.086-0.095-0.174-0.189-0.258-0.286C9.926,7.002,9.902,6.962,9.873,6.926C9.855,6.906,9.834,6.89,9.813,6.872
		c-0.01-0.008-0.023-0.014-0.031-0.023c-0.104-0.13-0.246-0.22-0.361-0.337c-0.117-0.12-0.256-0.208-0.389-0.306
		c-0.16-0.12-0.338-0.22-0.512-0.322C8.424,5.827,8.324,5.78,8.223,5.735C8.049,5.659,7.875,5.582,7.697,5.514
		C7.549,5.458,7.396,5.406,7.242,5.366C7.09,5.326,6.93,5.304,6.773,5.275C6.211,5.171,5.641,5.25,5.074,5.229
		C4.996,5.227,4.916,5.261,4.836,5.278C4.684,5.309,4.529,5.335,4.377,5.372C4.275,5.397,4.176,5.437,4.078,5.473
		C3.914,5.531,3.75,5.592,3.58,5.654c0-0.423-0.012-0.836,0.006-1.248c0.01-0.251,0.061-0.501,0.129-0.747
		c0.076-0.278,0.18-0.544,0.313-0.798c0.146-0.276,0.324-0.529,0.531-0.765C4.797,1.822,5.07,1.594,5.373,1.397
		c0.342-0.224,0.713-0.384,1.111-0.488c0.348-0.091,0.699-0.128,1.059-0.127c2.49,0.003,4.98,0.001,7.473,0.001
		c0.117,0,0.137,0.021,0.137,0.138c0,4.714,0,9.429,0,14.144c0,0.115-0.02,0.136-0.131,0.136c-1.92,0-3.842,0-5.762,0
		C9.236,15.201,9.211,15.201,9.176,15.201z"/>
	<path fill-rule="evenodd" clip-rule="evenodd" d="M5.828,15.345c-0.107,0-0.215-0.001-0.32,0c-0.301,0.005-0.594-0.059-0.879-0.143
		c-0.184-0.053-0.357-0.13-0.539-0.185c-0.24-0.072-0.445-0.208-0.66-0.329c-0.277-0.156-0.52-0.353-0.748-0.57
		c-0.119-0.112-0.248-0.216-0.346-0.344c-0.145-0.187-0.307-0.36-0.414-0.574c-0.076-0.153-0.186-0.289-0.256-0.444
		c-0.15-0.333-0.275-0.678-0.355-1.036C1.258,11.483,1.225,11.244,1.23,11c0.004-0.243-0.012-0.487,0.004-0.729
		c0.014-0.194,0.049-0.389,0.102-0.577c0.072-0.265,0.152-0.531,0.258-0.784c0.096-0.225,0.223-0.437,0.352-0.645
		c0.105-0.169,0.23-0.327,0.354-0.483c0.092-0.115,0.188-0.228,0.295-0.326c0.168-0.153,0.348-0.295,0.525-0.439
		c0.223-0.18,0.475-0.313,0.73-0.436c0.35-0.167,0.719-0.28,1.098-0.364c0.455-0.102,0.914-0.072,1.369-0.055
		c0.396,0.015,0.781,0.127,1.148,0.281c0.184,0.076,0.367,0.15,0.541,0.241c0.252,0.131,0.492,0.283,0.707,0.472
		c0.137,0.12,0.281,0.231,0.406,0.363c0.166,0.174,0.326,0.356,0.469,0.549c0.117,0.158,0.207,0.337,0.307,0.507
		C9.93,8.63,9.963,8.686,9.99,8.746c0.146,0.336,0.271,0.679,0.352,1.038c0.051,0.232,0.086,0.466,0.08,0.705
		c-0.004,0.151-0.006,0.304,0,0.455c0.016,0.34-0.043,0.67-0.137,0.993c-0.063,0.218-0.139,0.434-0.227,0.643
		c-0.074,0.183-0.162,0.364-0.266,0.532c-0.133,0.216-0.268,0.431-0.445,0.615c-0.164,0.167-0.318,0.344-0.49,0.5
		c-0.154,0.141-0.32,0.273-0.496,0.383c-0.225,0.141-0.457,0.276-0.701,0.376c-0.367,0.15-0.746,0.282-1.145,0.325
		c-0.229,0.024-0.457,0.032-0.688,0.047C5.828,15.354,5.828,15.35,5.828,15.345z M7.336,10.747C7.34,9.92,6.672,9.234,5.828,9.233
		c-0.83-0.001-1.463,0.643-1.51,1.411c-0.061,0.961,0.705,1.625,1.508,1.623C6.652,12.265,7.34,11.598,7.336,10.747z"/>
	<path fill-rule="evenodd" clip-rule="evenodd" fill="#FFFFFF" d="M7.336,10.747c0.004,0.852-0.684,1.518-1.51,1.521
		c-0.803,0.002-1.568-0.662-1.508-1.623c0.047-0.768,0.68-1.412,1.51-1.411C6.672,9.234,7.34,9.92,7.336,10.747z"/>
</g>
</svg>
