<?xml version="1.0" encoding="utf-8"?>
<!-- Generator: Adobe Illustrator 16.0.4, SVG Export Plug-In . SVG Version: 6.00 Build 0)  -->
<!DOCTYPE svg PUBLIC "-//W3C//DTD SVG 1.1//EN" "http://www.w3.org/Graphics/SVG/1.1/DTD/svg11.dtd">
<svg version="1.1" id="Layer_1" xmlns="http://www.w3.org/2000/svg" xmlns:xlink="http://www.w3.org/1999/xlink" x="0px" y="0px"
	 width="16px" height="16px" viewBox="0 0 16 16" style="enable-background:new 0 0 16 16;" xml:space="preserve">
<path id="icon" style="fill:#231F20;" d="M8.635,6.371l0.82,0.375l1.222-0.358V5.555C10.634,4.137,9.454,3,8,3
	C6.551,3,5.375,4.129,5.323,5.539v3.806c0,0.344-0.284,0.623-0.635,0.623S4.053,9.688,4.053,9.345V7.731H2c0,0,0,1.616,0,1.634
	C2,10.821,3.201,12,4.683,12c1.468,0,2.659-1.158,2.679-2.597l0.003-3.758c0-0.345,0.285-0.624,0.635-0.624s0.635,0.279,0.635,0.624
	V6.371z M11.947,7.731v1.688c0,0.346-0.284,0.625-0.635,0.625c-0.352,0-0.636-0.279-0.636-0.625V7.764L9.455,8.122l-0.82-0.375V9.39
	C8.648,10.833,9.844,12,11.317,12C12.799,12,14,10.821,14,9.365c0-0.018,0-1.634,0-1.634H11.947z"/>
</svg>
