<?xml version="1.0" encoding="utf-8"?>
<!-- Generator: Adobe Illustrator 16.0.4, SVG Export Plug-In . SVG Version: 6.00 Build 0)  -->
<!DOCTYPE svg PUBLIC "-//W3C//DTD SVG 1.1//EN" "http://www.w3.org/Graphics/SVG/1.1/DTD/svg11.dtd">
<svg version="1.1" id="Layer_1" xmlns="http://www.w3.org/2000/svg" xmlns:xlink="http://www.w3.org/1999/xlink" x="0px" y="0px"
	 width="16px" height="16px" viewBox="0 0 16 16" style="enable-background:new 0 0 16 16;" xml:space="preserve">
<path style="fill:#A45656;" d="M5.5,8C5.224,8,5,8.224,5,8.5S5.224,9,5.5,9S6,8.776,6,8.5S5.776,8,5.5,8z M5.5,6
	C5.224,6,5,6.224,5,6.5S5.224,7,5.5,7S6,6.776,6,6.5S5.776,6,5.5,6z M5.5,10C5.224,10,5,10.224,5,10.5S5.224,11,5.5,11
	S6,10.776,6,10.5S5.776,10,5.5,10z M7,9h3V8H7V9z M7,11h3v-1H7V11z M10,3c0-0.553-0.447-1-1-1H6C5.448,2,5,2.447,5,3H3v10h9V3H10z
	 M6.5,3h2C8.776,3,9,3.224,9,3.5S8.776,4,8.5,4h-2C6.224,4,6,3.776,6,3.5S6.224,3,6.5,3z M11,12H4V4h1v1h5V4h1V12z M7,7h3V6H7V7z"/>
</svg>
