<?xml version="1.0" encoding="UTF-8" standalone="no"?>
<!-- Created with Inkscape (http://www.inkscape.org/) -->

<svg version='1.1' width='16' height='16' id='telegram' viewBox="0 0 16 16">
<g fill-rule="evenodd">
	<path d="m 16,8 c 0,4.41828 -3.581723,8 -7.9999996,8 C 3.581722,16 0,12.41828 0,8 0,3.58172 3.581722,0 8.0000004,0 12.418277,0 16,3.58172 16,8 Z
	M 9.7666214,9.82753 C 10.012744,9.15486 10.913951,6.5967 11.058646,5.92577 11.222247,5.16718 10.879762,5.09312 10.100813,5.34755 9.3218644,5.60198 7.3241954,6.3424 6.9879684,6.46174 6.6517404,6.58109 5.0148385,7.13124 4.6754665,7.2954 3.9822941,7.6672 4.3194944,8.23461 5.0944015,8.52923 c 2.3161089,1.11174 1.6584529,0.54521 2.6924759,2.60234 0.212799,0.52552 0.714565,1.42065 1.195136,0.74402 0.252635,-0.38484 0.591058,-1.51908 0.784608,-2.04806 z" />
</g>
</svg>
