<?xml version="1.0" encoding="utf-8"?>
<!-- Generator: Adobe Illustrator 16.0.4, SVG Export Plug-In . SVG Version: 6.00 Build 0)  -->
<!DOCTYPE svg PUBLIC "-//W3C//DTD SVG 1.1//EN" "http://www.w3.org/Graphics/SVG/1.1/DTD/svg11.dtd">
<svg version="1.1" id="Layer_1" xmlns="http://www.w3.org/2000/svg" xmlns:xlink="http://www.w3.org/1999/xlink" x="0px" y="0px"
	 width="16px" height="16px" viewBox="0 0 16 16" style="enable-background:new 0 0 16 16;" xml:space="preserve">
<g id="Shape_1">
	<g>
		<path style="fill:#BABDBC;" d="M12.959,2.001C11.02,1.939,9.704,3.023,9.016,5.257c0.355-0.15,0.701-0.228,1.037-0.228
			c0.712,0,1.025,0.397,0.942,1.189c-0.042,0.479-0.356,1.178-0.942,2.095C9.465,9.23,9.025,9.689,8.732,9.689
			c-0.377,0-0.723-0.706-1.037-2.12C7.589,7.154,7.401,6.094,7.129,4.389C6.877,2.81,6.207,2.071,5.117,2.175
			C4.656,2.217,3.964,2.632,3.043,3.421C2.372,4.023,1.691,4.625,1,5.227l0.659,0.841c0.627-0.436,0.994-0.653,1.099-0.653
			c0.48,0,0.93,0.747,1.349,2.239c0.376,1.369,0.753,2.737,1.13,4.106C5.8,13.253,6.491,14,7.307,14
			c1.317,0,2.928-1.227,4.831-3.678c1.841-2.348,2.793-4.196,2.855-5.547C15.076,2.968,14.398,2.043,12.959,2.001z"/>
	</g>
</g>
</svg>
