<?xml version="1.0" encoding="utf-8"?>
<!-- Generator: Adobe Illustrator 16.0.4, SVG Export Plug-In . SVG Version: 6.00 Build 0)  -->
<!DOCTYPE svg PUBLIC "-//W3C//DTD SVG 1.1//EN" "http://www.w3.org/Graphics/SVG/1.1/DTD/svg11.dtd">
<svg version="1.1" id="Layer_1" xmlns="http://www.w3.org/2000/svg" xmlns:xlink="http://www.w3.org/1999/xlink" x="0px" y="0px"
	 width="16px" height="16px" viewBox="0 0 16 16" style="enable-background:new 0 0 16 16;" xml:space="preserve">
<path style="fill:#454342;" d="M8,1C4.14,1,1,4.14,1,8c0,3.859,3.14,7,7,7c3.859,0,7-3.141,7-7C15,4.14,11.859,1,8,1z M1.707,8
	c0-0.913,0.196-1.779,0.545-2.562l3.002,8.226C3.154,12.644,1.707,10.491,1.707,8z M8,14.293c-0.618,0-1.214-0.09-1.778-0.256
	l1.89-5.487l1.934,5.299c0.013,0.032,0.028,0.061,0.045,0.088C9.436,14.167,8.733,14.293,8,14.293z M8.867,5.049
	c0.38-0.02,0.721-0.06,0.721-0.06c0.339-0.04,0.299-0.539-0.04-0.519c0,0-1.02,0.08-1.678,0.08c-0.619,0-1.658-0.08-1.658-0.08
	c-0.339-0.02-0.378,0.499-0.04,0.519c0,0,0.321,0.04,0.66,0.06l0.98,2.687l-1.377,4.13L4.145,5.049c0.378-0.02,0.72-0.06,0.72-0.06
	C5.203,4.949,5.163,4.45,4.824,4.47c0,0-1.019,0.08-1.677,0.08c-0.118,0-0.257-0.002-0.405-0.007C3.867,2.834,5.801,1.707,8,1.707
	c1.639,0,3.13,0.626,4.25,1.652c-0.027-0.002-0.054-0.005-0.082-0.005c-0.617,0-1.056,0.538-1.056,1.117
	c0,0.519,0.299,0.958,0.617,1.477c0.239,0.418,0.519,0.957,0.519,1.735c0,0.539-0.206,1.164-0.479,2.035l-0.628,2.098L8.867,5.049z
	 M13.522,4.98c0.491,0.896,0.771,1.925,0.771,3.02c0,2.321-1.258,4.349-3.129,5.439l1.923-5.558
	c0.358-0.897,0.479-1.615,0.479-2.254C13.565,5.396,13.55,5.181,13.522,4.98z"/>
</svg>
