<?xml version="1.0" encoding="utf-8"?>
<!-- Generator: Adobe Illustrator 16.0.4, SVG Export Plug-In . SVG Version: 6.00 Build 0)  -->
<!DOCTYPE svg PUBLIC "-//W3C//DTD SVG 1.1//EN" "http://www.w3.org/Graphics/SVG/1.1/DTD/svg11.dtd">
<svg version="1.1" id="Layer_3" xmlns="http://www.w3.org/2000/svg" xmlns:xlink="http://www.w3.org/1999/xlink" x="0px" y="0px"
	 width="16px" height="16px" viewBox="0 0 16 16" style="enable-background:new 0 0 16 16;" xml:space="preserve">
<path style="fill:#F27D82;" d="M13,4c0-1.104-0.896-2-2-2S9,2.896,9,4c0,0.738,0.404,1.376,1,1.723V7c0,1.104-0.896,2-2,2
	C7.268,9,6.59,9.211,6,9.555V5.723C6.595,5.376,7,4.738,7,4c0-1.104-0.896-2-2-2S3,2.896,3,4c0,0.738,0.405,1.376,1,1.723V14h2v-1
	c0-1.104,0.896-2,2-2c2.209,0,4-1.791,4-4V5.723C12.596,5.376,13,4.738,13,4z M5,3c0.552,0,1,0.448,1,1S5.552,5,5,5S4,4.552,4,4
	S4.448,3,5,3z M11,5c-0.553,0-1-0.448-1-1s0.447-1,1-1s1,0.448,1,1S11.553,5,11,5z"/>
</svg>
